<?xml version="1.0" encoding="utf-8"?>
<!-- Generator: Adobe Illustrator 24.0.0, SVG Export Plug-In . SVG Version: 6.00 Build 0)  -->
<svg version="1.0" id="Layer_1" xmlns="http://www.w3.org/2000/svg" xmlns:xlink="http://www.w3.org/1999/xlink" x="0px" y="0px"
	 viewBox="0 0 120 127.9" style="enable-background:new 0 0 120 127.9;" xml:space="preserve">
<style type="text/css">
	.st0{opacity:0.2;}
	.st1{fill:#13110C;}
	.st2{stroke:#000000;stroke-width:0.1873;stroke-miterlimit:10;}
</style>
<g>
	<g class="st0">
		<path class="st1" d="M8.1,104.6c-0.5-0.3-0.8-0.4-1.1-0.6c-1.9-1.1-3.8-2.2-5.7-3.3c-0.5-0.3-0.7-0.6-0.6-1.1c0-0.1,0-0.3,0-0.4
			c0-25.5,0-51,0-76.4c0-0.3,0-0.6,0-1.1c0.3,0.1,0.5,0.2,0.7,0.3c2.1,1.2,4.1,2.4,6.2,3.6C8,25.7,8.2,26,8.1,26.4
			c0,0.2,0,0.3,0,0.5c0,25.5,0,51.1,0,76.6C8.1,103.8,8.1,104.1,8.1,104.6z"/>
		<path class="st1" d="M1.4,21.1c0.4-0.1,0.5-0.2,0.7-0.3c8.1-2.2,16.2-4.4,24.4-6.5C37,11.5,47.6,8.7,58.1,5.8
			c6-1.6,12-3.2,17.9-4.8c0.2-0.1,0.5-0.2,0.7-0.2c0.3,0,0.6,0,0.8,0.1c2.1,1.2,4.2,2.4,6.3,3.6c0.1,0.1,0.2,0.2,0.4,0.3
			c-0.4,0.1-0.7,0.2-1.1,0.3C78.5,6.5,73.8,7.8,69,9c-8,2.1-16,4.3-24,6.4C33.1,18.7,21.2,21.8,9.3,25c-0.4,0.1-0.8,0.1-1.2-0.1
			c-2.1-1.2-4.2-2.4-6.4-3.7C1.7,21.2,1.6,21.2,1.4,21.1z"/>
	</g>
	<path class="st2" d="M79.1,114.5c0,0.5,0,1,0,1.4c0,0.5,0,1,0,1.5c0,0.6,0,0.6-0.6,0.7c-1.4,0.4-2.8,0.8-4.2,1.1
		c-10.3,2.8-20.6,5.5-31,8.3c-0.2,0.1-0.5,0.1-0.7,0.1c-0.6-0.1-0.8-0.4-0.8-1.1c0-5.1,0-10.2,0-15.4c0-0.2,0-0.4,0-0.8
		c-0.3,0.1-0.6,0.1-0.8,0.2c-5.1,1.4-10.2,2.7-15.3,4.1c-0.6,0.2-1.1,0.1-1.7-0.2c-7.7-4.5-15.5-9-23.3-13.4
		c-0.3-0.1-0.5-0.3-0.8-0.5c0-26.7,0-53.4,0-80c4.8-1.3,9.6-2.6,14.3-3.8c16-4.3,31.9-8.6,47.9-12.8c4.8-1.3,9.5-2.5,14.3-3.8
		C77,0,77.4,0.1,77.8,0.3c7.9,4.6,15.8,9.1,23.7,13.7c0.5,0.3,0.6,0.6,0.6,1.1c0,5.1,0,10.1,0,15.2c0,0.3,0,0.5,0,0.9
		c0.4-0.1,0.8-0.2,1.1-0.3c5-1.3,10.1-2.7,15.1-4.1c0.6-0.2,1.2-0.1,1.6,0.4c0,11.9,0,23.9,0,35.9c-1.3,0.4-2.6,0.7-4.1,1.1
		c0.2,0.2,0.3,0.3,0.5,0.4c1,0.6,2,1.2,3,1.7c0.5,0.3,0.6,0.6,0.6,1.1c0,5.7,0,11.3,0,17c0,7.2,0,14.4,0,21.6c0,0.2,0,0.4,0,0.5
		c0,0.6,0,0.6-0.6,0.7c-1.4,0.4-2.8,0.7-4.2,1.1c-10.3,2.7-20.5,5.5-30.8,8.3c-0.7,0.2-1.2,0.1-1.8-0.2c-0.9-0.6-1.9-1.1-2.8-1.7
		C79.6,114.7,79.4,114.6,79.1,114.5z M78.5,78.1c-11.9,3.2-23.7,6.3-35.4,9.5c-0.2,1-0.1,39,0.1,39.5c11.8-3.2,23.6-6.3,35.4-9.5
		C78.5,104.5,78.5,91.4,78.5,78.1z M119.4,67.2c-0.3,0.1-0.5,0.1-0.7,0.1c-2.6,0.7-5.2,1.4-7.8,2.1c-8.8,2.3-17.5,4.7-26.3,7
		c-0.7,0.2-0.7,0.2-0.7,0.9c0,12.7,0,25.5,0,38.2c0,0.2,0,0.4,0,0.7c11.9-3.2,23.7-6.3,35.5-9.5C119.4,93.5,119.4,80.4,119.4,67.2z
		 M24.7,114.2c0-0.4,0-0.8,0-1.1c0-24.7,0-49.5,0-74.2c0-1,0-2.1,0-3.1c0-0.4-0.1-0.7-0.5-0.9c-4.9-2.8-9.9-5.7-14.8-8.5
		c-0.1-0.1-0.3-0.1-0.6-0.2c0,0.3,0,0.6,0,0.8c0,25.8,0,51.6,0,77.3c0,0.5,0.1,0.9,0.6,1.1c4.9,2.8,9.7,5.6,14.5,8.4
		C24.2,114,24.3,114.1,24.7,114.2z M119.4,27.7c-0.4,0.1-0.7,0.2-1,0.2c-9.9,2.6-19.8,5.3-29.6,7.9c-1.4,0.4-2.9,0.8-4.3,1.2
		c-0.6,0.2-0.6,0.2-0.6,0.7c0,0.2,0,0.4,0,0.5c0,8.7,0,17.4,0,26.1c0,2.3,0,4.6,0,6.9c0,0.2,0,0.5,0,0.8c11.9-3.2,23.7-6.3,35.5-9.5
		C119.4,51,119.4,39.4,119.4,27.7z M78.6,73.6c0.2-1,0.1-34.3-0.1-34.8c-5.7,1.5-11.4,3.1-17.1,4.6c0,11.7,0,23.2,0,34.9
		C67.3,76.6,72.9,75.1,78.6,73.6z M8.1,104.6c0-0.4,0-0.7,0-1c0-25.5,0-51.1,0-76.6c0-0.2,0-0.3,0-0.5c0-0.4-0.2-0.7-0.5-0.9
		c-2.1-1.2-4.1-2.4-6.2-3.6c-0.2-0.1-0.4-0.2-0.7-0.3c0,0.4,0,0.8,0,1.1c0,25.5,0,51,0,76.4c0,0.1,0,0.3,0,0.4
		c-0.1,0.5,0.2,0.8,0.6,1.1c1.9,1.1,3.8,2.2,5.7,3.3C7.4,104.1,7.7,104.3,8.1,104.6z M35.6,32.6c-0.3,0.1-0.5,0.1-0.8,0.2
		c-1.6,0.4-3.2,0.8-4.8,1.3c-1.4,0.4-1.2,0-1.2,1.6c0,25.5,0,51,0,76.5c0,0.3,0,0.5,0,0.8c0,0.1,0,0.3,0.1,0.5
		c2.2-0.6,4.4-1.2,6.7-1.8c0-0.4,0-0.7,0-1c0-8.1,0-16.2,0-24.3c0-0.4,0-0.8,0-1.2c0-0.3-0.1-0.6-0.4-0.7c-0.5-0.2-0.6-0.6-0.6-1.1
		c0-1.3,0-2.6,0-3.8c0-0.9-0.2-0.8,0.8-1.1c0,0,0.1-0.1,0.1-0.1C35.6,63.1,35.6,47.9,35.6,32.6z M1.4,21.1c0.2,0.1,0.3,0.1,0.4,0.2
		c2.1,1.2,4.2,2.4,6.4,3.7c0.4,0.2,0.8,0.2,1.2,0.1c11.9-3.2,23.8-6.4,35.7-9.6c8-2.1,16-4.3,24-6.4c4.7-1.3,9.4-2.5,14.2-3.8
		c0.3-0.1,0.6-0.2,1.1-0.3c-0.2-0.2-0.3-0.3-0.4-0.3c-2.1-1.2-4.2-2.4-6.3-3.6c-0.2-0.1-0.5-0.1-0.8-0.1C76.5,0.9,76.3,1,76,1
		c-6,1.6-12,3.2-17.9,4.8C47.6,8.7,37,11.5,26.5,14.3c-8.1,2.2-16.2,4.4-24.4,6.5C1.9,20.9,1.8,21,1.4,21.1z M42.9,30.6
		c-0.3,0.1-0.4,0.1-0.6,0.1c-1.8,0.5-3.5,0.9-5.3,1.4c-1,0.3-0.9,0.1-0.9,1.2c0,12.8,0,25.6,0,38.4c0,0.9,0,1.8,0,2.7
		c0,0.2,0,0.3,0.1,0.6c2.3-0.6,4.5-1.2,6.7-1.8C42.9,59,42.9,44.9,42.9,30.6z M43.6,30.4c-0.2,0.9-0.1,42.1,0.1,42.6
		c2.2-0.6,4.4-1.3,6.6-1.9c0.2-1.1,0.1-41.9-0.1-42.4C47.9,29.2,45.8,29.8,43.6,30.4z M50.8,28.5c0,14.2,0,28.3,0,42.4
		c1.1,0,2-0.3,3.1-0.6c0-0.6,0-1.1,0-1.6c0-0.5,0.1-0.6,0.6-0.8c0.7-0.2,1.4-0.4,2.1-0.6c0.3-0.1,0.6-0.2,0.9-0.3c0-0.3,0-0.6,0-0.9
		c0-6.5,0-13,0-19.5c0-0.2,0-0.3,0-0.5c0-0.3-0.1-0.6-0.4-0.7c-0.5-0.3-1-0.6-1.5-0.9c-0.2-0.1-0.4-0.3-0.4-0.6c0-3,0-5.9,0-8.9
		c0-0.4,0.2-0.6,0.5-0.6c0.2,0,0.4,0,0.6,0.1c0.4,0.2,0.7,0.4,1.2,0.6c0-0.8,0-1.5,0-2.2c0-0.7,0-1.4,0-2.1c0-0.7,0-1.4,0-2.1
		c0-0.7,0.1-1.3-0.1-2.1C55.2,27.3,53,27.9,50.8,28.5z M28.3,113.6c0-0.2,0.1-0.3,0.1-0.3c0-26.1,0-52.2,0-78.3c0-0.1,0-0.2,0-0.3
		c0,0,0,0,0-0.1c0,0,0,0-0.1-0.1c-0.4,0.1-0.9,0.2-1.4,0.4c-0.5,0.1-1,0.3-1.5,0.4c0,26.4,0,52.7,0,79
		C26.3,114.1,27.3,113.8,28.3,113.6z M83.3,116.1c0-0.4,0-0.7,0-1c0-12.5,0-25,0-37.6c0-0.2,0-0.4,0-0.5c0-0.3-0.1-0.5-0.4-0.6
		c-1.3-0.7-2.5-1.4-3.8-2.2c-0.1-0.1-0.4-0.1-0.5-0.1c-0.4,0.1-0.7,0.2-1.1,0.3c0,0.6,0,1.2,0,1.8c0,0.3,0.1,0.4,0.3,0.5
		c0.3,0.2,0.6,0.4,1,0.5c0.2,0.1,0.4,0.3,0.4,0.6c0,0.2,0,0.4,0,0.6c0,11.4,0,22.8,0,34.1c0,0.2,0,0.4,0,0.6c0,0.3,0.1,0.5,0.4,0.7
		c1.1,0.6,2.3,1.3,3.4,1.9C83,116,83.1,116.1,83.3,116.1z M83.3,72c0-0.4,0-0.7,0-0.9c0-5.5,0-11.1,0-16.6c0-5.6,0-11.1,0-16.7
		c0-0.5-0.1-0.8-0.6-1c-1.3-0.7-2.5-1.5-3.8-2.2c-0.2-0.1-0.4-0.2-0.6-0.3c0,0.2-0.1,0.4-0.1,0.6c0,0.7,0,1.3,0,2
		c0,0.4,0.1,0.7,0.5,0.8c0.4,0.2,0.6,0.5,0.5,0.9c0,0.2,0,0.4,0,0.5c0,9.8,0,19.7,0,29.5c0,0.2,0,0.4,0,0.5c0,0.3,0.1,0.5,0.4,0.7
		c1.1,0.6,2.1,1.2,3.2,1.8C83,71.9,83.1,71.9,83.3,72z M36.2,111.5c1.9-0.5,3.8-1,5.6-1.5c0-7.3,0-14.5,0-21.7
		c-1.9-1-3.7-2.1-5.5-3.1c0,0,0,0-0.1,0c0,0,0,0-0.1,0C36.2,93.9,36.2,102.6,36.2,111.5z M70.4,76.7c-0.7-0.1-1-0.1-1.5,0.1
		c-2.3,0.6-4.5,1.2-6.8,1.9c-0.8,0.2-1.5,0.2-2.1-0.3c-0.4-0.4-0.9-0.3-1.4-0.2c-6.8,1.8-13.7,3.7-20.5,5.5
		c-0.2,0.1-0.5,0.1-0.8,0.2c0.2,0.2,0.3,0.3,0.5,0.3c1.5,0.9,3.1,1.8,4.6,2.7c0.4,0.2,0.7,0.2,1,0.1c7.3-2,14.6-3.9,22-5.9
		c3.7-1,7.4-2,11-3c0.2-0.1,0.4-0.1,0.7-0.2c0-0.1,0-0.1,0-0.2c-0.5-0.1-0.9-0.1-1.4-0.2L70.4,76.7z M94.6,33.2
		c2.4-0.6,4.7-1.3,6.9-1.9c0.2-0.9,0.1-15.9,0-16.4c-0.2,0-0.4,0.1-0.7,0.1c-1.1,0.3-2.2,0.6-3.4,0.9c-0.8,0.2-1.6,0.4-2.4,0.6
		c-0.3,0.1-0.5,0.2-0.5,0.6c0,0.1,0,0.2,0,0.3c0,4.9,0,9.9,0,14.8C94.6,32.6,94.6,32.8,94.6,33.2z M94,16.9
		c-2.3,0.6-4.5,1.2-6.7,1.8c-0.1,1.4-0.1,15.9,0.1,16.4c2.2-0.6,4.4-1.2,6.6-1.8C94,27.8,94,22.4,94,16.9z M83.8,76.1
		c11.7-3.1,23.3-6.2,35-9.4c-0.3-0.2-0.5-0.3-0.7-0.4c-0.9-0.5-1.8-1-2.7-1.6c-0.4-0.2-0.8-0.3-1.2-0.2c-10,2.7-19.9,5.3-29.9,8
		c-0.2,0.1-0.4,0.1-0.5,0.2C83.8,73.9,83.8,75,83.8,76.1z M80,20.6c-0.1,1-0.1,9.5,0,10c0.5-0.1,1.1-0.2,1.6-0.3
		c0.7-0.1,0.9,0.1,0.9,0.7c0,1.3,0,2.5,0,3.8c0,0.6,0.7,1.3,1.3,1.1c0.9-0.2,1.8-0.5,2.8-0.7c0-5.5,0-10.9,0-16.5
		C84.4,19.5,82.2,20,80,20.6z M52.1,72.3c-0.3,0.1-0.5,0.1-0.7,0.2c-3.3,0.9-6.6,1.8-9.9,2.7c-1.2,0.3-2.4,0.7-3.6,1
		c-0.2,0.1-0.5,0.1-0.5,0.4c0,1.1,0,2.2,0,3.5c6.1-1.6,12.1-3.2,18.2-4.9c-0.1-0.3-0.2-0.6-0.3-0.8c-1,0.2-1.9,0.5-2.8,0.7
		c-0.1-0.4-0.3-0.8-0.4-1.2C52,73.4,52.1,72.9,52.1,72.3z M72.8,22.6c0,0.1-0.1,0.2-0.1,0.2c0,1.8,0,3.5,0,5.3
		c0,0.3,0.2,0.4,0.4,0.6c1.4,0.8,2.8,1.6,4.3,2.5c0.2,0.1,0.4,0.2,0.6,0.1c0.5-0.1,1-0.2,1.4-0.4c0.2-1.2,0.1-9.5-0.1-10
		C77.1,21.4,74.9,22,72.8,22.6z M55.8,35.2c0,0.3-0.1,0.4-0.1,0.5c0,2.6,0,5.1,0,7.7c0,0.4,0.1,0.6,0.5,0.8c1.2,0.7,2.4,1.4,3.6,2
		c0.1,0.1,0.3,0.1,0.5,0.2c0-1.3,0-2.6,0-3.9c0.5-0.2,0.9-0.3,1.3-0.4c0.3-0.9,0.4-0.9,1.2-0.5c0.1,0.1,0.3,0.1,0.4,0
		c0.3-0.1,0.6-0.2,0.9-0.3c0-0.3,0-0.5,0-0.7c0.1-0.6-0.2-0.9-0.7-1.2c-2.3-1.3-4.7-2.7-7-4C56.3,35.5,56.1,35.4,55.8,35.2z
		 M60.3,66.3c0-0.3,0-0.6,0-0.9c0-5.6,0-11.1,0-16.7c0-0.5,0.1-1.1-0.1-1.5c-0.2-0.4-0.8-0.6-1.2-0.8c-0.3-0.2-0.5-0.3-0.9-0.4
		c0,7,0,13.9,0,20.9C58.8,66.7,59.5,66.5,60.3,66.3z M70.4,28c-0.1,0.2-0.1,0.2-0.1,0.3c0,1.7,0,3.4,0,5.1c0,0.1,0.1,0.3,0.1,0.4
		c0.1,0.3,0.2,0.5,0.2,0.8c0,1.5,0,3,0,4.5c0,0.2,0,0.5,0,0.8c0.6-0.2,1.2-0.3,1.7-0.4c0.3-0.1,0.4-0.3,0.4-0.6c0-1,0-1.9,0-2.9
		c0-0.2,0-0.5,0-0.7c0.6-0.3,1.1-0.4,1.6,0c0.5,0.4,1.1,0.7,1.8,1c0-0.3,0.1-0.5,0.1-0.8c0-1,0-2,0-2.9c0-0.3,0.1-0.6,0.2-1
		C74.5,30.4,72.4,29.2,70.4,28z M35.7,83.4c7.6-2,15-4,22.5-6.1c-0.5-0.4-1-0.7-1.5-1c-0.4-0.2-0.7-0.2-1.1-0.1
		c-6.4,1.7-12.8,3.5-19.2,5.2c-0.2,0.1-0.4,0.1-0.6,0.2C35.7,82.2,35.7,82.7,35.7,83.4z M64.8,24.7c-2.3,0.6-4.5,1.2-6.6,1.8
		c-0.1,0.1-0.1,0.2-0.1,0.2c0,2.8,0,5.6,0,8.4c0,0.3,0.1,0.5,0.4,0.6c0.5,0.3,1.1,0.6,1.6,0.9c0.1,0.1,0.3,0.1,0.5,0.2
		c0-0.3,0-0.6,0-0.8c0-2,0-4,0-6c0-0.6,0-0.6,0.6-0.8c1.1-0.3,2.1-0.6,3.2-0.9c0.2,0,0.3-0.1,0.5-0.2C64.8,27,64.8,25.9,64.8,24.7z
		 M76,11.3c0,0,0,0.1-0.1,0.1c0.1,0.1,0.2,0.2,0.3,0.3c1.6,1.5,3.2,3.1,4.9,4.6c0.3,0.3,0.8,0.6,1.2,0.8c1.5,0.7,3.2,0.9,4.8,0.8
		c0.7-0.1,1.4-0.2,2-0.5c0.9-0.4,1-1.1,0.2-1.7c-0.4-0.3-1-0.6-1.5-0.8c-3.5-1.1-7.1-2.2-10.6-3.4C76.8,11.6,76.4,11.5,76,11.3z
		 M17.1,27.1c0,0-0.1,0.1-0.1,0.1c0.1,0.1,0.1,0.2,0.2,0.2c1.7,1.6,3.3,3.2,5,4.8c0.2,0.2,0.4,0.3,0.6,0.4c1.8,1,3.8,1.3,5.8,1.1
		c0.6-0.1,1.2-0.2,1.7-0.5c0.8-0.4,0.9-1,0.2-1.5c-0.4-0.4-0.9-0.7-1.5-0.8c-2.7-0.9-5.5-1.7-8.2-2.6C19.6,27.9,18.4,27.5,17.1,27.1
		z M31.7,23.2c0.2,0.2,0.2,0.3,0.3,0.4c1.7,1.6,3.3,3.2,5,4.8c0.2,0.2,0.4,0.3,0.6,0.4c1.9,1,3.9,1.3,6,1c0.5-0.1,1.1-0.2,1.6-0.5
		c0.7-0.4,0.8-0.9,0.2-1.5c-0.4-0.4-0.9-0.7-1.5-0.9c-3.8-1.2-7.7-2.4-11.5-3.6C32.2,23.3,32,23.3,31.7,23.2z M61.3,15.3
		C61.2,15.3,61.2,15.4,61.3,15.3c0.1,0.3,0.2,0.4,0.4,0.6c1.5,1.5,3,2.9,4.6,4.4c0.3,0.3,0.7,0.6,1.2,0.8c1.9,0.9,3.9,1.1,5.9,0.8
		c0.4-0.1,0.9-0.2,1.3-0.5c0.7-0.4,0.7-0.9,0.2-1.4c-0.4-0.5-1-0.8-1.6-0.9c-3.8-1.2-7.7-2.4-11.5-3.6
		C61.6,15.4,61.4,15.3,61.3,15.3z M46.5,19.3c0,0,0,0.1-0.1,0.1c0.2,0.2,0.3,0.3,0.5,0.5c1.5,1.4,3,2.8,4.4,4.3
		c0.5,0.5,1,0.8,1.7,1.1c1.6,0.6,3.3,0.8,5,0.7c0.5-0.1,1-0.2,1.4-0.4c1.1-0.4,1.1-1.1,0.2-1.8c-0.4-0.3-0.9-0.5-1.3-0.7
		c-3.8-1.2-7.5-2.4-11.3-3.6C47,19.4,46.8,19.3,46.5,19.3z M68.8,13.4C68.8,13.5,68.8,13.5,68.8,13.4c0.1,0.3,0.3,0.4,0.4,0.6
		c1.4,1.3,2.8,2.6,4.1,3.9c0.9,0.9,1.9,1.4,3,1.7c1.2,0.3,2.4,0.4,3.7,0.4c0.7-0.1,1.5-0.2,2.1-0.6c0.6-0.4,0.7-0.9,0.2-1.4
		c-0.4-0.4-1-0.7-1.5-0.9c-3.8-1.2-7.6-2.4-11.4-3.5C69.1,13.5,69,13.5,68.8,13.4z M54.1,17.4C54.1,17.4,54,17.4,54.1,17.4
		c0.1,0.3,0.2,0.4,0.4,0.6c1.5,1.4,2.9,2.8,4.4,4.2c0.5,0.5,1,0.8,1.6,1c1.4,0.6,2.9,0.8,4.5,0.7c0.7,0,1.4-0.2,2.1-0.4
		c1-0.4,1.1-1.2,0.2-1.8c-0.4-0.3-0.9-0.5-1.3-0.7c-3.7-1.2-7.5-2.3-11.2-3.5C54.5,17.5,54.3,17.4,54.1,17.4z M39.2,21.3
		c0.2,0.3,0.3,0.4,0.4,0.5c1.6,1.5,3.2,3,4.8,4.5c0.2,0.2,0.5,0.4,0.8,0.5c1.9,1,4,1.2,6.1,0.9c0.4-0.1,0.9-0.2,1.3-0.5
		c0.7-0.4,0.7-0.9,0.2-1.4c-0.5-0.5-1-0.8-1.6-0.9c-3.7-1.1-7.4-2.3-11.1-3.4C39.8,21.4,39.6,21.4,39.2,21.3z M83.6,9.5
		C83.5,9.5,83.5,9.6,83.6,9.5c0.1,0.2,0.2,0.4,0.4,0.6c1.5,1.4,2.9,2.8,4.3,4.2c0.5,0.5,1.1,0.8,1.7,1.1c1.6,0.6,3.3,0.8,5,0.6
		c0.5-0.1,1-0.2,1.5-0.4c1-0.4,1.1-1.1,0.2-1.8c-0.4-0.3-0.8-0.5-1.3-0.7c-3.8-1.2-7.6-2.4-11.4-3.5C83.9,9.6,83.7,9.5,83.6,9.5z
		 M24.7,25.3c0,0-0.1,0.1-0.1,0.1c0.2,0.2,0.3,0.3,0.5,0.5c1.5,1.4,2.9,2.8,4.4,4.2c0.5,0.5,1,0.8,1.7,1.1c1.6,0.6,3.3,0.8,5,0.6
		c0.6-0.1,1.1-0.2,1.6-0.5c0.8-0.4,0.8-0.9,0.2-1.5c-0.4-0.4-1-0.7-1.6-0.9c-3.7-1.1-7.4-2.3-11.1-3.4
		C25.1,25.4,24.9,25.3,24.7,25.3z M28.5,30.1c0,0,0.1-0.1,0.1-0.1c-0.1-0.1-0.1-0.2-0.2-0.3c-1.7-1.6-3.4-3.2-5-4.8
		c-0.4-0.4-0.9-0.7-1.5-0.9c-1-0.3-2-0.5-3.1-0.5c-0.8,0-1.7,0.1-2.5,0.3c-0.5,0.2-1,0.3-1.1,0.9c-0.1,0.6,0.4,0.9,0.8,1.2
		c0.4,0.2,0.8,0.4,1.2,0.6c3.1,1,6.3,2,9.4,3C27.2,29.7,27.8,29.9,28.5,30.1z M87.5,14.4c-0.1-0.2-0.2-0.3-0.2-0.3
		c-1.7-1.6-3.4-3.3-5.1-4.9c-0.3-0.3-0.6-0.5-1-0.7c-1.4-0.5-2.8-0.7-4.2-0.7c-0.8,0-1.7,0.1-2.4,0.6c-0.6,0.4-0.7,0.9-0.2,1.4
		c0.5,0.5,1.1,0.8,1.7,1c3.6,1.1,7.2,2.3,10.8,3.4C87,14.2,87.2,14.3,87.5,14.4z M72.8,18.3c-0.2-0.2-0.2-0.3-0.3-0.4
		c-1.7-1.6-3.3-3.2-5-4.8c-0.4-0.3-0.8-0.6-1.3-0.8c-1.4-0.5-2.8-0.7-4.3-0.6c-0.8,0.1-1.5,0.2-2.2,0.6c-0.6,0.4-0.7,0.9-0.2,1.4
		c0.4,0.4,0.9,0.7,1.5,0.9c3.7,1.2,7.4,2.3,11.1,3.5C72.3,18.2,72.5,18.2,72.8,18.3z M58.1,22.2c-0.2-0.2-0.2-0.3-0.3-0.3
		c-1.7-1.6-3.3-3.2-5-4.8c-0.5-0.4-1-0.7-1.6-0.9c-1.4-0.4-2.8-0.6-4.2-0.4c-0.7,0.1-1.4,0.2-2,0.6c-0.6,0.4-0.6,0.8-0.2,1.3
		c0.4,0.5,0.9,0.8,1.5,1c3.7,1.2,7.4,2.3,11.2,3.5C57.7,22.1,57.8,22.2,58.1,22.2z M43.3,26.2c-0.2-0.3-0.3-0.4-0.4-0.5
		c-1.6-1.5-3.2-3.1-4.8-4.6c-0.4-0.4-0.9-0.7-1.5-0.9c-1.5-0.5-3-0.6-4.5-0.4c-0.6,0.1-1.2,0.3-1.8,0.6c-0.6,0.3-0.7,0.8-0.2,1.3
		c0.5,0.5,1,0.8,1.7,1c3.6,1.1,7.2,2.3,10.8,3.4C42.8,26,43,26.1,43.3,26.2z M35.8,28.1c-0.2-0.2-0.3-0.4-0.4-0.5
		c-1.6-1.5-3.2-3.1-4.8-4.6c-0.3-0.3-0.8-0.6-1.2-0.8c-1.4-0.5-2.8-0.7-4.3-0.6c-0.7,0.1-1.4,0.2-2,0.5c-0.9,0.4-1,1.1-0.2,1.7
		c0.4,0.3,1,0.6,1.5,0.8c3.5,1.1,7.1,2.2,10.6,3.3C35.2,27.9,35.4,28,35.8,28.1z M79.8,16.2c0,0,0.1-0.1,0.1-0.1
		c-0.1-0.1-0.1-0.1-0.2-0.2c-1.6-1.6-3.3-3.2-5-4.7c-0.5-0.4-1-0.7-1.6-0.9c-1.4-0.4-2.8-0.6-4.2-0.4c-0.6,0.1-1.2,0.2-1.7,0.4
		c-0.9,0.4-1,1.1-0.3,1.7c0.4,0.3,1,0.6,1.5,0.8c3.5,1.1,7,2.2,10.5,3.3C79.3,16.1,79.6,16.1,79.8,16.2z M50.3,24.1
		C50.4,24.1,50.4,24,50.3,24.1c0-0.2,0-0.2-0.1-0.3c-1.7-1.6-3.3-3.2-5-4.8c-0.4-0.3-0.8-0.6-1.3-0.8c-1.2-0.4-2.4-0.6-3.7-0.6
		c-0.8,0-1.7,0.1-2.5,0.5c-0.9,0.4-1,1-0.3,1.7c0.5,0.4,1,0.7,1.6,0.9c3.5,1.1,7,2.2,10.5,3.2C49.9,24,50.1,24,50.3,24.1z
		 M65.1,20.1c0,0,0-0.1,0.1-0.1c-0.1-0.1-0.1-0.2-0.2-0.3c-1.6-1.5-3.2-3.1-4.9-4.6c-0.3-0.3-0.7-0.6-1.1-0.7
		c-1.6-0.6-3.3-0.8-5-0.6c-0.5,0.1-1,0.2-1.5,0.4c-0.8,0.4-0.9,1-0.2,1.6c0.5,0.4,1,0.7,1.6,0.9c3.5,1.1,7.1,2.2,10.6,3.3
		C64.6,20,64.8,20.1,65.1,20.1z M94.7,12.3c-0.2-0.3-0.3-0.4-0.5-0.5c-3.2-3.1-3.2-3.1-7.1-5.4c-0.6-0.3-1.1-0.5-1.7-0.5
		c-0.5,0-1-0.1-1.5,0c-0.7,0.1-1.4,0.2-2,0.5c-0.8,0.3-0.9,0.9-0.2,1.6c0.5,0.5,1,0.7,1.7,0.9c3.5,1.1,7.1,2.2,10.6,3.2
		C94.2,12.1,94.4,12.2,94.7,12.3z M61.2,30.1c-0.1,0.2-0.1,0.2-0.1,0.3c0,2.1,0,4.3,0,6.4c0,0.3,0.1,0.5,0.4,0.6
		c0.8,0.4,1.6,0.9,2.4,1.4c0.1,0,0.2,0.1,0.4,0.1c0-0.3,0-0.6,0-0.8c0-0.8,0-1.7,0-2.5c0-0.3,0-0.5,0.3-0.6c0.8-0.2,1.5-0.5,2.3-0.7
		c0.3-0.1,0.5-0.2,0.9-0.3C65.4,32.6,63.3,31.4,61.2,30.1z M72.1,28c0-1.8,0-3.5,0-5.2c-0.3,0.1-0.6,0.1-0.8,0.2
		c-1.7,0.5-3.4,0.9-5.1,1.4c-0.8,0.2-0.8,0.2-0.8,1c0,0.5,0,1.1,0,1.6c0,0.3,0,0.6,0,1c0.3-0.1,0.5-0.1,0.7-0.2
		c1-0.3,2.1-0.5,3.1-0.8c0.6-0.2,1-0.1,1.5,0.2C71.1,27.5,71.6,27.7,72.1,28z M20.9,32c0-0.1,0.1-0.1,0.1-0.2
		c-0.1-0.1-0.1-0.2-0.2-0.2c-1.6-1.5-3.2-3.1-4.9-4.6c-0.5-0.4-1-0.7-1.6-0.9c-1.4-0.4-2.7-0.6-4.1-0.5c-0.2,0-0.5,0.1-0.8,0.2
		c0.3,0.2,0.4,0.3,0.5,0.4c3,1.7,6,3.5,9,5.2C19.5,31.6,20.2,31.8,20.9,32z M60.3,68.3c-1.4,0.4-2.7,0.7-4,1.1
		c-0.2,0.7-0.2,4.2,0,4.8c1.2-0.3,2.4-0.6,3.5-1c0.2-0.7-0.1-1.5,0.4-2.1c0,0,0,0,0-0.1C60.3,70.2,60.3,69.3,60.3,68.3z M66.4,28.6
		c0,1.2,0,2.3,0,3.4c0,0.1,0.1,0.3,0.2,0.4c0.7,0.4,1.4,0.9,2.1,1.2c0.5,0.3,0.9,0,0.9-0.6c0-1.6,0-3.2,0-4.8c0-0.1-0.1-0.3-0.1-0.5
		C68.5,28.1,67.5,28.3,66.4,28.6z M73.3,35.8c0,1.1,0,2.1,0,3.2c1.3-0.3,2.5-0.7,3.6-1c0-0.1,0-0.1,0-0.2
		C75.8,37.2,74.6,36.5,73.3,35.8z M83.2,75.8c0-0.8,0-1.7,0-2.5c0-0.3,0.1-0.6-0.2-0.7c-0.4-0.2-0.9-0.6-1.3-0.6
		c-0.8,0.1-1.6,0.4-2.4,0.6c0,0-0.2,0.9,0.2,1.2L83.2,75.8z M100.1,14c-2.2-1.4-4.4-2.6-6.6-3.8c0.1,0.2,0.2,0.3,0.3,0.4
		c0.6,0.6,1.2,1.2,1.8,1.8C96.9,13.5,98.5,13.8,100.1,14z M69.1,40.1C70,40,70,40,70,39.2c0-1.4,0-2.7,0-4.1c0-0.2,0-0.4,0-0.7
		c-0.4,0.1-0.6,0.2-0.9,0.3C69.1,36.5,69.1,38.3,69.1,40.1z M65.1,41.2c0.8-0.1,0.8-0.1,0.8-0.8c0-1.4,0-2.9,0-4.3
		c0-0.2,0-0.3-0.1-0.5c-0.8,0-0.8,0-0.8,0.7c0,1.4,0,2.8,0,4.2C65,40.7,65.1,40.9,65.1,41.2z M56.8,74.6c0.6,0.5,2.6,1.7,3.1,1.8
		c0-0.8,0-1.7,0-2.6C58.8,74,57.9,74.3,56.8,74.6z M55.1,68.3c0.4,0.4,0.7,0.7,1.2,0.5c1.3-0.3,2.6-0.7,3.9-1.1c0,0,0.1-0.1,0.1-0.1
		c0-0.2,0-0.4,0-0.7C58.5,67.3,56.8,67.8,55.1,68.3z M82.1,35c0-1.3,0-2.5,0-3.9c-0.3,0.1-0.6,0.1-0.9,0.2c0,0.9,0,1.7,0,2.5
		C81.1,34.7,81.2,34.8,82.1,35z M55.3,71.3c-0.6,0.2-1.1,0.3-1.7,0.4c-0.9,0.2-0.9,0.2-1,1.1c0,0.1,0,0.3,0,0.5
		c0.9-0.2,1.8-0.5,2.6-0.7C55.3,72.1,55.3,71.7,55.3,71.3z M64.9,31.4c0-0.9,0-1.5,0-2.3c-0.9,0.1-1.7,0.4-2.6,0.7
		c0,0.1,0,0.1,0,0.2C63.1,30.4,64,30.8,64.9,31.4z M77.1,32.5c0,1.4,0,2.7,0,4c0,0.4,0.2,0.5,0.6,0.5c0-0.9,0-1.8,0-2.7
		c0-0.2,0-0.5,0.1-0.7c0.2-0.4,0.1-0.8,0.1-1.3C77.6,32.3,77.4,32.4,77.1,32.5z M73.4,76.6c1.2,0.2,2.4,0.4,3.6,0.6
		c0-0.1,0-0.1,0.1-0.2c-0.8-0.5-1.6-0.9-2.3-1.3C74.2,76,73.9,76.3,73.4,76.6z M75.1,75.1c0,0.1,0,0.1,0,0.2c0.6,0.3,1.1,0.7,1.8,1
		c0-0.6,0-1.1,0-1.7C76.3,74.8,75.7,74.9,75.1,75.1z M79.3,72c0.6-0.2,1.2-0.3,1.8-0.5c-0.6-0.5-1.3-0.9-1.8-1
		C79.3,71,79.3,71.4,79.3,72z M60.9,24c0,0.4,0,0.8,0.1,1.2c0.8-0.2,1.5-0.4,2.2-0.6c0,0,0-0.1,0-0.1C62.4,24.3,61.7,24.1,60.9,24z
		 M29.2,20.4c-0.7,0.2-1.4,0.4-2.1,0.6c0,0.1,0,0.1,0,0.2c0.7,0.1,1.4,0.3,2.1,0.4C29.2,21.1,29.2,20.8,29.2,20.4z M77.8,20.7
		c0-0.1,0-0.1,0-0.2c-0.7-0.1-1.5-0.3-2.2-0.4c0,0.4,0,0.8,0.1,1.2C76.5,21,77.2,20.8,77.8,20.7z M31.5,31.9c0,0.4,0,0.8,0,1.2
		c0.8-0.2,1.5-0.4,2.2-0.6c0,0,0-0.1,0-0.1C33,32.2,32.2,32,31.5,31.9z M90.4,16.1c0,0.4,0,0.8,0,1.2c0.8-0.2,1.5-0.4,2.2-0.6
		c0,0,0-0.1,0-0.1C91.9,16.4,91.2,16.3,90.4,16.1z M46.2,27.9c0,0.4,0,0.7,0,1.2c0.8-0.2,1.5-0.3,2.2-0.7
		C47.7,28.2,47,28.1,46.2,27.9z M58.7,13.7c0-0.4,0-0.8-0.1-1.2c-0.8,0.2-1.5,0.4-2.2,0.6c0,0,0,0.1,0,0.1
		C57.2,13.4,58,13.5,58.7,13.7z M73.4,8.6c-0.5,0.1-0.8,0.2-1.1,0.3C71.9,9,71.6,9,71.2,9.3c0.8,0.2,1.5,0.3,2.2,0.5
		C73.4,9.3,73.4,9,73.4,8.6z M12.4,24.9c0,0.1,0,0.1,0,0.2c0.7,0.1,1.4,0.3,2.2,0.5c0-0.4,0-0.8-0.1-1.2
		C13.8,24.5,13.1,24.7,12.4,24.9z M44,16.5c-0.8,0.2-1.5,0.3-2.3,0.7c0.8,0.2,1.5,0.3,2.3,0.5C44,17.3,44,16.9,44,16.5z M70.4,22.6
		c0,0,0-0.1,0-0.1c-0.7-0.1-1.3-0.2-2-0.4c0,0.4,0,0.7,0,1.1C69.1,23,69.8,22.9,70.4,22.6z M53.7,26c0,0.4,0,0.7,0,1.1
		c1.2-0.2,1.7-0.4,2-0.7C55,26.3,54.4,26.2,53.7,26z M97.8,14.2c0,0.2,0,0.4,0,0.5c0,0.2,0,0.3,0,0.5c0.9-0.1,1.6-0.3,2-0.6
		C99.2,14.5,98.6,14.3,97.8,14.2z M64,11.1c0,0,0,0.1,0,0.1c0.7,0.1,1.3,0.3,2,0.4c0-0.4,0-0.7,0-1.1C65.3,10.7,64.6,10.9,64,11.1z
		 M83.1,19.2c0.7-0.2,1.4-0.3,2-0.6c-0.3-0.1-0.7-0.2-1-0.3c-0.3-0.1-0.6-0.1-1-0.2C83.1,18.5,83.1,18.8,83.1,19.2z M36.5,19.5
		c0-0.4,0-0.7,0-1.1c-0.7,0.2-1.4,0.4-2,0.6c0,0,0,0.1,0,0.1C35.2,19.2,35.8,19.4,36.5,19.5z M38.9,31.1c0.7-0.2,1.4-0.4,2-0.6
		c0,0,0-0.1,0-0.1c-0.7-0.1-1.3-0.3-2-0.4C38.9,30.4,38.9,30.7,38.9,31.1z M21.8,23.5c0-0.4,0-0.7,0-1c-0.7,0.1-1.4,0.3-2,0.7
		C20.5,23.2,21.1,23.3,21.8,23.5z M51.3,14.5c-0.7,0.2-1.4,0.4-2,0.6c0,0,0,0.1,0,0.1c0.7,0.1,1.3,0.3,2,0.4
		C51.3,15.2,51.3,14.9,51.3,14.5z M78.7,7.1c0,0.1,0,0.1,0,0.2c0.6,0.1,1.3,0.2,1.9,0.4c0-0.4,0-0.7,0-1.1C80,6.8,79.4,6.9,78.7,7.1
		z M24.2,33.9c0,0.8,1,1.1,2.1,0.4C25.6,34.2,24.9,34.1,24.2,33.9z M36.2,78.2c0.1,0,0.1,0,0.2,0c0-0.3,0-0.5,0.1-0.8
		c0-0.3,0-0.6,0-0.9c0-0.2,0.1-0.6-0.3-0.8C36.2,76.6,36.2,77.4,36.2,78.2z M35.7,80c-0.1,0.6-0.1,0.6,0.5,0.4
		C36.1,80.2,35.9,80.1,35.7,80z M55.4,69.5c-0.3-0.1-0.4-0.2-0.7-0.3c0,0.3,0,0.4,0.1,0.6C55,69.8,55.1,69.7,55.4,69.5z M22.8,33.6
		c0-0.1,0.1-0.1,0.1-0.2c-0.3-0.1-0.5-0.3-0.8-0.4c0,0-0.1,0.1-0.1,0.1C22.3,33.3,22.6,33.4,22.8,33.6z M36.4,79.3
		c0-0.2,0-0.3,0-0.5c-0.2,0.1-0.3,0.1-0.5,0.2C36.1,79.1,36.2,79.2,36.4,79.3z"/>
	<path d="M85.7,73.4c0.2,0,0.4,0,0.6,0.1c0.4,0.2,0.8,0.6,0.4,1c-0.5,0.5-1.8,0.7-2.4,0.3c-0.6-0.3-0.1-0.9,0.3-1.1
		C84.9,73.5,85.3,73.4,85.7,73.4z"/>
	<path d="M71.6,77.1c0.2,0,0.4,0,0.6,0.1c0.4,0.2,0.8,0.6,0.4,1c-0.5,0.5-1.8,0.7-2.4,0.3c-0.6-0.3-0.1-0.9,0.3-1.1
		C70.8,77.2,71.2,77.1,71.6,77.1z"/>
	<path d="M81.8,72.7c0.2,0,0.4,0,0.6,0.1c0.4,0.1,0.8,0.5,0.4,0.9c-0.4,0.4-1.7,0.6-2.2,0.3c-0.6-0.3-0.1-0.8,0.3-1.1
		C81.1,72.8,81.5,72.7,81.8,72.7z"/>
</g>
</svg>
