<?xml version="1.0" encoding="utf-8"?>
<!-- Generator: Adobe Illustrator 24.0.0, SVG Export Plug-In . SVG Version: 6.00 Build 0)  -->
<svg version="1.1" id="Layer_1" xmlns="http://www.w3.org/2000/svg" xmlns:xlink="http://www.w3.org/1999/xlink" x="0px" y="0px"
	 viewBox="0 0 39.2 39.3" style="enable-background:new 0 0 39.2 39.3;" xml:space="preserve">
<style type="text/css">
	.st0{fill:none;}
	.st1{fill:#13110C;}
</style>
<g>
	<path class="st0" d="M6.9,18.3c0-7.2,5.8-13,13-13s13,5.8,13,13c0,0.8-0.1,1.6-0.2,2.4h1.8c-0.1-0.3-0.1-0.6,0.1-0.9
		c0.2-0.4,0.5-0.7,0.9-0.8c0.4-0.1,0.8,0,1.1,0.2c0,0,0.1,0,0.1,0c0-0.1,0-0.1,0-0.2c0-0.2-0.1-0.4-0.2-0.6
		c-0.1-0.2-0.2-0.5-0.2-0.7c0-0.1,0-0.2-0.1-0.3c0-0.1,0-0.1,0-0.2c0,0,0-0.1-0.1-0.1c0,0,0,0,0,0c-0.2-0.2-0.6-0.4-0.9-0.5
		c-0.7-0.4-1-1.1-0.7-1.9c0.2-0.5,0.6-0.8,1-0.8c0.2,0,0.4-0.1,0.6-0.1c-0.1-0.2-0.3-0.5-0.5-0.7c-0.2-0.3-0.4-0.6-0.6-0.9
		c-0.1-0.1-0.2-0.2-0.5-0.2c-0.3,0-0.6-0.1-1-0.2c-0.3-0.1-0.7-0.4-0.8-0.7c-0.2-0.4-0.2-0.8,0-1.2C33,9.3,33.5,9,33.9,8.9
		c0,0,0.1,0,0.1,0l-1.4-1.1c-0.1-0.1-0.2-0.2-0.2-0.2c-0.3,0-0.5,0-0.8,0.1c-0.4,0.1-0.8,0.1-1.2-0.1c-0.4-0.2-0.7-0.5-0.8-1
		c-0.1-0.5,0.1-1,0.4-1.3c0.1-0.1,0.3-0.2,0.4-0.3c-0.2-0.1-0.3-0.2-0.5-0.2l-1.4-0.5c-0.3,0.2-0.7,0.3-1,0.5
		c-0.1,0.1-0.6,0.3-1.2,0.1c-0.4-0.2-0.8-0.7-0.9-1.2c-0.1-0.5,0.1-1,0.4-1.3l0,0c-0.7-0.1-1.4-0.1-2-0.1c-0.1,0.1-0.2,0.2-0.4,0.3
		c-0.2,0.2-0.5,0.5-0.8,0.7c-0.4,0.3-0.9,0.4-1.4,0.1C21,3,20.7,2.6,20.7,2.1c0-0.5,0.1-0.8,0.2-1c-0.2,0.1-0.4,0.1-0.6,0.2
		c-0.3,0.1-0.7,0.2-1,0.3c-0.1,0-0.3,0.1-0.4,0.1c-0.1,0.1-0.2,0.3-0.3,0.5c0,0.1-0.1,0.2-0.1,0.3c-0.1,0.1-0.1,0.2-0.2,0.2
		c-0.2,0.3-0.4,0.7-1,0.8c-0.4,0.1-0.8-0.1-1.1-0.3c-0.3-0.3-0.5-0.6-0.5-1V1.6c-0.2,0.1-0.4,0.3-0.6,0.4c-0.3,0.2-0.5,0.4-0.8,0.6
		l-0.1,0.1c-0.1,0-0.2,0.1-0.2,0.1c-0.1,0.2-0.1,0.4-0.1,0.6c0,0.2-0.1,0.4-0.2,0.7c-0.2,0.6-0.5,0.9-1,1c-0.8,0.2-1.2-0.1-1.4-0.4
		c-0.2-0.3-0.3-0.5-0.4-0.8c0,0.1-0.1,0.1-0.1,0.2l-0.2,0.2c-0.3,0.3-0.5,0.7-0.8,1C9.6,5.5,9.6,5.5,9.6,5.6c0,0.2,0,0.3,0.1,0.5
		c0,0.3,0,0.5,0.1,0.9c0,0,0,0.1,0,0.1c0,0.6-0.4,1.2-0.9,1.3C8.1,8.6,7.6,8.3,7.4,8C7.3,7.8,7.2,7.7,7.1,7.5C7,7.7,6.9,7.9,6.9,8.1
		c0,0.1-0.1,0.2-0.1,0.3C6.6,8.7,6.5,9,6.4,9.3L6.4,9.5c0,0.2,0.1,0.4,0.2,0.7c0,0,0,0.1,0,0.1c0,0.1,0.1,0.2,0.1,0.3
		c0.1,0.2,0.2,0.4,0.2,0.6c0.1,0.5-0.3,1.2-0.8,1.4c-0.3,0.1-0.9,0.3-1.5-0.1c-0.1-0.1-0.2-0.1-0.3-0.2c0,0,0,0.1,0,0.2l0,0.2
		c0,0.5,0,0.8,0,1.3c0,0.2,0,0.4,0,0.7c0.1,0.1,0.2,0.3,0.3,0.4c0.1,0.2,0.3,0.3,0.4,0.5c0.3,0.3,0.7,0.9,0.3,1.6
		c-0.3,0.6-1.1,1.1-1.8,0.8l-0.3-0.1c0,0,0,0,0,0.1c0,0,0,0.1,0,0.1c0.1,0.5,0.3,1,0.5,1.6c0,0.1,0,0.1,0,0.2c0,0.1,0,0.1,0,0.2
		c0.3,0.2,0.7,0.4,1,0.6c0.3,0.2,0.6,0.5,0.7,0.9c0.1,0.3,0,0.7-0.2,1c-0.1,0.2-0.4,0.7-1,0.7c-0.2,0-0.4,0-0.7,0c0,0,0,0-0.1,0
		L4,23c0.3,0.5,0.6,0.9,0.9,1.5c0.1,0.2,0.3,0.3,0.7,0.3c0.3,0.1,0.6,0.1,1,0.3l1.5-1.4C7.4,22.1,6.9,20.3,6.9,18.3z"/>
	<path class="st0" d="M27.2,18.3c0-4-3.3-7.3-7.3-7.3s-7.3,3.3-7.3,7.3c0,0.9,0.2,1.7,0.4,2.4h13.7C27,20,27.2,19.2,27.2,18.3z"/>
	<path class="st0" d="M10.4,18.3c0-5.2,4.3-9.5,9.5-9.5s9.5,4.3,9.5,9.5c0,0.8-0.1,1.7-0.3,2.4h1.3c0.2-0.8,0.3-1.6,0.3-2.4
		c0-5.9-4.8-10.8-10.8-10.8S9.1,12.4,9.1,18.3c0,1.3,0.3,2.6,0.7,3.8l1-0.9C10.5,20.3,10.4,19.3,10.4,18.3z"/>
	<rect x="0.4" y="33.3" class="st1" width="38.8" height="4"/>
	<path class="st1" d="M1.8,31l4.9-4.4l0.6-0.6l1.3-1.2l1.7-1.5l1-0.9l0.5-0.4h1.8h12.8h2.4h1.3h2.3h2.8h1.2h2.8v-0.6v-0.6h-3.7
		c-0.2-0.3-0.2-0.4-0.1-0.5c0.1-0.1,0.2-0.2,0.3-0.3c0.1,0,0.2,0,0.3,0.1c0.2,0.1,0.5,0.2,0.9,0.4c0.2,0.1,0.3,0,0.5,0
		c0.1-0.1,0.2-0.1,0.2-0.2c0.1-0.1,0.1-0.2,0.1-0.3c0-0.3,0-0.7-0.1-1c-0.1-0.3-0.1-0.5-0.2-0.7c-0.1-0.2-0.1-0.4-0.2-0.7
		c0-0.1,0-0.1,0-0.2c0-0.1,0-0.2-0.1-0.3c0,0,0-0.1-0.1-0.1c-0.1-0.1-0.2-0.4-0.4-0.5c-0.3-0.3-0.7-0.4-1-0.6
		c-0.3-0.2-0.3-0.4-0.2-0.6c0.1-0.4,0.2-0.2,0.3-0.2c0.3-0.1,0.5-0.1,0.7,0c0.1,0,0.1,0.1,0.2,0.1c0.1,0,0.4,0,0.6-0.1
		c0,0,0.1-0.1,0.1-0.1c0.2-0.2,0.1-0.4,0.1-0.6c0-0.1,0-0.2-0.1-0.2c0-0.1-0.1-0.2-0.1-0.2c0-0.1-0.1-0.1-0.1-0.2
		c-0.2-0.3-0.4-0.6-0.6-0.9c-0.2-0.3-0.4-0.6-0.6-0.9c-0.3-0.5-0.8-0.7-1.3-0.7c-0.2,0-0.5,0-0.8-0.2c-0.1,0-0.2-0.1-0.3-0.2
		c0-0.1,0-0.2,0-0.3c0.1-0.2,0.3-0.3,0.4-0.3c0.3-0.1,0.5-0.1,0.8-0.2c0.2-0.1,0.4-0.2,0.4-0.4c0.1-0.2,0.1-0.3,0-0.5
		c-0.1-0.2-0.3-0.4-0.5-0.6L33.3,7c-0.2-0.2-0.4-0.5-0.8-0.5c-0.4,0-0.7,0-1.1,0.1c-0.2,0-0.4,0-0.6,0c-0.1,0-0.1-0.1-0.2-0.2
		c0-0.2,0-0.3,0-0.4c0.2-0.1,0.4-0.3,0.6-0.4c0.1-0.1,0.3-0.2,0.4-0.3c0.1-0.1,0.2-0.2,0.2-0.4c0-0.1,0-0.3-0.1-0.4l-0.1-0.1
		c0,0-0.1-0.1-0.2-0.1c-0.3-0.2-0.7-0.4-1.1-0.6l-1.6-0.5c-0.1,0-0.1,0-0.2,0h-0.2c-0.1,0-0.2,0-0.2,0.1c-0.3,0.2-0.7,0.3-1.1,0.5
		c-0.2,0.1-0.3,0.1-0.4,0.1c-0.1,0-0.2-0.2-0.3-0.4c0-0.1,0-0.3,0.1-0.4l0.6-0.7c0.1-0.1,0.1-0.3,0.1-0.4c0-0.2-0.2-0.4-0.4-0.5
		c-0.1,0-0.2,0-0.3-0.1c-0.2-0.1-0.5-0.1-0.7-0.1c-0.7-0.1-1.4-0.1-2.1-0.1c-0.2,0-0.5,0.1-0.6,0.2c-0.1,0.1-0.3,0.2-0.4,0.3
		c-0.2,0.2-0.5,0.4-0.7,0.6c-0.1,0.1-0.2,0.1-0.2,0c-0.2-0.1-0.3-0.2-0.3-0.4c0-0.2,0.1-0.3,0.2-0.5c0.1-0.1,0.1-0.3,0.1-0.3
		C22,1,22.2,0.6,22,0.3c0-0.1-0.1-0.1-0.2-0.2v0C21.5,0,21.2,0,21,0.1c-0.3,0.1-0.6,0.2-0.9,0.3c-0.3,0.1-0.7,0.2-1,0.3
		c-0.3,0.1-0.6,0.2-0.8,0.4c-0.2,0.2-0.3,0.5-0.5,0.7c0,0.1-0.1,0.2-0.1,0.2c-0.1,0.1-0.1,0.2-0.2,0.3c-0.2,0.3-0.2,0.3-0.4,0.4
		c-0.1,0-0.2,0-0.3-0.1c-0.1-0.1-0.1-0.2-0.1-0.2V1.4c0-0.1,0-0.1,0-0.1c0-0.1,0-0.2,0-0.3c0-0.1-0.1-0.3-0.2-0.4
		c-0.1-0.1-0.3-0.2-0.5-0.1l-0.1,0c-0.2,0.1-0.4,0.1-0.6,0.3C15,0.8,14.7,1,14.5,1.2c-0.3,0.2-0.5,0.4-0.9,0.6
		C13.4,2,13,2.2,12.9,2.6c-0.1,0.2-0.1,0.4-0.2,0.7c0,0.2-0.1,0.4-0.1,0.6c0,0.1-0.1,0.3-0.2,0.3c-0.3,0.1-0.3,0-0.4-0.1
		c-0.2-0.2-0.2-0.4-0.2-0.7c0-0.2,0-0.6-0.4-0.9c-0.2-0.2-0.5-0.1-0.7,0c-0.3,0.3-0.6,0.6-0.8,0.9L9.8,3.6C9.5,3.9,9.2,4.3,9,4.6
		C8.7,5,8.5,5.3,8.6,5.7c0,0.1,0,0.3,0,0.4c0,0.3,0.1,0.6,0.1,0.9c0,0.2-0.1,0.3-0.2,0.3c-0.3,0.1-0.4,0-0.4-0.1
		C8,7.2,7.9,7,7.8,6.8C7.7,6.6,7.6,6.5,7.5,6.4C7.3,6.1,6.8,6.1,6.6,6.4c0,0.1-0.1,0.2-0.2,0.3C6.3,6.8,6.3,6.9,6.2,7
		C6.1,7.3,6,7.5,5.9,7.7c0,0.1-0.1,0.2-0.1,0.2C5.7,8.3,5.6,8.7,5.5,9l0,0.1C5.3,9.4,5.3,9.6,5.3,9.6c0,0,0,0.1,0,0.1
		c0.1,0.3,0.2,0.5,0.3,0.8c0,0.1,0.1,0.2,0.1,0.4c0.1,0.1,0.1,0.3,0.1,0.4c0,0.1-0.1,0.3-0.1,0.3c-0.4,0.1-0.5,0.1-0.6,0
		c-0.1-0.1-0.3-0.2-0.4-0.4c-0.1-0.1-0.2-0.2-0.4-0.3c-0.2-0.2-0.5-0.2-0.6,0c-0.5,0.4-0.5,1-0.5,1.4l0,0.1c0,0.5,0,0.9,0,1.3
		c0,0.2,0,0.4,0,0.6c0,0.1,0,0.4,0.2,0.5c0.1,0.2,0.3,0.3,0.4,0.5c0.1,0.1,0.2,0.3,0.4,0.4c0.3,0.3,0.2,0.4,0.2,0.5
		c-0.1,0.2-0.4,0.3-0.4,0.3l-0.7-0.3c-0.1-0.1-0.2-0.1-0.3-0.1c-0.1-0.1-0.3-0.1-0.4,0c-0.1,0-0.2,0.1-0.3,0.3
		c-0.3,0.5-0.1,1.1,0.1,1.5c0.1,0.5,0.3,1.1,0.5,1.7c0,0.2,0.1,0.6,0.5,0.8c0.3,0.2,0.6,0.4,1,0.7c0.1,0.1,0.2,0.2,0.2,0.3
		c0,0.1,0,0.2,0,0.2c-0.1,0.1-0.1,0.2-0.1,0.2c-0.2,0-0.4,0-0.6,0c-0.2,0-0.4,0-0.7,0c-0.1,0-0.4,0-0.6,0.3c-0.1,0.1-0.2,0.4,0,0.7
		c0,0,0,0.1,0.1,0.2c0,0.1,0.1,0.2,0.1,0.3l0.3,0.4C3.5,24,3.8,24.4,4,24.9c0.3,0.7,1,0.8,1.4,0.9c0.1,0,0.2,0,0.3,0.1L5,26.5
		l-5,4.6l0.4,1h38.8v-0.6V31H1.8z M9.1,18.3c0-5.9,4.8-10.8,10.8-10.8s10.8,4.8,10.8,10.8c0,0.8-0.1,1.7-0.3,2.4h-1.3
		c0.2-0.8,0.3-1.6,0.3-2.4c0-5.2-4.3-9.5-9.5-9.5s-9.5,4.3-9.5,9.5c0,1,0.2,2,0.4,2.9l-1,0.9C9.4,20.9,9.1,19.7,9.1,18.3z
		 M12.6,18.3c0-4,3.3-7.3,7.3-7.3s7.3,3.3,7.3,7.3c0,0.9-0.2,1.7-0.4,2.4H13C12.8,20,12.6,19.2,12.6,18.3z M5.6,24.8
		c-0.4-0.1-0.6-0.1-0.7-0.3c-0.3-0.5-0.6-1-0.9-1.5l-0.2-0.3c0,0,0,0,0.1,0c0.2,0,0.4,0,0.7,0c0.5,0,0.8-0.5,1-0.7
		c0.2-0.3,0.2-0.7,0.2-1c-0.1-0.4-0.3-0.7-0.7-0.9c-0.4-0.2-0.7-0.5-1-0.6c0,0,0-0.1,0-0.2c0-0.1,0-0.1,0-0.2
		c-0.2-0.5-0.3-1.1-0.5-1.6c0,0,0-0.1,0-0.1c0,0,0,0,0-0.1l0.3,0.1c0.7,0.3,1.5-0.2,1.8-0.8c0.4-0.7,0-1.3-0.3-1.6
		c-0.1-0.2-0.3-0.3-0.4-0.5c-0.1-0.1-0.2-0.2-0.3-0.4c0-0.2,0-0.4,0-0.7c0-0.4,0-0.8,0-1.3l0-0.2c0-0.1,0-0.1,0-0.2
		c0.1,0.1,0.2,0.2,0.3,0.2c0.6,0.5,1.2,0.2,1.5,0.1c0.5-0.2,0.9-0.9,0.8-1.4c0-0.2-0.1-0.4-0.2-0.6c0-0.1-0.1-0.2-0.1-0.3
		c0,0,0-0.1,0-0.1C6.5,9.9,6.4,9.7,6.4,9.5l0.1-0.2C6.5,9,6.6,8.7,6.8,8.4c0-0.1,0.1-0.2,0.1-0.3C6.9,7.9,7,7.7,7.1,7.5
		C7.2,7.7,7.3,7.8,7.4,8c0.3,0.3,0.8,0.7,1.5,0.4C9.4,8.3,9.8,7.7,9.8,7c0,0,0-0.1,0-0.1C9.7,6.6,9.7,6.3,9.6,6.1
		c0-0.2,0-0.3-0.1-0.5c0,0,0-0.1,0.2-0.3c0.2-0.3,0.5-0.7,0.8-1L10.7,4c0-0.1,0.1-0.1,0.1-0.2c0.1,0.3,0.2,0.6,0.4,0.8
		c0.2,0.3,0.6,0.6,1.4,0.4c0.4-0.1,0.7-0.4,1-1c0.1-0.2,0.1-0.4,0.2-0.7c0-0.2,0.1-0.4,0.1-0.6c0,0,0.1-0.1,0.2-0.1l0.1-0.1
		c0.3-0.2,0.5-0.4,0.8-0.6c0.2-0.2,0.4-0.3,0.6-0.4v0.5c0,0.4,0.2,0.7,0.5,1c0.3,0.3,0.7,0.4,1.1,0.3c0.6-0.1,0.9-0.6,1-0.8
		c0-0.1,0.1-0.1,0.2-0.2c0.1-0.1,0.1-0.2,0.1-0.3c0.1-0.2,0.2-0.4,0.3-0.5c0.1,0,0.2-0.1,0.4-0.1c0.3-0.1,0.7-0.2,1-0.3
		c0.2-0.1,0.4-0.1,0.6-0.2c-0.1,0.2-0.2,0.5-0.2,1C20.7,2.6,21,3,21.4,3.2c0.4,0.3,1,0.2,1.4-0.1c0.3-0.2,0.5-0.4,0.8-0.7
		c0.1-0.1,0.2-0.2,0.4-0.3c0.6,0,1.3,0,2,0.1l0,0c-0.3,0.3-0.5,0.8-0.4,1.3c0.1,0.5,0.4,1,0.9,1.2c0.5,0.2,1,0,1.2-0.1
		c0.3-0.1,0.7-0.3,1-0.5L30,4.7c0.2,0.1,0.3,0.2,0.5,0.2C30.3,5,30.1,5.1,30,5.2c-0.3,0.3-0.5,0.8-0.4,1.3c0.1,0.5,0.4,0.8,0.8,1
		c0.4,0.1,0.7,0.2,1.2,0.1c0.3-0.1,0.6-0.1,0.8-0.1c0,0,0.1,0.1,0.2,0.2L34,8.9c0,0-0.1,0-0.1,0C33.5,9,33,9.3,32.8,9.7
		c-0.2,0.4-0.2,0.8,0,1.2c0.2,0.4,0.5,0.7,0.8,0.7c0.4,0.1,0.7,0.2,1,0.2c0.3,0.1,0.4,0.1,0.5,0.2c0.2,0.3,0.4,0.6,0.6,0.9
		c0.2,0.3,0.3,0.5,0.5,0.7c-0.2,0-0.4,0-0.6,0.1c-0.5,0-0.9,0.4-1,0.8c-0.3,0.7-0.1,1.4,0.7,1.9c0.3,0.2,0.6,0.3,0.9,0.5
		c0,0,0,0,0,0c0,0,0,0.1,0.1,0.1c0,0.1,0,0.1,0,0.2c0,0.1,0,0.2,0.1,0.3c0.1,0.3,0.1,0.5,0.2,0.7c0.1,0.2,0.1,0.4,0.2,0.6
		c0,0.1,0,0.1,0,0.2c0,0-0.1,0-0.1,0c-0.3-0.2-0.7-0.3-1.1-0.2c-0.4,0.1-0.7,0.4-0.9,0.8c-0.1,0.3-0.1,0.6-0.1,0.9h-1.8
		c0.2-0.8,0.2-1.6,0.2-2.4c0-7.2-5.8-13-13-13s-13,5.8-13,13c0,1.9,0.4,3.7,1.2,5.4l-1.5,1.4C6.2,24.9,5.9,24.9,5.6,24.8z"/>
	<rect x="0.4" y="38.2" class="st1" width="38.8" height="1.1"/>
</g>
</svg>
