<?xml version="1.0" encoding="utf-8"?>
<!-- Generator: Adobe Illustrator 24.0.0, SVG Export Plug-In . SVG Version: 6.00 Build 0)  -->
<svg version="1.1" id="Layer_1" xmlns="http://www.w3.org/2000/svg" xmlns:xlink="http://www.w3.org/1999/xlink" x="0px" y="0px"
	 viewBox="0 0 38.9 52" style="enable-background:new 0 0 38.9 52;" xml:space="preserve">
<style type="text/css">
	.st0{fill:none;}
	.st1{fill:#13110C;}
</style>
<g>
	<path class="st0" d="M15.7,11.7l0-10.7H7.3l0,10.7C8.4,12,12,13.1,15.7,11.7z"/>
	<path class="st0" d="M7.6,14.5l1.3,4.3c0.8,0.2,3.1,0.6,5.2,0l1.3-4.4c-1.3,0.4-2.6,0.6-3.8,0.6C9.9,15.1,8.5,14.8,7.6,14.5z"/>
	<path class="st1" d="M8.1,19.6l0.3,0.1c0.1,0,1.5,0.4,3.3,0.4c0.9,0,2-0.1,3-0.4l0.2-0.1l1.7-5.6l0.1,0V0H6.4v14l0.1,0L8.1,19.6z
		 M14.1,18.9c-2.2,0.6-4.5,0.2-5.2,0l-1.3-4.3c0.9,0.3,2.3,0.6,4,0.6c1.2,0,2.5-0.2,3.8-0.6L14.1,18.9z M15.7,1l0,10.7
		c-3.7,1.5-7.3,0.4-8.3,0L7.3,1H15.7z"/>
	<polygon class="st1" points="25.3,50.5 25.3,50.5 38.1,35.7 38.1,30.4 25.2,44.8 0.3,44.8 0.5,50.6 	"/>
	<polygon class="st1" points="26.4,29 26.4,24.4 13,37.2 0.3,37.2 0.3,42.4 13,42.4 13,42.5 	"/>
	<path class="st1" d="M38.2,36.3L25.6,51H0.3v1h25.4c0.1,0,0.3-0.1,0.4-0.2l12.8-14.9L38.2,36.3z"/>
	<path class="st1" d="M37.4,29.2h-9.9l-0.4,0.2L14,43.2L0.3,43.3l0,0.5l0,0.5l24.3-0.3l0.4-0.2l12.8-13.8L37.4,29.2z M24.4,43.1
		l-9,0.1l12.4-12.9h8.5L24.4,43.1z"/>
	<polygon class="st1" points="13.3,36.6 26.9,23.6 26.6,22.7 0.3,22.7 0.3,23.2 0.3,23.7 25.3,23.7 12.7,35.7 0.2,35.7 0.2,35.7 
		0.2,36.1 0.2,36.3 0.2,36.7 12.9,36.7 	"/>
	<path class="st0" d="M0.8,32.4c0.1,0.1,0.5,0.4,1.2,0.5L3,31.8c0-0.1-0.1-0.1-0.1-0.2C1.6,31.9,0.9,32.2,0.8,32.4z"/>
	<path class="st0" d="M7.4,31.5c0.1,0,0.1,0,0.2,0c-0.4-0.1-1-0.2-1.9-0.2s-1.5,0.1-1.9,0.2c0.1,0,0.1,0,0.2,0
		c0.4,0.1,0.9,0.2,1.7,0.2C6.5,31.7,7.1,31.6,7.4,31.5z"/>
	<path class="st0" d="M5.8,32.5c-0.2,0-0.4,0-0.6,0L5,33.3c0.2,0,0.5,0,0.7,0c1.1,0,2-0.1,2.7-0.2l-1-0.8
		C6.9,32.4,6.2,32.5,5.8,32.5z"/>
	<path class="st0" d="M8.7,31.7c-0.1,0.1-0.1,0.3-0.3,0.4l1.1,0.9c0.8-0.2,1.2-0.4,1.3-0.6C10.6,32.2,9.9,31.9,8.7,31.7z"/>
	<g>
		<path class="st0" d="M7.4,31.5c0.1,0,0.1,0,0.2,0c-0.4-0.1-1-0.2-1.9-0.2s-1.5,0.1-1.9,0.2c0.1,0,0.1,0,0.2,0
			c0.4,0.1,0.9,0.2,1.7,0.2C6.5,31.7,7.1,31.6,7.4,31.5z"/>
		<path class="st0" d="M8.7,31.7c-0.1,0.1-0.1,0.3-0.3,0.4l1.1,0.9c0.8-0.2,1.2-0.4,1.3-0.6C10.6,32.2,9.9,31.9,8.7,31.7z"/>
		<path class="st0" d="M5.8,32.5c-0.2,0-0.4,0-0.6,0L5,33.3c0.2,0,0.5,0,0.7,0c1.1,0,2-0.1,2.7-0.2l-1-0.8
			C6.9,32.4,6.2,32.5,5.8,32.5z"/>
		<path class="st1" d="M8.1,30.8c-0.7-0.3-1.7-0.3-2.3-0.3s-1.6,0-2.3,0.3c-1.4,0.2-2.7,0.5-3.2,1C0.1,32,0,32.2,0,32.4
			c0,0.2,0.1,0.4,0.2,0.6c0.8,0.9,3.7,1.2,5.5,1.2c2.1,0,5.8-0.4,5.8-1.7C11.5,31.4,9.8,31,8.1,30.8z M2,32.9
			c-0.8-0.2-1.2-0.4-1.2-0.5c0.1-0.2,0.8-0.5,2.1-0.7c0,0.1,0.1,0.1,0.1,0.2L2,32.9z M3.9,31.5c0.4-0.1,1-0.2,1.9-0.2
			s1.5,0.1,1.9,0.2c-0.1,0-0.1,0-0.2,0c-0.4,0.1-0.9,0.2-1.7,0.2c-0.7,0-1.3-0.1-1.7-0.2C4,31.5,3.9,31.5,3.9,31.5z M5.8,33.3
			c-0.3,0-0.5,0-0.7,0l0.2-0.8c0.2,0,0.4,0,0.6,0c0.4,0,1.1,0,1.7-0.2l1,0.8C7.7,33.2,6.8,33.3,5.8,33.3z M9.5,32.9L8.4,32
			c0.1-0.1,0.2-0.2,0.3-0.4c1.3,0.2,2,0.5,2.1,0.7C10.7,32.5,10.2,32.7,9.5,32.9z"/>
	</g>
	<g>
		<path class="st1" d="M14,24.1c-0.7-0.3-1.7-0.3-2.3-0.3s-1.6,0-2.3,0.3C7.7,24.3,6,24.8,6,25.7c0,1.4,3.6,1.7,5.8,1.7
			s5.8-0.4,5.8-1.7C17.5,24.8,15.8,24.3,14,24.1z M8,26.3c-0.8-0.2-1.2-0.4-1.2-0.5c0.1-0.2,0.8-0.5,2.1-0.7c0,0.1,0.1,0.1,0.1,0.2
			L8,26.3z M9.8,24.8c0.4-0.1,1-0.2,1.9-0.2s1.5,0.1,1.9,0.2c-0.1,0-0.1,0-0.2,0C13,25,12.5,25,11.7,25C11,25,10.4,25,10,24.9
			C10,24.9,9.9,24.8,9.8,24.8z M11.7,26.7c-0.3,0-0.5,0-0.7,0l0.2-0.8c0.2,0,0.4,0,0.6,0c0.5,0,1.3,0,2-0.2l1,0.8
			C13.9,26.6,12.9,26.7,11.7,26.7z M15.2,26.3l-1.1-0.9c0.2-0.1,0.4-0.3,0.5-0.4c1.3,0.2,2,0.5,2.1,0.7
			C16.6,25.9,16.1,26.1,15.2,26.3z"/>
	</g>
</g>
</svg>
