<?xml version="1.0" encoding="utf-8"?>
<!-- Generator: Adobe Illustrator 24.0.0, SVG Export Plug-In . SVG Version: 6.00 Build 0)  -->
<svg version="1.0" id="Layer_1" xmlns="http://www.w3.org/2000/svg" xmlns:xlink="http://www.w3.org/1999/xlink" x="0px" y="0px"
	 viewBox="0 0 123.8 121.8" style="enable-background:new 0 0 123.8 121.8;" xml:space="preserve">
<style type="text/css">
	.st0{opacity:0.2;fill:#13110C;}
	.st1{stroke:#000000;stroke-width:0.1873;stroke-miterlimit:10;}
</style>
<g>
	<path class="st0" d="M8.2,104.1c-0.3-0.2-0.5-0.2-0.7-0.3c-2-1.2-4-2.3-6-3.5c-0.5-0.3-0.7-0.6-0.7-1.2c0-7.8,0-15.6,0-23.3
		c0-17.8,0-35.5,0-53.3c0-0.3,0-0.6,0-1c0.2,0.1,0.4,0.1,0.5,0.2c2.1,1.2,4.2,2.4,6.3,3.6c0.3,0.2,0.5,0.4,0.5,0.8
		c0,0.2,0,0.4,0,0.6c0,25.4,0,50.7,0,76.1C8.2,103.3,8.2,103.6,8.2,104.1z"/>
	<path class="st0" d="M1.6,20.9c1.3-0.4,2.6-0.7,3.9-1c6.6-1.8,13.2-3.5,19.9-5.3C37.6,11.3,50,8,62.3,4.6c4.6-1.2,9.2-2.5,13.7-3.7
		c0.6-0.2,1.1-0.1,1.7,0.2c2,1.2,4,2.3,5.9,3.4c0.1,0.1,0.2,0.1,0.3,0.2c-0.2,0.3-0.5,0.3-0.7,0.3c-2.8,0.8-5.5,1.5-8.3,2.2
		c-10.3,2.8-20.6,5.5-30.9,8.3c-11.1,3-22.1,5.9-33.2,8.9C10.2,24.7,9.6,24.9,9,25c-0.2,0-0.5,0-0.6-0.1c-2.2-1.3-4.4-2.5-6.6-3.8
		C1.7,21.1,1.7,21.1,1.6,20.9z"/>
	<path class="st1" d="M123.7,106.3c-1.6,0.4-3.1,0.8-4.5,1.2c-17.7,4.7-35.3,9.5-53,14.2c-0.4,0.1-0.6,0.1-1-0.1
		c-2.5-1.4-4.9-2.9-7.4-4.3c-0.4-0.2-0.6-0.5-0.6-1c0-0.7,0-1.5,0-2.2c0-0.6-0.5-1.1-1.1-1c-0.6,0.1-1.1,0.3-1.7,0.5
		c0,0.3,0,0.5,0,0.7c0,2,0,3.9,0,5.9c0,0.8-0.4,1.1-1.1,0.7c-2.8-1.6-5.7-3.3-8.5-4.9c-0.3-0.2-0.4-0.4-0.4-0.7c0-1.7,0-3.4,0-5
		c0-0.2,0-0.5,0-0.8c-0.4,0.1-0.6,0.2-0.9,0.2c-6,1.6-12,3.2-18,4.8c-0.4,0.1-0.8,0.1-1.2-0.2c-5-2.9-9.9-5.7-14.9-8.6
		c-2.9-1.7-5.8-3.3-8.7-5c-0.5-0.3-0.7-0.6-0.7-1.2c0-9.2,0-18.3,0-27.5c0-16.9,0-33.9,0-50.8c0-0.2,0-0.4,0-0.6
		c3.9-1,7.7-2.1,11.5-3.1C28.7,12.9,45.8,8.3,63,3.8c4.5-1.2,9-2.4,13.4-3.6c0.5-0.1,0.8-0.1,1.2,0.2c7.8,4.5,15.7,9.1,23.5,13.6
		c0.5,0.3,0.7,0.6,0.7,1.2c-0.1,0.8,0,1.6,0,2.5c0.3-0.1,0.6-0.1,0.8-0.2c3.8-1,7.7-2.1,11.5-3.1c0.3-0.1,0.6-0.2,0.9,0
		c0.4,0.2,0.6,0.5,0.6,1c0,2,0,4,0,6c0,1.1,0,0.9,0.8,1.4c2.2,1.3,4.3,2.5,6.5,3.7c0.6,0.3,0.8,0.7,0.8,1.4c0,5.5,0,11,0,16.5
		c0,20.3,0,40.6,0,60.9C123.7,105.5,123.7,105.9,123.7,106.3z M66.1,121.2c19.1-5.1,38.1-10.2,57.1-15.3c0-26.2,0-52.2,0-78.4
		c-19.1,5.1-38.1,10.2-57.1,15.3C66.1,68.9,66.1,95,66.1,121.2z M24.7,113.8c0-0.4,0-0.7,0-0.9c0-13.6,0-27.3,0-40.9
		c0-12,0-24.1,0-36.1c0-0.5-0.1-0.8-0.6-1c-4.8-2.8-9.7-5.6-14.5-8.3c-0.2-0.1-0.4-0.2-0.7-0.4c0,0.4,0,0.7,0,1
		c0,17.4,0,34.8,0,52.2c0,8.3,0,16.6,0,24.8c0,0.5,0.1,0.8,0.6,1c4.9,2.8,9.7,5.6,14.5,8.4C24.2,113.6,24.4,113.7,24.7,113.8z
		 M8.2,104.1c0-0.5,0-0.8,0-1.2c0-25.4,0-50.7,0-76.1c0-0.2,0-0.4,0-0.6c0-0.4-0.1-0.6-0.5-0.8c-2.1-1.2-4.2-2.4-6.3-3.6
		c-0.1-0.1-0.3-0.1-0.5-0.2c0,0.4,0,0.7,0,1c0,17.8,0,35.5,0,53.3c0,7.8,0,15.6,0,23.3c0,0.6,0.2,0.9,0.7,1.2c2,1.1,4,2.3,6,3.5
		C7.6,103.9,7.8,104,8.2,104.1z M35.5,32.4c-2.3,0.6-4.4,1.2-6.6,1.8c0,0.1-0.1,0.2-0.1,0.3c0,26,0,52,0,78c0,0.1,0,0.3,0,0.4
		c0,0,0,0,0,0.1c0,0,0,0,0.1,0.1c2.1-0.6,4.3-1.2,6.5-1.7C35.5,85,35.5,58.8,35.5,32.4z M57.9,66.7c0,0.3,0,0.5,0,0.7
		c0,16.2,0,32.4,0,48.6c0,0.4,0.1,0.7,0.5,0.9c2.2,1.2,4.3,2.5,6.5,3.7c0.2,0.1,0.3,0.2,0.6,0.3c0-26,0-51.8,0-77.8
		c-0.3,0.1-0.4,0.2-0.6,0.3c-2.2,1.2-4.3,2.5-6.5,3.7c-0.4,0.2-0.5,0.5-0.5,0.9c0,3.7,0,7.4,0,11c0,0.2,0,0.4,0,0.7
		c0.2,0,0.4,0,0.5-0.1c0.6-0.1,1.2-0.3,1.8-0.5c0.5-0.1,0.9,0,1.2,0.3c0.4,0.4,0.6,1,0.6,1.6c0,1.1,0,2.1,0,3.2c0,1.1,0,2.1,0,3.2
		c0,0.9-0.3,1.3-1.2,0.7c-0.7-0.5-1.5-0.9-2.2-1.3C58.3,66.9,58.1,66.8,57.9,66.7z M44.9,87.9c0,0.4,0,0.7,0,1c0,6.4,0,12.9,0,19.3
		c0,2.2,0,4.4,0,6.6c0,0.3,0,0.6,0.4,0.8c2.6,1.5,5.1,2.9,7.6,4.4c0.1,0.1,0.3,0.1,0.5,0.1c0-0.4,0-0.7,0-1c0-23,0-46,0-68.9
		c0-0.2,0-0.3,0-0.5c0-0.3-0.1-0.5-0.4-0.7c-2.6-1.5-5.1-2.9-7.6-4.4c-0.1-0.1-0.3-0.1-0.4-0.1c0,0.2,0,0.4,0,0.6
		c0,7.4,0,14.9,0,22.3c0,0.4,0.1,0.7,0.5,0.9c1.5,0.8,3,1.7,4.5,2.6c0.9,0.5,0.7,0.3,0.7,1.3c0,2.7,0,5.4,0,8.1c0,3.2,0,6.5,0,9.7
		c0,0.7-0.4,0.9-1,0.6c-0.1-0.1-0.3-0.1-0.4-0.2c-1.2-0.7-2.3-1.4-3.5-2C45.5,88.2,45.3,88.1,44.9,87.9z M1.6,20.9
		c0.1,0.1,0.1,0.2,0.2,0.2C4,22.4,6.2,23.7,8.4,25C8.5,25.1,8.8,25.1,9,25c0.6-0.1,1.3-0.3,1.9-0.5c11.1-3,22.1-5.9,33.2-8.9
		c10.3-2.8,20.6-5.5,30.9-8.3c2.8-0.7,5.6-1.5,8.3-2.2c0.2-0.1,0.5-0.1,0.7-0.3c-0.1-0.1-0.2-0.1-0.3-0.2c-2-1.1-4-2.3-5.9-3.4
		c-0.6-0.3-1.1-0.4-1.7-0.2c-4.6,1.3-9.2,2.5-13.7,3.7C50,8,37.6,11.3,25.3,14.6c-6.6,1.8-13.2,3.5-19.9,5.3
		C4.2,20.2,2.9,20.6,1.6,20.9z M57.9,37.5C77,32.4,96,27.3,115,22.2c0-2.4,0-4.6,0-6.9c-0.7,0-56.7,15.1-57.2,15.3
		C57.9,32.9,57.9,35.1,57.9,37.5z M122.8,27c-0.3-0.2-0.5-0.3-0.6-0.4c-2.1-1.2-4.1-2.4-6.2-3.6c-0.5-0.3-0.9-0.3-1.4-0.2
		c-14.9,4-29.7,8-44.6,12c-3.6,1-7.2,1.9-10.8,2.9c-0.2,0.1-0.5,0-0.6,0.3c0.2,0.1,0.3,0.2,0.5,0.3c2.1,1.2,4.2,2.4,6.3,3.6
		c0.4,0.2,0.7,0.3,1.2,0.1c18.5-5,37-9.9,55.5-14.9C122.2,27.2,122.4,27.1,122.8,27z M28.3,34.4c-0.2,0-0.3,0-0.5,0.1
		c-0.5,0.1-1.1,0.3-1.6,0.4c-1.1,0.3-1,0-1,1.3c0,22.1,0,44.2,0,66.4c0,3.5,0,7,0,10.5c0,0.3,0,0.5,0,0.9c1.1-0.3,2.1-0.6,3-0.8
		C28.3,86.9,28.3,60.7,28.3,34.4z M49.6,89.9c0-0.3,0-0.4,0-0.6c0-5.7,0-11.4,0-17.1c0-0.4-0.1-0.6-0.4-0.8c-4-2.3-8-4.6-11.9-6.9
		c-0.1-0.1-0.3-0.1-0.5-0.2c0,0.3,0,0.5,0,0.7c0,5.6,0,11.2,0,16.8c0,0.5,0.1,0.7,0.6,1c3.9,2.2,7.8,4.5,11.7,6.7
		C49.1,89.7,49.3,89.8,49.6,89.9z M36.1,63.6c0.7-0.3,1.1-0.1,1.6,0.2c1.5,0.9,3,1.7,4.5,2.6c0.2,0.1,0.4,0.2,0.6,0.3
		c0-12.1,0-24.1,0-36.2c-2.3,0.6-4.5,1.2-6.7,1.8C36.1,42.7,36.1,53.1,36.1,63.6z M42.8,109.3c0-0.2,0-0.4,0-0.5
		c0-7.2,0-14.4,0-21.6c0-0.4-0.2-0.6-0.5-0.8c-1.9-1.1-3.8-2.2-5.7-3.3c-0.1-0.1-0.3-0.1-0.5-0.2c0,9.4,0,18.7,0,28.2
		C38.4,110.4,40.6,109.9,42.8,109.3z M50.1,42.2c0.1-1.1,0.1-13.1-0.1-13.6c-2.2,0.6-4.4,1.2-6.6,1.8c0,0.3,0,0.5,0,0.7
		c0,11.8,0,23.6,0,35.4c0,0.7,0.1,0.9,1,1.1c0-0.3,0-0.5,0-0.8c0-6.3,0-12.5,0-18.8c0-1.2,0-2.4,0-3.5c0-0.7,0-0.7,0.7-0.8
		c1.1-0.3,2.1-0.6,3.2-0.8C48.8,42.5,49.4,42.4,50.1,42.2z M50.6,42c0.3-0.1,0.5-0.1,0.7-0.2c1.4-0.4,2.9-0.7,4.3-1.2
		c0.5-0.1,1-0.2,1.5,0.1c0,0,0.1,0,0.2-0.1c0-0.7,0-1.5,0-2.2c0-0.4-0.1-0.7-0.3-1c-0.3-0.3-0.3-0.6-0.3-1c0-2,0-4.1,0-6.1
		c0-0.2,0-0.4,0-0.6c0.3-0.1,0.5-0.2,0.7-0.4c0-0.5,0-0.9,0-1.4c0-0.5,0-0.9,0-1.4c-0.3,0.1-0.5,0.1-0.7,0.1c-1.8,0.5-3.6,1-5.4,1.4
		c-0.7,0.2-0.7,0.2-0.7,0.9c0,4.1,0,8.1,0,12.2C50.6,41.5,50.6,41.7,50.6,42z M56.1,112.6c0-16.5,0-32.9,0-49.3
		c-0.6,0.2-1.2,0.3-1.7,0.5c0,16.3,0,32.4,0,48.6c0,0.2,0,0.3,0,0.5c0,0,0,0,0,0.1c0,0,0,0,0.1,0.1C55,112.9,55.5,112.7,56.1,112.6z
		 M46.4,44.1c0,0.1,0,0.1,0,0.2c0.2,0.1,0.4,0.3,0.6,0.4c2.2,1.3,4.5,2.6,6.7,3.9c0.5,0.3,0.6,0.6,0.6,1.1c0,3.5,0,6.9,0,10.4
		c0,0.3,0,0.5,0,0.9c0.7-0.2,1.2-0.3,1.7-0.5c0.2-1.5,0.1-18.3-0.1-18.8C52.8,42.4,49.6,43.2,46.4,44.1z M57.3,112.8
		c0-15.6,0-31.2,0-46.7c0.6-0.4,1.1-0.4,1.6,0c0.6,0.4,1.3,0.8,1.9,1.1c0.1,0.1,0.3,0.1,0.5,0.2c0-0.2,0-0.3,0-0.4
		c0-1.6,0-3.2,0-4.8c0,0,0-0.1,0-0.1c0,0,0,0,0,0c0,0,0,0-0.1,0C61,62.2,61,62.2,61,62.7c0,0.9-0.1,1-1,1.1c-0.2,0-0.5,0-0.7-0.1
		c-0.3-0.1-0.7-0.3-1-0.6c-0.5-0.4-1-0.3-1.6,0c0,0.3,0,0.6,0,0.9c0,15.9,0,31.8,0,47.7c0,0.1,0,0.2,0,0.3c0,0.1,0,0.1,0,0.2
		C56.7,112.6,56.9,112.8,57.3,112.8z M75.8,11.3c0,0,0,0.1-0.1,0.1c0.1,0.1,0.2,0.3,0.3,0.4c1.6,1.5,3.2,3.1,4.8,4.6
		c0.2,0.2,0.4,0.3,0.6,0.4c1.7,1,3.6,1.3,5.5,1.1c0.5,0,1.1-0.2,1.6-0.3c0.4-0.1,0.9-0.3,1-0.9c0.1-0.5-0.3-0.8-0.7-1.1
		c-0.4-0.3-0.8-0.5-1.3-0.6c-3.8-1.2-7.5-2.4-11.3-3.5C76.2,11.4,76,11.4,75.8,11.3z M61.1,15.2c0,0,0,0.1,0,0.1
		c0.1,0.1,0.1,0.1,0.2,0.2c1.7,1.6,3.4,3.2,5,4.8c0.2,0.1,0.3,0.3,0.5,0.4c1.8,1,3.7,1.3,5.7,1.1c0.6-0.1,1.2-0.2,1.8-0.5
		c0.8-0.4,0.8-0.9,0.2-1.5c-0.4-0.4-0.9-0.7-1.5-0.9c-3.8-1.2-7.6-2.4-11.4-3.6C61.5,15.3,61.3,15.3,61.1,15.2z M46.4,19.2
		c0,0,0,0.1-0.1,0.1c0.1,0.1,0.2,0.2,0.3,0.3c1.6,1.6,3.3,3.2,5,4.7c0.2,0.1,0.3,0.3,0.5,0.4c1.8,1,3.8,1.3,5.9,1.1
		c0.6-0.1,1.1-0.2,1.6-0.5c0.8-0.4,0.9-1,0.2-1.6c-0.4-0.3-0.9-0.6-1.4-0.8c-3.8-1.2-7.7-2.4-11.5-3.6
		C46.8,19.2,46.6,19.2,46.4,19.2z M31.8,23.1c0,0,0,0.1-0.1,0.1c0.1,0.1,0.1,0.2,0.2,0.2c1.7,1.6,3.3,3.2,5,4.8
		c0.2,0.1,0.3,0.3,0.5,0.4c1.9,1,3.9,1.3,5.9,1.1c0.4,0,0.8-0.2,1.2-0.3c0.4-0.1,0.9-0.3,1-0.9c0.1-0.5-0.3-0.8-0.7-1.1
		c-0.4-0.2-0.7-0.5-1.2-0.6c-3.8-1.2-7.6-2.4-11.5-3.6C32.1,23.2,31.9,23.2,31.8,23.1z M16.9,27c0.2,0.2,0.2,0.3,0.3,0.4
		c1.6,1.6,3.3,3.2,5,4.7c0.2,0.2,0.4,0.3,0.6,0.4c1.9,1,3.9,1.3,6,1c0.5-0.1,1.1-0.2,1.5-0.5c0.7-0.4,0.8-0.9,0.2-1.5
		c-0.4-0.4-1-0.7-1.6-0.9c-3.8-1.2-7.6-2.4-11.4-3.6C17.4,27.1,17.2,27.1,16.9,27z M24.6,25.2c0,0,0,0.1-0.1,0.1
		c0.1,0.1,0.1,0.2,0.2,0.2c1.6,1.5,3.2,3.1,4.9,4.6c0.3,0.3,0.6,0.5,1,0.6c1.6,0.8,3.4,1,5.1,0.9c0.6,0,1.2-0.2,1.7-0.4
		c1.1-0.4,1.2-1.2,0.2-1.9c-0.4-0.3-0.8-0.5-1.3-0.6c-3.1-1-6.2-1.9-9.3-2.9C26.2,25.7,25.4,25.4,24.6,25.2z M39.2,21.2
		c0.2,0.2,0.3,0.3,0.4,0.4c1.6,1.5,3.2,3,4.8,4.5c0.3,0.3,0.7,0.5,1.1,0.7c1.9,0.8,3.8,1.1,5.9,0.7c0.4-0.1,0.8-0.2,1.1-0.4
		c0.8-0.4,0.9-1,0.2-1.6c-0.4-0.3-0.9-0.6-1.4-0.8c-3.7-1.2-7.5-2.3-11.3-3.5C39.7,21.3,39.5,21.3,39.2,21.2z M54,17.3
		c0,0,0,0.1-0.1,0.1c0.1,0.1,0.2,0.2,0.3,0.3c1.6,1.5,3.2,3.1,4.8,4.6c0.2,0.2,0.6,0.4,0.9,0.6c1.6,0.8,3.3,1,5,1
		c0.7,0,1.5-0.1,2.1-0.5c0.8-0.4,0.9-1,0.2-1.6c-0.5-0.4-1-0.7-1.6-0.9c-3.7-1.1-7.4-2.3-11-3.4C54.4,17.4,54.2,17.4,54,17.3z
		 M83.4,9.5c0,0-0.1,0.1-0.1,0.1c0.2,0.2,0.3,0.3,0.5,0.5c1.4,1.4,2.9,2.7,4.3,4.1c0.5,0.5,1.1,0.8,1.7,1.1c1.3,0.5,2.6,0.7,3.9,0.7
		c0.9,0,1.9-0.1,2.7-0.5c0.8-0.4,0.8-1,0.2-1.6c-0.5-0.4-1-0.7-1.6-0.9c-3.6-1.1-7.3-2.2-10.9-3.4C83.8,9.6,83.6,9.5,83.4,9.5z
		 M68.7,13.4c0,0,0,0.1-0.1,0.1c0.2,0.2,0.3,0.3,0.5,0.5c1.5,1.4,2.9,2.8,4.4,4.2c0.4,0.4,0.9,0.7,1.4,0.9c1.4,0.6,3,0.9,4.5,0.8
		c0.8,0,1.7-0.1,2.4-0.6c0.7-0.4,0.8-0.9,0.2-1.5c-0.5-0.5-1-0.7-1.6-0.9c-3.7-1.1-7.4-2.3-11.1-3.4C69.1,13.5,68.9,13.4,68.7,13.4z
		 M43.3,26.1c-0.2-0.2-0.2-0.3-0.3-0.4c-1.7-1.6-3.3-3.2-5-4.8c-0.4-0.3-0.8-0.6-1.3-0.8c-1.4-0.5-2.8-0.7-4.2-0.6
		c-0.7,0.1-1.4,0.2-2,0.5c-0.9,0.4-0.9,1-0.2,1.6c0.5,0.4,1,0.7,1.7,0.9c3.6,1.1,7.1,2.2,10.7,3.4C42.8,26,43,26,43.3,26.1z
		 M28.6,30c-0.2-0.2-0.3-0.4-0.4-0.5c-1.6-1.6-3.3-3.1-4.9-4.7c-0.3-0.3-0.7-0.6-1.1-0.7c-1.4-0.5-2.8-0.7-4.3-0.6
		c-0.8,0-1.5,0.2-2.2,0.5c-0.7,0.4-0.8,0.9-0.2,1.5c0.5,0.5,1,0.7,1.6,0.9c3.6,1.1,7.2,2.2,10.8,3.4C28,29.9,28.3,29.9,28.6,30z
		 M57.8,22.1c0,0,0.1-0.1,0.1-0.1c-0.1-0.1-0.1-0.2-0.2-0.2c-1.7-1.6-3.3-3.2-5.1-4.8c-0.4-0.3-0.8-0.6-1.3-0.8
		c-1.3-0.5-2.7-0.7-4.2-0.6c-0.7,0.1-1.4,0.2-2.1,0.5c-0.8,0.4-0.8,1-0.2,1.6c0.4,0.4,0.9,0.7,1.5,0.9c3.3,1,6.6,2.1,9.9,3.1
		C56.8,21.8,57.3,22,57.8,22.1z M72.5,18.2C72.5,18.2,72.5,18.1,72.5,18.2c0-0.2-0.1-0.3-0.1-0.3c-1.7-1.6-3.4-3.2-5.1-4.8
		c-0.4-0.4-0.9-0.7-1.5-0.8c-1.3-0.4-2.7-0.6-4.1-0.5c-0.7,0.1-1.3,0.2-1.9,0.5c-0.8,0.4-0.9,1-0.2,1.6c0.4,0.3,0.9,0.6,1.4,0.8
		c3.7,1.2,7.4,2.3,11.1,3.5C72.2,18.1,72.3,18.2,72.5,18.2z M87.2,14.3c0,0,0-0.1,0.1-0.1c0-0.1-0.1-0.1-0.1-0.2
		c-1.7-1.6-3.4-3.3-5.1-4.9c-0.3-0.3-0.7-0.5-1.1-0.7c-1.5-0.6-3.1-0.8-4.7-0.6C75.6,7.9,75,8,74.5,8.2c-0.9,0.4-1,1-0.2,1.6
		c0.4,0.3,0.9,0.6,1.5,0.8c3.3,1.1,6.6,2.1,10,3.1C86.2,14,86.7,14.1,87.2,14.3z M64.9,20.1C65,20,65,20,64.9,20.1
		c-0.1-0.2-0.2-0.4-0.3-0.5c-1.6-1.5-3.1-3-4.7-4.5c-0.4-0.4-0.8-0.7-1.4-0.9c-1.3-0.4-2.6-0.7-4-0.6c-0.7,0.1-1.4,0.2-2,0.4
		c-1.1,0.4-1.2,1.1-0.3,1.8c0.4,0.3,1,0.6,1.5,0.8c3.5,1.1,7,2.2,10.5,3.3C64.5,20,64.7,20,64.9,20.1z M50.3,24c0,0,0-0.1,0.1-0.1
		c-0.1-0.1-0.1-0.2-0.2-0.2c-1.6-1.6-3.2-3.1-4.9-4.6c-0.3-0.3-0.7-0.6-1.1-0.7c-1.4-0.5-2.8-0.7-4.2-0.7c-0.8,0-1.6,0.2-2.3,0.5
		c-0.7,0.4-0.8,0.9-0.2,1.5c0.5,0.5,1,0.7,1.6,0.9c3.5,1.1,7.1,2.2,10.6,3.3C49.8,23.9,50.1,23.9,50.3,24z M35.7,28
		c-0.2-0.2-0.3-0.4-0.4-0.5c-1.6-1.5-3.2-3.1-4.8-4.6c-0.3-0.3-0.7-0.6-1.1-0.7c-1.7-0.7-3.5-0.9-5.3-0.6c-0.5,0.1-1,0.3-1.4,0.5
		c-0.6,0.3-0.7,0.8-0.2,1.4c0.5,0.5,1,0.8,1.7,1c3.6,1.1,7.1,2.2,10.7,3.3C35.2,27.8,35.4,27.9,35.7,28z M79.8,16.2
		c-0.1-0.2-0.2-0.3-0.3-0.3c-1.6-1.6-3.3-3.1-4.9-4.7c-0.4-0.4-0.8-0.7-1.4-0.8c-1.4-0.4-2.8-0.6-4.2-0.5c-0.7,0.1-1.5,0.2-2.1,0.6
		c-0.7,0.4-0.7,0.9-0.2,1.4c0.4,0.4,1,0.7,1.6,0.9c3.6,1.1,7.2,2.2,10.8,3.3C79.3,16.1,79.5,16.1,79.8,16.2z M94.3,12.2
		C94.3,12.2,94.4,12.1,94.3,12.2c-0.1-0.2-0.2-0.4-0.4-0.5c-0.8-0.7-1.5-1.4-2.3-2.2c-0.7-0.7-1.5-1.3-2.3-1.8
		c-0.8-0.4-1.6-0.9-2.4-1.4c-0.5-0.3-1.1-0.5-1.7-0.5c-0.5,0-1,0-1.6,0c-0.8,0.1-1.5,0.2-2.2,0.6c-0.6,0.4-0.6,0.8-0.2,1.3
		c0.4,0.5,1,0.8,1.6,1c3.6,1.1,7.2,2.2,10.9,3.3C94,12.1,94.1,12.2,94.3,12.2z M65.1,42.6c-0.7-0.6-6.8-4.1-7.2-4.1
		c0,2.7,0,5.5,0,8.3L65.1,42.6z M101.2,14.8c-2.3,0.6-4.6,1.2-6.8,1.8c-0.1,1-0.1,2.4,0.1,2.9c2.3-0.6,4.5-1.2,6.8-1.8
		C101.2,16.8,101.2,15.8,101.2,14.8z M44.4,108.8c0-0.3,0-0.5,0-0.7c0-6.6,0-13.3,0-19.9c0-0.8,0-0.8-0.9-1.1
		c-0.2,0.6-0.1,21.4,0,21.9C43.8,109,44,108.9,44.4,108.8z M71.9,22.7c-2.3,0.6-4.5,1.2-6.7,1.8c0,1,0,1.9,0,2.9
		c0.3-0.1,0.5-0.1,0.7-0.1c0.8-0.2,1.6-0.4,2.4-0.6c1.1-0.3,2.1-0.6,3.2-0.9c0.2-0.1,0.4-0.1,0.4-0.4C71.9,24.5,71.9,23.6,71.9,22.7
		z M79.8,23.5c2.3-0.6,4.4-1.2,6.7-1.8c0-1,0-1.9,0-2.9c-2.3,0.6-4.5,1.2-6.7,1.8C79.8,21.6,79.8,22.5,79.8,23.5z M79.1,20.8
		c-0.1,0-0.2,0-0.3,0c-2,0.5-4,1.1-6,1.6c-0.3,0.1-0.4,0.3-0.4,0.5c0,0.7,0,1.4,0,2.1c0,0.1,0.1,0.2,0.1,0.4
		c2.2-0.6,4.4-1.2,6.6-1.8C79.1,22.7,79.1,21.8,79.1,20.8z M93.7,16.8c-2.3,0.6-4.5,1.2-6.7,1.8c0,1,0,1.9,0,2.9
		c2.3-0.6,4.5-1.2,6.7-1.8C93.7,18.8,93.7,17.9,93.7,16.8z M57.9,29.4c2.3-0.6,4.5-1.2,6.6-1.8c0.1-0.9,0.1-2.5-0.1-2.9
		c-2.2,0.6-4.4,1.2-6.6,1.8C57.9,27.4,57.9,28.3,57.9,29.4z M20.9,31.8c-0.1-0.1-0.2-0.3-0.3-0.4c-1.6-1.5-3.1-3-4.7-4.5
		c-0.4-0.4-1-0.7-1.6-0.9c-1.5-0.4-2.9-0.6-4.4-0.4c-0.1,0-0.3,0.1-0.5,0.1c0.2,0.1,0.3,0.2,0.4,0.3c3,1.8,6.1,3.5,9.1,5.2
		C19.5,31.6,20.2,31.7,20.9,31.8z M54.4,63.1c0.3-0.1,0.5-0.1,0.7-0.2c1.1-0.3,2.2-0.6,3.3-0.9c0.8-0.2,1.6-0.4,2.4-0.7
		c0.2-0.1,0.4-0.1,0.4-0.5c0-0.7-0.7-1.2-1.3-1.1c-1.7,0.5-3.4,0.9-5.2,1.4c-0.2,0-0.3,0.1-0.5,0.2C54.4,62,54.4,62.5,54.4,63.1z
		 M56.8,41.7c0,6.1,0,12.2,0,18.3c0.3,0.1,0.5,0,0.5-0.3c0-0.2,0-0.3,0-0.5c0-5.5,0-11,0-16.5c0-0.2,0-0.3,0-0.5
		C57.3,41.9,57.1,41.7,56.8,41.7z M93.2,10c0,0-0.1,0.1-0.1,0.1c0.1,0.1,0.2,0.3,0.4,0.4c0.7,0.6,1.3,1.3,2,1.9
		c0.2,0.1,0.3,0.3,0.5,0.4c1.1,0.7,2.2,0.9,3.4,1.1c0.1,0,0.2,0,0.4-0.1C97.6,12.5,95.4,11.2,93.2,10z M75.5,21.2
		c0.8-0.2,1.5-0.4,2.2-0.6c0,0,0-0.1,0-0.1c-0.7-0.2-1.5-0.3-2.2-0.5C75.5,20.4,75.5,20.7,75.5,21.2z M31.4,31.8c0,0.4,0,0.8,0,1.2
		c0.8-0.2,1.5-0.4,2.2-0.6c0,0,0-0.1,0-0.1C32.9,32.1,32.2,31.9,31.4,31.8z M14.5,24.3c-0.8,0.2-1.5,0.3-2.1,0.6c0,0,0,0.1,0,0.1
		c0.7,0.1,1.4,0.3,2.1,0.4C14.5,25,14.5,24.7,14.5,24.3z M92.3,16.6c0-0.1,0-0.1,0-0.2c-0.7-0.1-1.5-0.3-2.2-0.4
		c0,0.4,0,0.8,0.1,1.2C90.9,17,91.6,16.8,92.3,16.6z M73.2,8.5c-0.8,0.2-1.5,0.4-2.2,0.6c0,0,0,0.1,0,0.1c0.7,0.2,1.5,0.3,2.2,0.5
		C73.3,9.3,73.2,8.9,73.2,8.5z M60.8,25.1c0.7-0.2,1.5-0.4,2.2-0.6c0,0,0-0.1,0-0.1c-0.7-0.2-1.5-0.3-2.2-0.5
		C60.8,24.3,60.8,24.7,60.8,25.1z M48.3,28.4c0,0,0-0.1,0-0.1c-0.7-0.2-1.5-0.3-2.2-0.5c0,0.4,0,0.8,0.1,1.2
		C46.9,28.8,47.6,28.6,48.3,28.4z M29.2,20.3c-0.7,0.2-1.4,0.4-2.1,0.6c0,0,0,0.1,0,0.1c0.7,0.1,1.4,0.3,2.2,0.5
		C29.2,21.1,29.2,20.7,29.2,20.3z M56.4,13c0,0,0,0.1,0,0.1c0.7,0.2,1.4,0.3,2.2,0.5c0-0.4,0-0.8,0-1.2C57.8,12.6,57.1,12.8,56.4,13
		z M43.9,16.4c-0.7,0.2-1.4,0.4-2.1,0.6c0,0,0,0.1,0,0.1c0.7,0.2,1.4,0.3,2.2,0.5C43.9,17.2,43.9,16.8,43.9,16.4z M53.5,27
		c0.7-0.2,1.4-0.4,2.1-0.6c0,0,0-0.1,0-0.1c-0.7-0.1-1.4-0.3-2.1-0.4C53.5,26.3,53.5,26.6,53.5,27z M70.3,22.5c0,0,0-0.1,0-0.1
		c-0.7-0.1-1.4-0.3-2.1-0.4c0,0.4,0,0.7,0,1.1C68.9,22.9,69.6,22.7,70.3,22.5z M97.6,15.2c0.7-0.2,1.4-0.4,2-0.5c0-0.1,0-0.1,0-0.2
		c-0.7-0.1-1.3-0.3-2-0.4C97.6,14.5,97.6,14.8,97.6,15.2z M41,30.4c0,0,0-0.1,0-0.1c-0.7-0.1-1.4-0.3-2.1-0.4c0,0.4,0,0.7,0,1.1
		C39.6,30.8,40.3,30.6,41,30.4z M82.9,19.2c0.7-0.2,1.4-0.4,2-0.5c0,0,0-0.1,0-0.1c-0.7-0.1-1.3-0.3-2-0.4
		C82.9,18.5,82.9,18.8,82.9,19.2z M80.5,7.7c0-0.4,0-0.7,0-1.1c-0.7,0.2-1.4,0.3-2,0.7C79.1,7.4,79.8,7.5,80.5,7.7z M49.1,15
		c0,0,0,0.1,0,0.1c0.6,0.1,1.3,0.3,2,0.4c0-0.4,0-0.7,0-1.1C50.4,14.6,49.8,14.8,49.1,15z M65.8,11.6c0-0.4,0-0.7,0-1.1
		c-0.7,0.2-1.4,0.3-2,0.7C64.5,11.3,65.1,11.4,65.8,11.6z M21.8,22.3c-0.7,0.2-1.4,0.4-2,0.5c0,0,0,0.1,0,0.1c0.7,0.1,1.3,0.3,2,0.4
		C21.8,23,21.8,22.7,21.8,22.3z M34.4,18.9c0,0,0,0.1,0,0.1c0.7,0.1,1.4,0.3,2,0.4c0-0.4,0-0.7,0-1.1C35.7,18.6,35.1,18.7,34.4,18.9
		z M24.2,33.8c0.1,1,1.1,1,2.1,0.4C25.6,34.1,24.9,33.9,24.2,33.8z M59.7,63.3c0-0.4,0-0.7,0-1c-0.4,0.1-0.7,0.2-1.2,0.3
		C59,62.9,59.3,63.1,59.7,63.3z M22.1,32.8c0,0-0.1,0.1-0.1,0.1c0.3,0.1,0.5,0.4,0.8,0.3C22.6,33.1,22.4,33,22.1,32.8z M60.3,63
		C60.3,63,60.4,63,60.3,63c0.1-0.3,0.1-0.5,0.1-0.7c0,0-0.1,0-0.1,0C60.3,62.5,60.3,62.8,60.3,63z"/>
	<path d="M64.5,47.2c0,0.9-0.6,1.3-1.3,0.9c-0.8-0.4-1.2-1.3-1-2c0.2-0.6,0.6-0.8,1.2-0.5C64.1,45.9,64.4,46.6,64.5,47.2z"/>
	<path d="M61.9,43.2c0,0.9-0.6,1.3-1.3,0.9c-0.8-0.4-1.2-1.3-1-2c0.2-0.6,0.6-0.8,1.2-0.5C61.6,41.9,61.9,42.5,61.9,43.2z"/>
	<path d="M52.1,64c0,1.3-1.1,2-2.1,1.5c-0.3-0.2-0.6-0.3-1-0.4c-0.8-0.1-1.6-1.4-1.2-2.1c0.3-0.5,0.6-1,0.9-1.4
		c0.4-0.5,1.3-0.5,1.9-0.1C51.5,62.1,52,63,52.1,64z M49.2,62.8c0.1,0.2,0.3,0.5,0.4,0.7c0.1,0.2,0.2,0.5,0.2,0.7
		c0.7,0,0.8-0.2,0.6-0.7c-0.1-0.3-0.3-0.5-0.5-0.7C49.8,62.6,49.5,62.6,49.2,62.8z M48.2,63.2c-0.1,0.6,0.1,1,0.7,1.1
		C48.9,63.7,48.8,63.5,48.2,63.2z M51,64.6c-0.2,0-0.4,0-0.4,0.2c0,0,0.1,0.2,0.1,0.2C50.9,65,51.1,64.9,51,64.6z"/>
	<path d="M47.8,87.1c0,0.9-0.5,1.2-1.2,0.9c-0.7-0.3-1.2-1.1-1.1-1.8c0.1-0.8,0.7-1.2,1.4-0.7C47.4,85.9,47.7,86.4,47.8,87.1z"/>
	<path d="M47.8,72.1c0,0.8-0.5,1.1-1.3,0.8c-0.7-0.4-1.2-1.1-1.1-1.8c0.1-0.8,0.7-1.1,1.4-0.7C47.4,70.7,47.8,71.4,47.8,72.1z"/>
</g>
</svg>
