<?xml version="1.0" encoding="utf-8"?>
<!-- Generator: Adobe Illustrator 24.0.0, SVG Export Plug-In . SVG Version: 6.00 Build 0)  -->
<svg version="1.1" id="Layer_1" xmlns="http://www.w3.org/2000/svg" xmlns:xlink="http://www.w3.org/1999/xlink" x="0px" y="0px"
	 viewBox="0 0 42.3 41.8" style="enable-background:new 0 0 42.3 41.8;" xml:space="preserve">
<style type="text/css">
	.st0{fill:#13110C;}
</style>
<polygon class="st0" points="39.5,36.3 39.7,36.6 39.7,39.6 31.4,39.6 29.5,37.3 12,37.3 10.3,39.6 2,39.6 2,36.6 2.2,36.3 0,36.3 
	0,41.8 42.3,41.8 42.3,36.3 "/>
<g>
	<rect x="7.2" y="31.9" class="st0" width="1" height="2"/>
	<rect x="9.5" y="31.9" class="st0" width="1" height="2"/>
	<rect x="11.8" y="31.9" class="st0" width="1" height="2"/>
	<path class="st0" d="M31.9,31.3l-0.4,0.3c-0.2-0.1-0.4-0.1-0.6-0.1c-0.8,0-1.5,0.7-1.5,1.5c0,0.8,0.7,1.5,1.5,1.5
		c0.8,0,1.5-0.7,1.5-1.5c0-0.2-0.1-0.5-0.2-0.7l0.3-0.3L31.9,31.3z M30.9,33.6c-0.3,0-0.5-0.2-0.5-0.5c0-0.3,0.2-0.5,0.5-0.5
		c0.3,0,0.5,0.2,0.5,0.5C31.4,33.3,31.2,33.6,30.9,33.6z"/>
	<path class="st0" d="M36,31.4l-0.3,0.3c-0.2-0.1-0.4-0.1-0.6-0.1c-0.8,0-1.5,0.7-1.5,1.5c0,0.8,0.7,1.5,1.5,1.5
		c0.8,0,1.5-0.7,1.5-1.5c0-0.2-0.1-0.5-0.2-0.7l0.3-0.3L36,31.4z M35.1,33.6c-0.3,0-0.5-0.2-0.5-0.5c0-0.3,0.2-0.5,0.5-0.5
		c0.3,0,0.5,0.2,0.5,0.5C35.6,33.3,35.4,33.6,35.1,33.6z"/>
	<path class="st0" d="M40,29.1c0.3,0,0.6-0.3,0.6-0.6v-8.1c0-0.3-0.3-0.6-0.6-0.6h-1.1V15c0-0.1-0.1-0.3-0.2-0.4l-1.3-1.3V6.8
		c0-0.3-0.3-0.6-0.6-0.6h-2.6c0,0,0,0,0,0c0,0,0,0,0,0h-8.7V2.6C25.6,1.2,24.4,0,23,0h-3.7c-1.4,0-2.5,1.1-2.5,2.5v3.7H8h0H5.4
		c-0.3,0-0.6,0.3-0.6,0.6v6.5l-1.3,1.3c-0.1,0.1-0.2,0.3-0.2,0.4v4.9H2.2c-0.3,0-0.6,0.3-0.6,0.6v8.1c0,0.3,0.3,0.6,0.6,0.6h0.6v5.8
		l-1.1,1.5v3.7h9.1l1.8-2.3h17l1.9,2.3h9.1v-3.7l-1.2-1.5v-5.8H40z M34.8,7.4h1.5v6.2c0,0.1,0.1,0.3,0.2,0.4l1.3,1.3v1.6h-1.1v1.1
		h1.1v2h-2.9V7.4z M33.7,7.4v2.2h-9.2V7.4H33.7z M17.8,2.5c0-0.8,0.6-1.4,1.4-1.4H23c0.8,0,1.5,0.7,1.5,1.5v3.5h-2.7v-1h-1.1v1h-2.7
		V2.5z M23.3,7.2v3v2l-2.1,1.3L19,12.1v-2v-3H23.3z M8.6,7.4h9.2v2.2H8.6V7.4z M8.6,10.7h9.2v1.7c0,0.2,0.1,0.4,0.3,0.5l2.4,1.4v1.5
		h1.1v-1.4l2.5-1.5c0.2-0.1,0.3-0.3,0.3-0.5v-1.7h9.3v9.2h-3.6v-0.6c0-0.3-0.3-0.6-0.6-0.6H12.7c-0.3,0-0.6,0.3-0.6,0.6v0.6H8.6
		V10.7z M4.5,17.9h1.1v-1.1H4.5v-1.6l1.3-1.3C5.9,13.8,6,13.7,6,13.5V7.4h1.5v2.8c0,0,0,0,0,0v9.7h-3V17.9z M2.8,21h1.1H8h31.4v2.9
		h-8.7v1.1h8.7V28H2.8V21z M39.5,36.8v2.4h-7.6l-1.9-2.3h-18l-1.8,2.3H2.8v-2.4l1.1-1.5v-6.1h34.5v6.1L39.5,36.8z"/>
	<path class="st0" d="M6.1,22.7c-0.6,0-1.1,0.5-1.1,1.1s0.5,1.1,1.1,1.1c0.6,0,1.1-0.5,1.1-1.1S6.7,22.7,6.1,22.7z M6.1,24.1
		c-0.2,0-0.3-0.1-0.3-0.3s0.1-0.3,0.3-0.3s0.3,0.1,0.3,0.3S6.3,24.1,6.1,24.1z"/>
	<path class="st0" d="M8.9,22.7c-0.6,0-1.1,0.5-1.1,1.1s0.5,1.1,1.1,1.1s1.1-0.5,1.1-1.1S9.5,22.7,8.9,22.7z M8.9,24.1
		c-0.2,0-0.3-0.1-0.3-0.3s0.1-0.3,0.3-0.3s0.3,0.1,0.3,0.3S9.1,24.1,8.9,24.1z"/>
	<path class="st0" d="M11.8,22.7c-0.6,0-1.1,0.5-1.1,1.1s0.5,1.1,1.1,1.1s1.1-0.5,1.1-1.1S12.4,22.7,11.8,22.7z M11.8,24.1
		c-0.2,0-0.3-0.1-0.3-0.3s0.1-0.3,0.3-0.3s0.3,0.1,0.3,0.3S12,24.1,11.8,24.1z"/>
</g>
</svg>
