<?xml version="1.0" encoding="utf-8"?>
<!-- Generator: Adobe Illustrator 24.0.0, SVG Export Plug-In . SVG Version: 6.00 Build 0)  -->
<svg version="1.1" id="Layer_1" xmlns="http://www.w3.org/2000/svg" xmlns:xlink="http://www.w3.org/1999/xlink" x="0px" y="0px"
	 viewBox="0 0 55.8 38.9" style="enable-background:new 0 0 55.8 38.9;" xml:space="preserve">
<g>
	<path d="M0,0v38.9h55.8V0H0z M22.7,21.2c-0.9,0-1.6-0.8-1.6-1.6v-0.2c0-0.9,0.8-1.6,1.6-1.6h10.3c0.9,0,1.6,0.8,1.6,1.6v0.2
		c0,0.9-0.8,1.6-1.6,1.6H22.7z M26.8,25.4v0.2c0,0.9-0.8,1.6-1.6,1.6H14.8c-0.9,0-1.6-0.8-1.6-1.6v-0.2c0-0.9,0.8-1.6,1.6-1.6h10.3
		C26,23.8,26.8,24.5,26.8,25.4z M14.5,15.2c-0.9,0-1.6-0.8-1.6-1.6v-0.2c0-0.9,0.8-1.6,1.6-1.6h10.3c0.9,0,1.6,0.8,1.6,1.6v0.2
		c0,0.9-0.8,1.6-1.6,1.6H14.5z M28.9,13.6v-0.2c0-0.9,0.8-1.6,1.6-1.6h10.3c0.9,0,1.6,0.8,1.6,1.6v0.2c0,0.9-0.8,1.6-1.6,1.6H30.5
		C29.7,15.2,28.9,14.5,28.9,13.6z M29.2,25.4c0-0.9,0.8-1.6,1.6-1.6h10.3c0.9,0,1.6,0.8,1.6,1.6v0.2c0,0.9-0.8,1.6-1.6,1.6H30.8
		c-0.9,0-1.6-0.8-1.6-1.6V25.4z M38.7,21.2c-0.9,0-1.6-0.8-1.6-1.6v-0.2c0-0.9,0.8-1.6,1.6-1.6H49c0.9,0,1.6,0.8,1.6,1.6v0.2
		c0,0.9-0.8,1.6-1.6,1.6H38.7z M36.8,7.4c0-0.9,0.8-1.6,1.6-1.6h10.3c0.9,0,1.6,0.8,1.6,1.6v0.2c0,0.9-0.8,1.6-1.6,1.6H38.4
		c-0.9,0-1.6-0.8-1.6-1.6V7.4z M20.8,7.4c0-0.9,0.8-1.6,1.6-1.6h10.3c0.9,0,1.6,0.8,1.6,1.6v0.2c0,0.9-0.8,1.6-1.6,1.6H22.4
		c-0.9,0-1.6-0.8-1.6-1.6C20.8,7.6,20.8,7.4,20.8,7.4z M4.7,7.4c0-0.9,0.8-1.6,1.6-1.6h10.3c0.9,0,1.6,0.8,1.6,1.6v0.2
		c0,0.9-0.8,1.6-1.6,1.6H6.3c-0.9,0-1.6-0.8-1.6-1.6V7.4z M5,19.4c0-0.9,0.8-1.6,1.6-1.6h10.3c0.9,0,1.6,0.8,1.6,1.6v0.2
		c0,0.9-0.8,1.6-1.6,1.6H6.6c-0.9,0-1.6-0.8-1.6-1.6C5,19.6,5,19.4,5,19.4z M18.9,31.6c0,0.9-0.8,1.6-1.6,1.6H7
		c-0.9,0-1.6-0.8-1.6-1.6v-0.2c0-0.9,0.8-1.6,1.6-1.6h10.3c0.9,0,1.6,0.8,1.6,1.6V31.6z M34.9,31.6c0,0.9-0.8,1.6-1.6,1.6H23
		c-0.9,0-1.6-0.8-1.6-1.6v-0.2c0-0.9,0.8-1.6,1.6-1.6h10.3c0.9,0,1.6,0.8,1.6,1.6V31.6z M51,31.6c0,0.9-0.8,1.6-1.6,1.6H39
		c-0.9,0-1.6-0.8-1.6-1.6v-0.2c0-0.9,0.8-1.6,1.6-1.6h10.3c0.9,0,1.6,0.8,1.6,1.6V31.6z"/>
</g>
</svg>
