<?xml version="1.0" encoding="utf-8"?>
<!-- Generator: Adobe Illustrator 24.0.0, SVG Export Plug-In . SVG Version: 6.00 Build 0)  -->
<svg version="1.1" id="Layer_1" xmlns="http://www.w3.org/2000/svg" xmlns:xlink="http://www.w3.org/1999/xlink" x="0px" y="0px"
	 viewBox="0 0 39.9 39.5" style="enable-background:new 0 0 39.9 39.5;" xml:space="preserve">
<style type="text/css">
	.st0{fill:none;}
	.st1{fill:#13110C;}
</style>
<g>
	<polygon class="st0" points="23.3,22.5 10.7,22.5 1.5,32.4 21.4,32.3 23.3,30.3 	"/>
	<polygon class="st0" points="23.8,36.2 24.2,36.7 26.9,33.8 26.5,33.3 	"/>
	<path class="st0" d="M25.6,37c1.1,0,2-1,2-2.2v0L25.5,37H25.6z"/>
	<path class="st0" d="M30.5,13.1L30,35.7c2.5-3,8.1-9.7,8.4-10.1c0.3-0.4,0.5-1,0.5-1.3l0-22.1L30.5,13.1z"/>
	<path class="st1" d="M39,0.5l-9.4,12.1l-0.1,0.3L29,36.1c0,1.3-0.9,2.3-2.1,2.3H0.4v1h26.5c1.2,0,2.2-0.7,2.8-1.7
		c0.9-1,9.1-10.9,9.6-11.5c0.5-0.6,0.7-1.6,0.7-1.8V0.8L39,0.5z M38.4,25.6c-0.4,0.4-5.9,7.1-8.4,10.1l0.5-22.6l8.4-10.9l0,22.1
		C38.9,24.6,38.8,25.3,38.4,25.6z"/>
	<path class="st1" d="M24.6,31.2l1.2,1.4l-2.7,2.9l-1.6-1.7H0.5v4h0.2V38h25c1.7,0,3-1.4,3-3.1l0.5-22.1l8.2-10.9l1.2-1.4h-3.9
		L24.5,11.9L24.6,31.2z M27.7,34.8c0,1.2-0.9,2.2-2,2.2h-0.2L27.7,34.8L27.7,34.8z M24.2,36.7l-0.4-0.5l2.7-2.9l0.4,0.5L24.2,36.7z"
		/>
	<path class="st1" d="M21.9,33.2l2.2-2.3l0.1-0.3l-0.1-18.6l9.7-11.2L33.2,0l-9.8,11.3l-0.1,0.3l0.1,9.8H10.5l-0.4,0.2L0,32.5
		l0.4,0.8l21.2-0.1L21.9,33.2z M1.5,32.4l9.2-9.9h12.6l0,7.8l-2,2L1.5,32.4z"/>
</g>
</svg>
