<?xml version="1.0" encoding="utf-8"?>
<!-- Generator: Adobe Illustrator 24.0.0, SVG Export Plug-In . SVG Version: 6.00 Build 0)  -->
<svg version="1.1" id="Layer_1" xmlns="http://www.w3.org/2000/svg" xmlns:xlink="http://www.w3.org/1999/xlink" x="0px" y="0px"
	 viewBox="0 0 40.5 34.3" style="enable-background:new 0 0 40.5 34.3;" xml:space="preserve">
<style type="text/css">
	.st0{fill:#13110C;}
</style>
<g>
	<g>
		<g>
			<path class="st0" d="M20.2,20.3C10,20.3,1.7,11.2,1.7,0h3c0,9.5,7,17.3,15.6,17.3S35.8,9.5,35.8,0h3
				C38.8,11.2,30.5,20.3,20.2,20.3z"/>
		</g>
	</g>
	<g>
		<path class="st0" d="M20.2,21.9C9.3,21.9,0,11.9,0,0h0.8c0,11.4,8.9,21.1,19.4,21.1S39.7,11.4,39.7,0h0.8
			C40.5,11.9,31.2,21.9,20.2,21.9z M20.4,16.4C12,16.4,5.6,9.4,5.6,0h0.8c0,8.9,6,15.6,14,15.6s14-6.7,14-15.6h0.8
			C35.2,9.4,28.8,16.4,20.4,16.4z"/>
	</g>
</g>
<g>
	<path d="M31.8,34.3c-4.3,0-7.7-3.5-7.7-7.7s3.5-7.7,7.7-7.7s7.7,3.5,7.7,7.7S36.1,34.3,31.8,34.3z M31.8,20.2
		c-3.5,0-6.4,2.9-6.4,6.4c0,3.5,2.9,6.4,6.4,6.4s6.4-2.9,6.4-6.4C38.2,23.1,35.4,20.2,31.8,20.2z"/>
</g>
<g>
	<path d="M31.8,32.6c-3.3,0-6-2.7-6-6s2.7-6,6-6s6,2.7,6,6S35.2,32.6,31.8,32.6z M31.8,21.5c-2.8,0-5.1,2.3-5.1,5.1s2.3,5.1,5.1,5.1
		s5.1-2.3,5.1-5.1S34.7,21.5,31.8,21.5z"/>
</g>
<g>
	<circle class="st0" cx="31.8" cy="26.6" r="1.6"/>
</g>
<g>
	<path d="M8.6,34.3c-4.3,0-7.7-3.5-7.7-7.7s3.5-7.7,7.7-7.7s7.7,3.5,7.7,7.7S12.9,34.3,8.6,34.3z M8.6,20.2c-3.5,0-6.4,2.9-6.4,6.4
		c0,3.5,2.9,6.4,6.4,6.4s6.4-2.9,6.4-6.4C15,23.1,12.2,20.2,8.6,20.2z"/>
</g>
<g>
	<path d="M8.6,32.6c-3.3,0-6-2.7-6-6s2.7-6,6-6s6,2.7,6,6S11.9,32.6,8.6,32.6z M8.6,21.5c-2.8,0-5.1,2.3-5.1,5.1s2.3,5.1,5.1,5.1
		s5.1-2.3,5.1-5.1S11.5,21.5,8.6,21.5z"/>
</g>
<g>
	<circle class="st0" cx="8.6" cy="26.6" r="1.6"/>
</g>
<g>
	<path d="M20.2,15.6c-4.3,0-7.7-3.5-7.7-7.7s3.5-7.7,7.7-7.7S28,3.7,28,7.9S24.5,15.6,20.2,15.6z M20.2,1.5c-3.5,0-6.4,2.9-6.4,6.4
		s2.9,6.4,6.4,6.4s6.4-2.9,6.4-6.4S23.8,1.5,20.2,1.5z"/>
</g>
<g>
	<path d="M20.2,13.9c-3.3,0-6-2.7-6-6s2.7-6,6-6s6,2.7,6,6S23.5,13.9,20.2,13.9z M20.2,2.8c-2.8,0-5.1,2.3-5.1,5.1s2.3,5.1,5.1,5.1
		s5.1-2.3,5.1-5.1S23.1,2.8,20.2,2.8z"/>
</g>
<g>
	<circle class="st0" cx="20.2" cy="7.9" r="1.6"/>
</g>
</svg>
