<?xml version="1.0" encoding="utf-8"?>
<!-- Generator: Adobe Illustrator 24.0.0, SVG Export Plug-In . SVG Version: 6.00 Build 0)  -->
<svg version="1.1" id="Layer_1" xmlns="http://www.w3.org/2000/svg" xmlns:xlink="http://www.w3.org/1999/xlink" x="0px" y="0px"
	 viewBox="0 0 71.2 58.8" style="enable-background:new 0 0 71.2 58.8;" xml:space="preserve">
<style type="text/css">
	.st0{fill:#F9F9FA;}
	.st1{opacity:0.7;fill:#F4F4F4;enable-background:new    ;}
	.st2{opacity:0.6;fill:#E5E5E5;enable-background:new    ;}
</style>
<polygon class="st0" points="27.4,58.8 43.5,15.5 50.3,35.1 39.3,35.1 39.3,46.8 54.2,46.8 58.6,58.8 71.2,58.8 49.3,0 37.1,0 
	15.9,58.8 "/>
<polygon class="st0" points="27.4,58.8 43.5,15.5 50.3,35.1 39.3,35.1 39.3,46.8 54.2,46.8 58.6,58.8 71.2,58.8 49.3,0 37.1,0 
	15.9,58.8 "/>
<polygon class="st1" points="27.4,58.8 43.5,15.5 50.3,35.1 39.3,35.1 39.3,46.8 54.2,46.8 58.6,58.8 71.2,58.8 49.3,0 37.1,0 
	15.9,58.8 "/>
<polygon class="st2" points="33.4,0 21.2,0 0,58.8 11.6,58.8 "/>
</svg>
