<?xml version="1.0" encoding="utf-8"?>
<!-- Generator: Adobe Illustrator 24.0.0, SVG Export Plug-In . SVG Version: 6.00 Build 0)  -->
<svg version="1.1" id="Layer_1" xmlns="http://www.w3.org/2000/svg" xmlns:xlink="http://www.w3.org/1999/xlink" x="0px" y="0px"
	 viewBox="0 0 399.7 66" style="enable-background:new 0 0 399.7 66;" xml:space="preserve">
<style type="text/css">
	.st0{fill:#F9F9FA;}
	.st1{fill:#FFFFFF;}
</style>
<g>
	<g>
		<path class="st0" d="M386.5,12.6c0-3.8,3-6.5,6.6-6.5c3.5,0,6.5,2.7,6.5,6.5s-3,6.5-6.5,6.5C389.5,19.1,386.5,16.4,386.5,12.6z
			 M393.1,18c2.9,0,5.2-2.3,5.2-5.4s-2.3-5.4-5.2-5.4s-5.3,2.3-5.3,5.4C387.8,15.7,390.1,18,393.1,18z M391.8,16.4h-1.1V8.9h2.9
			c1.8,0,2.6,0.6,2.6,2.1c0,1.4-0.9,1.9-2,2l2.1,3.3h-1.1l-2-3.2h-1.3L391.8,16.4L391.8,16.4z M393.1,12.1c1,0,1.8,0,1.8-1.2
			c0-1-0.9-1.1-1.6-1.1h-1.5v2.3H393.1z"/>
		<path class="st0" d="M360,45.6V11.6h11.9c8.8,0,14.2,5.1,14.2,16.2c0,12.8-5.7,17.7-14.4,17.7H360z M368.4,38.1h1.9
			c4.1,0,7.8-2.8,7.8-9.1c0-7-3.2-9-8-9h-1.7L368.4,38.1L368.4,38.1z"/>
		<path class="st0" d="M140.9,45.5l10.6-40.1h9.2l10.9,40.1H164l-1.9-6.6h-11.7l-1.9,6.6H140.9z M156.2,14.2l-3.9,16.6h8L156.2,14.2
			z"/>
		<path class="st0" d="M172.9,45.5v-34h8.9v26H194v8L172.9,45.5L172.9,45.5z"/>
		<path class="st0" d="M194.9,11.5h8.4v20.4c0,3.3,0.5,6.2,3.9,6.2c3.1,0,3.9-2.5,3.9-6.2V11.5h8.4v19.9c0,10.9-3.9,15-12.4,15
			c-8,0-12.4-3.3-12.4-15L194.9,11.5L194.9,11.5z"/>
		<path class="st0" d="M239.1,24.6c-0.2-3.5-1.9-5.5-4.6-5.5c-2.9,0-4.8,3.4-4.8,9.9c0,4.7,0.8,9.2,5.1,9.2c2.8,0,4-2.5,4.4-5.8h8.2
			c-0.8,8.8-5.5,14-12.4,14c-8.6,0-13.7-6.9-13.7-17.9c0-11,5.6-17.9,12.9-17.9c7.9,0,12.3,5.1,13,13.9L239.1,24.6L239.1,24.6z"/>
		<path class="st0" d="M277.8,45.5v-34h12.5c6.1,0,11,1.8,11,8.5c0,3.5-1.8,6-3.5,7.4c3,1,4.5,4.1,4.5,7.8c0,7.6-4.6,10.2-11.7,10.2
			L277.8,45.5L277.8,45.5z M285.8,31.4v6.2h4.8c2.2,0,3.9-0.5,3.9-3.1c0-2.9-2-3.1-4.9-3.1H285.8z M285.8,19.5v5.6h4.6
			c1.8,0,3-1,3-3c0-2.6-1.8-2.7-3.6-2.7C289.8,19.5,285.8,19.5,285.8,19.5z"/>
		<path class="st0" d="M276.8,28.4c0,11.5-6.2,18-14.2,18c-8.5,0-14.2-6.6-14.2-18.1c0-10.6,5.8-17.6,14.2-17.6
			C272.2,10.7,276.8,19.4,276.8,28.4z M257.2,28.4c0,4.3,1,9.7,5.3,9.7c3.9,0,5.4-4.2,5.4-9.7c0-4.6-1.5-9.5-5.5-9.4
			C258.4,19,257.2,24.1,257.2,28.4z"/>
		<path class="st0" d="M350.1,30.1l-0.3-7.8V11.5h8.1v34h-8L340.7,27l0.4,7.7v10.8H333v-34h8L350.1,30.1z"/>
		<path class="st0" d="M331.5,28.4c0,11.5-6.2,18-14.2,18c-8.5,0-14.2-6.6-14.2-18.1c0-10.6,5.8-17.6,14.2-17.6
			C326.9,10.7,331.5,19.4,331.5,28.4z M311.9,28.4c0,4.3,1,9.7,5.3,9.7c3.9,0,5.4-4.2,5.4-9.7c0-4.6-1.5-9.5-5.5-9.4
			C313.1,19,311.9,24.1,311.9,28.4z"/>
	</g>
</g>
<polygon class="st0" points="6.6,45.3 15.8,20.5 19.7,31.7 13.4,31.7 13.4,38.4 22,38.4 24.5,45.3 31.7,45.3 19.1,11.6 12.2,11.6 
	0,45.3 "/>
<path class="st0" d="M34,45.3V11.7h6.6l13.8,22.4V11.7h6.3v33.6h-6.8L40.2,23.4v21.9C40.2,45.3,34,45.3,34,45.3z"/>
<path class="st0" d="M63.8,45.3V11.7h6.8v33.6C70.6,45.3,63.8,45.3,63.8,45.3z"/>
<path class="st0" d="M73.2,11.7h12.4c2.8,0,4.9,0.2,6.4,0.6c1.9,0.6,3.7,1.6,5.1,3.1s2.5,3.3,3.2,5.4c0.8,2.1,1.1,4.8,1.1,8
	c0,2.8-0.3,5.1-1.1,7.1c-0.8,2.5-2.1,4.4-3.6,6c-1.2,1.2-2.8,2-4.8,2.7c-1.5,0.5-3.5,0.7-6,0.7H73.2V11.7z M80.1,17.4v22.2h5.1
	c1.9,0,3.2-0.1,4.1-0.3c1.1-0.3,2-0.8,2.8-1.4s1.3-1.8,1.8-3.2c0.4-1.5,0.7-3.5,0.7-6.1s-0.2-4.6-0.7-6s-1.1-2.5-1.9-3.2
	C91,18.5,90,18,88.7,17.7c-0.9-0.2-2.8-0.3-5.6-0.3H80.1z"/>
<path class="st1" d="M121.6,66V0h1.2v66L121.6,66L121.6,66z"/>
<g>
	<path class="st0" d="M4,62.5c-0.8,0-1.5-0.2-2.1-0.6c-0.6-0.3-1.1-0.9-1.4-1.6c-0.4-0.7-0.5-1.5-0.5-2.5s0.2-1.8,0.6-2.5
		C1,54.5,1.5,54,2.1,53.7c0.6-0.4,1.3-0.5,2.1-0.5c0.5,0,1,0.1,1.5,0.3c0.5,0.2,0.8,0.5,1,0.8L6,55c-0.2-0.2-0.5-0.5-0.8-0.6
		c-0.3-0.2-0.6-0.2-1-0.2c-0.5,0-1.1,0.2-1.5,0.5s-0.8,0.7-1,1.2s-0.4,1.2-0.4,2s0.1,1.4,0.4,2c0.2,0.5,0.6,1,1,1.3
		c0.4,0.3,0.9,0.4,1.5,0.4c0.5,0,0.8-0.1,1.1-0.3c0.4-0.2,0.6-0.5,1-0.8l0.6,0.7c-0.4,0.4-0.8,0.8-1.2,0.9C5.1,62.4,4.6,62.5,4,62.5
		z"/>
	<path class="st0" d="M12,62.5c-0.8,0-1.5-0.2-2-0.6c-0.6-0.4-1-0.9-1.4-1.7c-0.4-0.7-0.5-1.5-0.5-2.5c0-1,0.1-1.8,0.5-2.5
		S9.4,54,10,53.6c0.6-0.3,1.2-0.5,2-0.5s1.5,0.2,2,0.5c0.6,0.4,1,0.9,1.4,1.6c0.4,0.7,0.5,1.5,0.5,2.5s-0.1,1.8-0.5,2.5
		s-0.8,1.2-1.4,1.7C13.4,62.3,12.8,62.5,12,62.5z M12,61.5c0.5,0,1-0.2,1.4-0.4c0.4-0.3,0.7-0.8,1-1.3c0.2-0.5,0.4-1.2,0.4-2
		c0-1.2-0.2-2-0.8-2.7c-0.5-0.7-1.1-1-2-1s-1.5,0.3-2,1s-0.8,1.5-0.8,2.7c0,0.8,0.1,1.4,0.4,2c0.2,0.5,0.5,1,1,1.3
		C11,61.3,11.4,61.5,12,61.5z"/>
	<path class="st0" d="M18.5,62.3v-9.1h1.2L23,59l1,1.9h0c0-0.5,0-1-0.1-1.5s0-1,0-1.5v-4.7H25v9.1h-1.2l-3.3-5.8l-1-1.8h0
		c0,0.5,0,0.9,0.1,1.4s0,1,0,1.5v4.7H18.5z"/>
	<path class="st0" d="M30.5,62.5c-0.7,0-1.2-0.1-1.8-0.3s-1-0.6-1.4-1l0.8-0.8c0.3,0.3,0.7,0.6,1.2,0.9c0.5,0.2,0.9,0.3,1.3,0.3
		c0.6,0,1-0.2,1.4-0.4c0.3-0.2,0.5-0.7,0.5-1.1c0-0.3,0-0.5-0.2-0.8s-0.3-0.3-0.5-0.5c-0.2-0.2-0.5-0.2-0.8-0.4l-1.3-0.5
		c-0.3-0.1-0.5-0.3-0.8-0.5c-0.3-0.2-0.5-0.5-0.7-0.8s-0.3-0.7-0.3-1.1c0-0.5,0.1-0.9,0.3-1.2s0.6-0.7,1-0.8c0.5-0.2,1-0.3,1.5-0.3
		s1,0.1,1.5,0.3s0.8,0.5,1.2,0.8L32.7,55c-0.3-0.2-0.6-0.5-0.9-0.7c-0.3-0.2-0.7-0.2-1.2-0.2c-0.5,0-0.9,0.1-1.2,0.3
		c-0.3,0.2-0.5,0.5-0.5,1c0,0.3,0.1,0.5,0.2,0.7c0.2,0.2,0.3,0.3,0.6,0.5c0.2,0.1,0.5,0.2,0.7,0.3l1.3,0.5c0.3,0.2,0.7,0.3,1,0.5
		s0.5,0.5,0.7,0.8s0.2,0.7,0.2,1.2c0,0.5-0.1,0.9-0.3,1.3c-0.2,0.4-0.6,0.7-1,0.9C31.7,62.4,31.1,62.5,30.5,62.5z"/>
	<path class="st0" d="M37.6,62.3v-8.2h-2.8v-1h6.7v1h-2.8v8.2H37.6z"/>
	<path class="st0" d="M43.8,62.3v-9.1h2.8c0.6,0,1.2,0.1,1.7,0.2s0.8,0.5,1.2,0.8s0.4,0.9,0.4,1.5c0,0.7-0.2,1.2-0.5,1.7
		s-0.8,0.7-1.5,0.9l2.3,3.9h-1.3l-2.2-3.8h-1.7v3.8H43.8z M44.9,57.5h1.5c0.7,0,1.2-0.2,1.7-0.5s0.5-0.8,0.5-1.3s-0.2-1-0.5-1.2
		c-0.4-0.2-1-0.3-1.7-0.3h-1.5V57.5z"/>
	<path class="st0" d="M55.5,62.5c-0.6,0-1.2-0.1-1.7-0.3c-0.5-0.2-0.9-0.7-1.2-1.2c-0.3-0.5-0.4-1.3-0.4-2.3v-5.3h1.2v5.3
		c0,0.8,0.1,1.3,0.3,1.8c0.2,0.4,0.4,0.7,0.8,0.9s0.7,0.2,1.1,0.2s0.8-0.1,1.1-0.2c0.3-0.2,0.6-0.5,0.8-0.9c0.2-0.4,0.3-1,0.3-1.8
		v-5.3h1.1v5.3c0,1-0.2,1.8-0.4,2.3c-0.3,0.6-0.7,1-1.2,1.2C56.6,62.4,56,62.5,55.5,62.5z"/>
	<path class="st0" d="M65.2,62.5c-0.8,0-1.5-0.2-2.1-0.6c-0.6-0.3-1.1-0.9-1.4-1.6s-0.5-1.5-0.5-2.5s0.2-1.8,0.6-2.5
		c0.3-0.7,0.8-1.2,1.4-1.6c0.6-0.4,1.3-0.5,2.1-0.5c0.6,0,1.1,0.1,1.4,0.3c0.4,0.2,0.8,0.5,1.1,0.8L67.2,55
		c-0.2-0.2-0.5-0.5-0.8-0.6c-0.3-0.2-0.7-0.2-1.1-0.2c-0.6,0-1.1,0.2-1.5,0.5c-0.4,0.3-0.8,0.7-1,1.2s-0.3,1.2-0.3,2s0.1,1.4,0.3,2
		c0.2,0.5,0.6,1,1,1.3c0.4,0.3,0.9,0.4,1.5,0.4c0.4,0,0.8-0.1,1.2-0.3c0.3-0.2,0.7-0.5,0.9-0.8l0.7,0.7c-0.3,0.4-0.8,0.8-1.2,0.9
		C66.3,62.4,65.8,62.5,65.2,62.5z"/>
	<path class="st0" d="M71.9,62.3v-8.2h-2.8v-1h6.7v1h-2.8v8.2H71.9z"/>
	<path class="st0" d="M78.1,62.3v-9.1h1.2v9.1H78.1z"/>
	<path class="st0" d="M85.6,62.5c-0.8,0-1.4-0.2-2-0.6c-0.6-0.4-1.1-0.9-1.3-1.7c-0.3-0.7-0.5-1.5-0.5-2.5c0-1,0.2-1.8,0.5-2.5
		s0.8-1.2,1.3-1.6c0.6-0.3,1.2-0.5,2-0.5s1.4,0.2,2.1,0.5c0.6,0.4,1.1,0.9,1.3,1.6c0.3,0.7,0.5,1.5,0.5,2.5s-0.2,1.8-0.5,2.5
		s-0.8,1.2-1.3,1.7C87.1,62.3,86.4,62.5,85.6,62.5z M85.6,61.5c0.6,0,1-0.2,1.4-0.4c0.4-0.3,0.7-0.8,0.9-1.3c0.2-0.5,0.3-1.2,0.3-2
		c0-1.2-0.2-2-0.8-2.7c-0.5-0.7-1.2-1-1.9-1s-1.4,0.3-1.9,1s-0.8,1.5-0.8,2.7c0,0.8,0.1,1.4,0.3,2c0.2,0.5,0.6,1,0.9,1.3
		C84.6,61.3,85.1,61.5,85.6,61.5z"/>
	<path class="st0" d="M92.1,62.3v-9.1h1.2l3.3,5.7l1,1.9h0.1c-0.1-0.5-0.1-1-0.1-1.5s-0.1-1-0.1-1.5v-4.7h1.1v9.1h-1.2l-3.3-5.8
		l-1-1.8H93c0.1,0.5,0.1,0.9,0.1,1.4c0.1,0.5,0.1,1,0.1,1.5v4.7H92.1z"/>
</g>
<g>
	<path class="st0" d="M277.8,63v-7.7h1.4l1.7,4.1c0.1,0.2,0.2,0.5,0.3,0.8c0.1,0.2,0.2,0.5,0.3,0.8h0c0.1-0.2,0.2-0.5,0.3-0.8
		c0.1-0.2,0.2-0.5,0.3-0.8l1.7-4.1h1.4V63h-1v-4.2c0-0.3,0-0.8,0-1.2c0-0.5,0-0.8,0.1-1.2h0l-0.7,1.8l-1.7,4h-0.7l-1.7-4l-0.7-1.8h0
		c0,0.3,0,0.8,0.1,1.2c0,0.5,0,0.8,0,1.2V63H277.8L277.8,63z"/>
	<path class="st0" d="M286.3,63l3-7.7h1.3l3,7.7h-1.2l-0.9-2.3h-3.2l-0.9,2.3H286.3z M289.1,58.8l-0.4,1.2h2.6l-0.4-1.2
		c-0.1-0.5-0.3-0.8-0.5-1.3c-0.1-0.5-0.3-0.9-0.5-1.3h0c-0.1,0.5-0.3,0.9-0.4,1.3C289.4,57.9,289.2,58.3,289.1,58.8z"/>
	<path class="st0" d="M294.9,63v-7.7h2.2c1.4,0,2.5,0.3,3.1,1c0.7,0.7,1.1,1.6,1.1,2.8c0,1.2-0.4,2.1-1,2.9c-0.7,0.7-1.8,1.1-3,1.1
		L294.9,63L294.9,63z M296,62.2h1c1,0,1.9-0.3,2.4-0.8c0.5-0.6,0.8-1.3,0.8-2.2c0-1-0.2-1.7-0.8-2.2c-0.5-0.5-1.3-0.8-2.4-0.8h-1
		V62.2z"/>
	<path class="st0" d="M303.2,63v-7.7h5.1v0.8h-4v2.4h3.4v0.8h-3.4v2.8h4.1v0.8L303.2,63L303.2,63z"/>
	<path class="st0" d="M313,63v-7.7h1.1V63H313z"/>
	<path class="st0" d="M316.5,63v-7.7h1.1l3.2,4.8l1,1.5h0c0-0.4,0-0.8-0.1-1.2c0-0.5,0-0.8,0-1.2v-3.8h1.1V63h-1.2l-3.2-4.8l-1-1.5
		h0c0,0.4,0,0.8,0.1,1.2s0,0.8,0,1.2v4L316.5,63L316.5,63z"/>
	<path class="st0" d="M331.4,63.2c-0.8,0-1.5-0.2-2.1-0.5c-0.6-0.3-1.1-0.8-1.5-1.3c-0.4-0.6-0.5-1.3-0.5-2.2c0-0.8,0.2-1.5,0.5-2.1
		s0.9-1,1.5-1.3s1.3-0.5,2.1-0.5c0.6,0,1.1,0.1,1.5,0.3s0.8,0.4,1,0.7l-0.6,0.7c-0.2-0.2-0.5-0.4-0.8-0.5c-0.3-0.2-0.7-0.2-1.1-0.2
		c-0.6,0-1.1,0.2-1.5,0.4c-0.5,0.2-0.8,0.6-1,1.1c-0.2,0.5-0.4,1-0.4,1.7c0,1,0.2,1.7,0.8,2.3s1.2,0.8,2.2,0.8
		c0.3,0,0.6-0.1,0.9-0.2s0.5-0.2,0.7-0.3v-2h-1.9v-0.8h2.9v3.2c-0.3,0.2-0.6,0.5-1.1,0.7C332.6,63.1,332,63.2,331.4,63.2z"/>
	<path class="st0" d="M336.3,63v-7.7h5.1v0.8h-4v2.4h3.4v0.8h-3.4v2.8h4.1v0.8L336.3,63L336.3,63z"/>
	<path class="st0" d="M343.4,63v-7.7h2.8c0.6,0,1.1,0,1.6,0.2s0.9,0.3,1.1,0.7c0.2,0.3,0.4,0.8,0.4,1.3c0,0.6-0.2,1.1-0.5,1.4
		c-0.4,0.3-0.9,0.6-1.5,0.8l2.3,3.4h-1.3l-2.1-3.2h-1.6v3.2L343.4,63L343.4,63z M344.5,59h1.5c0.7,0,1.2-0.2,1.6-0.4
		s0.5-0.7,0.5-1.2s-0.2-0.9-0.5-1.1c-0.4-0.2-0.9-0.3-1.6-0.3h-1.5V59z"/>
	<path class="st0" d="M351,63v-7.7h1.4l1.7,4.1c0.1,0.2,0.2,0.5,0.3,0.8c0.1,0.2,0.2,0.5,0.3,0.8h0c0.1-0.2,0.2-0.5,0.3-0.8
		c0.1-0.2,0.2-0.5,0.3-0.8l1.7-4.1h1.4V63h-1v-4.2c0-0.3,0-0.8,0-1.2c0-0.5,0-0.8,0.1-1.2h0l-0.6,1.7l-1.7,4h-0.8l-1.7-4l-0.7-1.8h0
		c0,0.3,0,0.8,0.1,1.2c0,0.5,0,0.8,0,1.2V63L351,63L351,63z"/>
	<path class="st0" d="M359.7,63l3-7.7h1.3l3,7.7h-1.2l-0.9-2.3h-3.1l-0.9,2.3H359.7z M362.4,58.8L362,60h2.6l-0.4-1.2
		c-0.1-0.5-0.3-0.8-0.5-1.3c-0.1-0.5-0.3-0.9-0.5-1.3h0c-0.1,0.5-0.3,0.9-0.4,1.3C362.8,57.9,362.6,58.3,362.4,58.8z"/>
	<path class="st0" d="M368.2,63v-7.7h1.1l3.2,4.8l1,1.5h0c0-0.4,0-0.8-0.1-1.2c0-0.5,0-0.8,0-1.2v-3.8h1.1V63h-1.1l-3.2-4.8l-1-1.5
		h0c0,0.4,0,0.8,0.1,1.2s0,0.8,0,1.2v4L368.2,63L368.2,63z"/>
	<path class="st0" d="M378.4,63v-3l-2.6-4.7h1.2l1.1,2.2c0.1,0.3,0.3,0.5,0.5,0.8c0.1,0.3,0.3,0.5,0.5,0.8h0
		c0.1-0.3,0.3-0.6,0.5-0.8c0.1-0.3,0.3-0.5,0.5-0.8l1.1-2.2h1.2l-2.6,4.7v3H378.4z"/>
</g>
</svg>
