<?xml version="1.0" encoding="utf-8"?>
<!-- Generator: Adobe Illustrator 24.0.0, SVG Export Plug-In . SVG Version: 6.00 Build 0)  -->
<svg version="1.1" id="Layer_1" xmlns="http://www.w3.org/2000/svg" xmlns:xlink="http://www.w3.org/1999/xlink" x="0px" y="0px"
	 viewBox="0 0 852.6 113.6" style="enable-background:new 0 0 852.6 113.6;" xml:space="preserve">
<style type="text/css">
	.st0{fill:#F9F9FA;}
</style>
<g>
	<g>
		<path class="st0" d="M806.7,32.5c0-7.8,6.3-13.4,13.7-13.4c7.3,0,13.6,5.6,13.6,13.4c0,7.8-6.3,13.5-13.6,13.5
			C813,46.1,806.7,40.3,806.7,32.5z M820.4,43.8c6.1,0,10.9-4.8,10.9-11.3c0-6.4-4.8-11.2-10.9-11.2c-6.2,0-11,4.8-11,11.2
			C809.4,39,814.2,43.8,820.4,43.8z M817.5,40.3h-2.3V24.8h5.9c3.7,0,5.5,1.4,5.5,4.4c0,2.8-1.7,4-4,4.3l4.4,6.9h-2.6l-4.1-6.7h-2.7
			L817.5,40.3L817.5,40.3z M820.4,31.6c2,0,3.8-0.1,3.8-2.5c0-2-1.7-2.3-3.4-2.3h-3.2v4.8H820.4z"/>
		<path class="st0" d="M751.5,101.2V30.6h24.8c18.2,0,29.5,10.6,29.5,33.8c0,26.6-11.8,36.8-30,36.8
			C775.8,101.2,751.5,101.2,751.5,101.2z M769,85.7h3.9c8.6,0,16.2-5.7,16.2-19c0-14.7-6.7-18.6-16.6-18.6h-3.5L769,85.7L769,85.7z"
			/>
		<path class="st0" d="M295.8,101.1L318,17.7h19.1l22.7,83.4h-16l-3.9-13.7h-24.4l-3.9,13.7H295.8z M327.6,36.1l-8.2,34.7H336
			L327.6,36.1z"/>
		<path class="st0" d="M362.4,101.1V30.5h18.5v54.1h25.4v16.5H362.4z"/>
		<path class="st0" d="M408,30.5h17.6v42.3c0,6.9,1.1,12.9,8.3,12.9c6.3,0,8.2-5.3,8.2-12.9V30.5h17.6v41.3c0,22.7-8,31.2-25.8,31.2
			C417.2,103,408,96,408,71.7V30.5z"/>
		<path class="st0" d="M500,57.4c-0.5-7.4-4-11.6-9.5-11.6c-6.2,0-9.9,7-9.9,20.6c0,9.9,1.6,19.2,10.6,19.2c5.7,0,8.4-5.2,9-11.9
			h16.9C515.5,92,505.6,103,491.4,103c-17.7,0-28.5-14.3-28.5-37.3c0-22.9,11.8-37.1,26.8-37.1c16.4,0,25.6,10.7,27,28.8L500,57.4
			L500,57.4z"/>
		<path class="st0" d="M580.5,101.1V30.5h26.1c12.7,0,22.8,3.7,22.8,17.7c0,7.3-3.8,12.6-7.4,15.4c6.1,2,9.4,8.5,9.4,16.2
			c0,15.8-9.7,21.3-24.3,21.3L580.5,101.1L580.5,101.1z M597.1,71.6v13h10c4.6,0,8-1.2,8-6.5c0-6.2-4.3-6.6-10.2-6.6L597.1,71.6
			L597.1,71.6z M597.1,46.9v11.8h9.6c3.7,0,6.3-2.1,6.3-6.2c0-5.5-3.6-5.6-7.5-5.6C605.5,46.9,597.1,46.9,597.1,46.9z"/>
		<path class="st0" d="M578.4,65.4c0,24-12.9,37.6-29.7,37.6c-17.7,0-29.6-13.8-29.6-37.8c0-22.2,12-36.6,29.6-36.6
			C568.9,28.6,578.4,46.7,578.4,65.4z M537.7,65.4c0,9,2.2,20.3,11,20.3c8,0,11.2-8.6,11.2-20.3c0-9.6-3.1-19.8-11.3-19.5
			C540.2,45.8,537.7,56.4,537.7,65.4z"/>
		<path class="st0" d="M730.9,69l-0.7-16.1V30.5h16.9v70.6h-16.5l-19.2-38.4l0.7,16.1v22.4h-16.9V30.5h16.5L730.9,69z"/>
		<path class="st0" d="M692.2,65.4c0,24-12.9,37.6-29.7,37.6c-17.7,0-29.6-13.8-29.6-37.8c0-22.2,12-36.6,29.6-36.6
			C682.7,28.6,692.2,46.7,692.2,65.4z M651.5,65.4c0,9,2.2,20.3,11,20.3c8,0,11.2-8.6,11.2-20.3c0-9.6-3.1-19.8-11.3-19.5
			C654,45.8,651.5,56.4,651.5,65.4z"/>
	</g>
</g>
<polygon class="st0" points="32.7,100.7 51.8,49 59.9,72.3 46.8,72.3 46.8,86.3 64.5,86.3 69.8,100.7 84.8,100.7 58.7,30.5 
	44.2,30.5 18.9,100.7 "/>
<path class="st0" d="M89.5,100.7V30.8h13.7l28.6,46.7V30.8h13.1v69.9h-14.2l-28.2-45.6v45.6L89.5,100.7L89.5,100.7z"/>
<path class="st0" d="M151.6,100.7V30.8h14.1v69.9H151.6z"/>
<path class="st0" d="M171.3,30.8h25.8c5.8,0,10.2,0.5,13.3,1.3c4.1,1.2,7.6,3.3,10.5,6.4c2.9,3.1,5.1,6.9,6.7,11.3
	c1.5,4.5,2.3,10,2.3,16.5c0,5.8-0.7,10.7-2.1,14.9c-1.8,5.1-4.2,9.2-7.5,12.3c-2.4,2.4-5.8,4.2-9.9,5.6c-3.1,1-7.3,1.5-12.5,1.5
	h-26.6L171.3,30.8L171.3,30.8z M185.4,42.6v46.3h10.5c3.9,0,6.8-0.2,8.5-0.7c2.3-0.6,4.2-1.5,5.7-2.9s2.7-3.6,3.7-6.8
	c0.9-3.1,1.4-7.4,1.4-12.8s-0.5-9.5-1.4-12.4s-2.3-5.2-4-6.8c-1.7-1.6-3.9-2.7-6.5-3.3c-2-0.4-5.8-0.7-11.6-0.7H185.4z"/>
<path class="st0" d="M260.4,111.8V6.4h5.4v105.3H260.4z"/>
</svg>
