<?xml version="1.0" encoding="utf-8"?>
<!-- Generator: Adobe Illustrator 24.0.0, SVG Export Plug-In . SVG Version: 6.00 Build 0)  -->
<svg version="1.1" id="Layer_1" xmlns="http://www.w3.org/2000/svg" xmlns:xlink="http://www.w3.org/1999/xlink" x="0px" y="0px"
	 viewBox="0 0 852.6 146.9" style="enable-background:new 0 0 852.6 146.9;" xml:space="preserve">
<style type="text/css">
	.st0{fill:#F9F9FA;}
	.st1{fill:#FFFFFF;}
</style>
<g>
	<g>
		<path class="st0" d="M800.5,31.5c0-7.5,6-12.9,13.2-12.9c7,0,13.1,5.4,13.1,12.9s-6,13-13.1,13C806.5,44.5,800.5,39,800.5,31.5z
			 M813.7,42.3c5.8,0,10.5-4.6,10.5-10.8s-4.6-10.8-10.5-10.8s-10.6,4.6-10.6,10.8C803.1,37.7,807.7,42.3,813.7,42.3z M810.9,39
			h-2.3V24h5.7c3.5,0,5.2,1.3,5.2,4.3c0,2.7-1.7,3.8-3.9,4.1l4.2,6.6h-2.3l-3.9-6.5H811L810.9,39L810.9,39z M813.6,30.6
			c1.9,0,3.6-0.1,3.6-2.4c0-1.9-1.7-2.2-3.3-2.2h-3.1v4.6H813.6z"/>
		<path class="st0" d="M747.4,97.5V29.6h23.8c17.5,0,28.4,10.2,28.4,32.5c0,25.6-11.4,35.4-28.8,35.4H747.4z M764.3,82.6h3.8
			c8.3,0,15.6-5.5,15.6-18.3c0-14.1-6.4-17.9-16-17.9h-3.4L764.3,82.6L764.3,82.6z"/>
		<path class="st0" d="M309.3,97.4l21.3-80.2H349l21.8,80.2h-15.4l-3.7-13.2h-23.4l-3.7,13.2H309.3z M339.9,34.8L332,68.1h16
			L339.9,34.8z"/>
		<path class="st0" d="M373.3,97.4v-68h17.8v52h24.4v15.9L373.3,97.4L373.3,97.4z"/>
		<path class="st0" d="M417.1,29.4H434v40.7c0,6.7,1,12.4,7.9,12.4c6.1,0,7.9-5.1,7.9-12.4V29.4h16.9v39.7c0,21.8-7.7,30-24.8,30
			c-16,0-24.9-6.7-24.9-30V29.4H417.1z"/>
		<path class="st0" d="M505.6,55.4c-0.5-7.1-3.9-11.1-9.2-11.1c-5.9,0-9.5,6.7-9.5,19.8c0,9.5,1.6,18.5,10.2,18.5
			c5.5,0,8-5,8.7-11.5h16.3c-1.5,17.5-11,28.1-24.7,28.1c-17.1,0-27.4-13.8-27.4-35.9c0-22,11.3-35.7,25.8-35.7
			c15.8,0,24.6,10.3,26,27.7L505.6,55.4L505.6,55.4z"/>
		<path class="st0" d="M583,97.4v-68h25.1c12.2,0,22,3.6,22,17.1c0,7-3.6,12.1-7.1,14.8c5.9,1.9,9.1,8.2,9.1,15.5
			c0,15.2-9.3,20.5-23.4,20.5L583,97.4L583,97.4z M599,69v12.5h9.6c4.4,0,7.7-1.1,7.7-6.2c0-5.9-4.1-6.3-9.8-6.3H599z M599,45.3
			v11.3h9.2c3.5,0,6.1-2,6.1-5.9c0-5.3-3.5-5.4-7.3-5.4C607,45.3,599,45.3,599,45.3z"/>
		<path class="st0" d="M581,63c0,23.1-12.4,36.1-28.5,36.1c-17,0-28.4-13.2-28.4-36.3c0-21.3,11.5-35.2,28.4-35.2
			C571.9,27.7,581,45.1,581,63z M541.9,63c0,8.7,2.1,19.5,10.6,19.5c7.7,0,10.7-8.3,10.7-19.5c0-9.2-3-19.1-10.9-18.8
			C544.3,44.2,541.9,54.4,541.9,63z"/>
		<path class="st0" d="M727.6,66.5L727,51V29.4h16.2v67.9h-15.9l-18.4-37l0.7,15.5v21.5h-16.2V29.4h15.9L727.6,66.5z"/>
		<path class="st0" d="M690.4,63c0,23.1-12.4,36.1-28.5,36.1c-17,0-28.4-13.2-28.4-36.3c0-21.3,11.5-35.2,28.4-35.2
			C681.3,27.7,690.4,45.1,690.4,63z M651.3,63c0,8.7,2.1,19.5,10.6,19.5c7.7,0,10.7-8.3,10.7-19.5c0-9.2-3-19.1-10.9-18.8
			C653.7,44.2,651.3,54.4,651.3,63z"/>
	</g>
</g>
<polygon class="st0" points="40.6,96.9 59,47.2 66.8,69.7 54.3,69.7 54.3,83.2 71.3,83.2 76.3,96.9 90.8,96.9 65.7,29.5 51.7,29.5 
	27.4,96.9 "/>
<path class="st0" d="M95.3,96.9V29.7h13.2L136,74.6V29.7h12.6v67.2H135l-27.1-43.8v43.8C107.9,96.9,95.3,96.9,95.3,96.9z"/>
<path class="st0" d="M155,96.9V29.7h13.6v67.2C168.6,96.9,155,96.9,155,96.9z"/>
<path class="st0" d="M173.9,29.7h24.8c5.6,0,9.9,0.4,12.8,1.3c3.9,1.2,7.3,3.2,10.1,6.2s5,6.6,6.4,10.9c1.5,4.3,2.2,9.6,2.2,15.9
	c0,5.5-0.7,10.3-2.1,14.3c-1.7,4.9-4.1,8.8-7.2,11.9c-2.4,2.3-5.5,4.1-9.5,5.4c-3,0.9-7,1.4-12,1.4h-25.5V29.7z M187.5,41.1v44.5
	h10.1c3.8,0,6.5-0.2,8.2-0.6c2.2-0.6,4-1.5,5.5-2.8s2.6-3.5,3.6-6.5c0.9-3,1.4-7.1,1.4-12.3s-0.5-9.2-1.4-12s-2.2-5-3.9-6.5
	c-1.7-1.6-3.7-2.6-6.3-3.2c-1.9-0.4-5.6-0.6-11.1-0.6H187.5z"/>
<path class="st1" d="M270.5,138.4V6.3h2.5v132L270.5,138.4L270.5,138.4z"/>
<g>
	<path class="st0" d="M35.4,131.3c-1.5,0-2.9-0.4-4.1-1.1c-1.2-0.7-2.1-1.8-2.8-3.2c-0.7-1.4-1-3.1-1-5.1s0.4-3.6,1.1-5.1
		c0.7-1.4,1.7-2.5,2.9-3.2c1.2-0.8,2.6-1.1,4.1-1.1c1.1,0,2.1,0.2,2.9,0.7c0.9,0.5,1.5,1,2.1,1.6l-1.2,1.5c-0.5-0.5-1-0.9-1.6-1.2
		c-0.6-0.3-1.3-0.5-2.1-0.5c-1.1,0-2.2,0.3-3,0.9s-1.5,1.4-2,2.5s-0.7,2.4-0.7,3.9s0.2,2.8,0.7,4c0.5,1.1,1.1,2,2,2.6
		c0.8,0.6,1.8,0.9,3,0.9c0.9,0,1.6-0.2,2.3-0.6c0.7-0.4,1.3-0.9,1.9-1.5l1.3,1.4c-0.7,0.8-1.5,1.5-2.4,1.9
		C37.6,131.1,36.5,131.3,35.4,131.3z"/>
	<path class="st0" d="M51.4,131.3c-1.5,0-2.9-0.4-4-1.2c-1.2-0.8-2.1-1.9-2.7-3.3c-0.7-1.4-1-3.1-1-5.1c0-1.9,0.3-3.6,1-5
		s1.6-2.5,2.7-3.2c1.2-0.7,2.5-1.1,4-1.1s2.9,0.4,4.1,1.1c1.2,0.8,2.1,1.8,2.7,3.2c0.7,1.4,1,3.1,1,5s-0.3,3.6-1,5.1
		c-0.7,1.5-1.6,2.5-2.7,3.3C54.3,130.9,52.9,131.3,51.4,131.3z M51.4,129.3c1.1,0,2-0.3,2.8-0.9c0.8-0.6,1.4-1.5,1.9-2.6
		c0.4-1.1,0.7-2.4,0.7-4c0-2.3-0.5-4-1.5-5.4c-1-1.3-2.3-2-3.9-2s-2.9,0.7-3.9,2s-1.5,3.1-1.5,5.4c0,1.5,0.2,2.8,0.7,4
		c0.4,1.1,1.1,2,1.9,2.6C49.4,129,50.3,129.3,51.4,129.3z"/>
	<path class="st0" d="M64.3,131v-18.2h2.4l6.6,11.4l2,3.8h0.1c-0.1-0.9-0.1-1.9-0.2-2.9s-0.1-2-0.1-2.9v-9.4h2.2V131h-2.4l-6.6-11.5
		l-2-3.7h-0.1c0.1,0.9,0.1,1.8,0.2,2.8c0.1,1,0.1,1.9,0.1,2.9v9.5H64.3z"/>
	<path class="st0" d="M88.4,131.3c-1.3,0-2.5-0.2-3.6-0.7s-2-1.1-2.8-2l1.5-1.6c0.6,0.7,1.4,1.2,2.3,1.7c0.9,0.4,1.8,0.6,2.7,0.6
		c1.2,0,2.1-0.3,2.8-0.8c0.7-0.5,1-1.3,1-2.2c0-0.6-0.1-1.1-0.4-1.5s-0.6-0.7-1.1-0.9c-0.5-0.3-1-0.5-1.5-0.8l-2.6-1.1
		c-0.6-0.2-1.1-0.6-1.7-0.9c-0.6-0.4-1-0.9-1.4-1.5s-0.6-1.4-0.6-2.2c0-0.9,0.2-1.8,0.7-2.5s1.2-1.3,2-1.7c0.9-0.4,1.9-0.6,2.9-0.6
		s2.1,0.2,3,0.6s1.7,1,2.4,1.6l-1.2,1.5c-0.6-0.5-1.2-1-1.8-1.3c-0.7-0.3-1.4-0.5-2.3-0.5c-1,0-1.8,0.2-2.5,0.7
		c-0.6,0.5-0.9,1.1-0.9,1.9c0,0.6,0.2,1.1,0.5,1.4c0.3,0.4,0.7,0.7,1.2,0.9c0.5,0.2,0.9,0.5,1.4,0.7l2.6,1.1
		c0.7,0.3,1.3,0.7,1.9,1.1s1,0.9,1.3,1.5s0.5,1.4,0.5,2.3c0,1-0.2,1.8-0.7,2.6s-1.2,1.4-2.1,1.9C90.8,131.1,89.7,131.3,88.4,131.3z"
		/>
	<path class="st0" d="M102.6,131v-16.3h-5.5v-1.9h13.3v1.9h-5.5V131H102.6z"/>
	<path class="st0" d="M114.9,131v-18.2h5.7c1.2,0,2.3,0.2,3.3,0.5s1.7,0.9,2.3,1.6s0.8,1.8,0.8,3c0,1.4-0.4,2.5-1.1,3.4
		s-1.7,1.4-3,1.8l4.6,7.9h-2.6l-4.4-7.7h-3.3v7.7H114.9z M117.2,121.4h3.1c1.4,0,2.5-0.3,3.3-0.9s1.1-1.5,1.1-2.7s-0.4-2-1.1-2.5
		c-0.8-0.5-1.9-0.7-3.3-0.7h-3.1V121.4z"/>
	<path class="st0" d="M138.3,131.3c-1.2,0-2.4-0.2-3.3-0.7c-1-0.5-1.8-1.3-2.3-2.5c-0.6-1.1-0.9-2.7-0.9-4.6v-10.7h2.3v10.7
		c0,1.5,0.2,2.6,0.6,3.5c0.4,0.8,0.9,1.4,1.5,1.8c0.6,0.4,1.4,0.5,2.2,0.5s1.5-0.2,2.2-0.5c0.6-0.4,1.2-0.9,1.5-1.8
		c0.4-0.8,0.6-2,0.6-3.5v-10.7h2.2v10.7c0,1.9-0.3,3.5-0.9,4.6c-0.6,1.1-1.4,2-2.3,2.5C140.6,131.1,139.5,131.3,138.3,131.3z"/>
	<path class="st0" d="M157.8,131.3c-1.5,0-2.9-0.4-4.1-1.1c-1.2-0.7-2.1-1.8-2.8-3.2s-1-3.1-1-5.1s0.4-3.6,1.1-5.1
		c0.7-1.4,1.7-2.5,2.9-3.2c1.2-0.8,2.6-1.1,4.1-1.1c1.1,0,2.1,0.2,2.9,0.7c0.9,0.5,1.5,1,2.1,1.6l-1.2,1.5c-0.5-0.5-1-0.9-1.6-1.2
		c-0.6-0.3-1.3-0.5-2.1-0.5c-1.1,0-2.2,0.3-3,0.9s-1.5,1.4-2,2.5s-0.7,2.4-0.7,3.9s0.2,2.8,0.7,4c0.5,1.1,1.1,2,2,2.6
		c0.8,0.6,1.8,0.9,3,0.9c0.9,0,1.6-0.2,2.3-0.6c0.7-0.4,1.3-0.9,1.9-1.5l1.3,1.4c-0.7,0.8-1.5,1.5-2.4,1.9
		C160,131.1,159,131.3,157.8,131.3z"/>
	<path class="st0" d="M171.2,131v-16.3h-5.5v-1.9H179v1.9h-5.5V131H171.2z"/>
	<path class="st0" d="M183.5,131v-18.2h2.3V131H183.5z"/>
	<path class="st0" d="M198.6,131.3c-1.5,0-2.9-0.4-4-1.2c-1.2-0.8-2.1-1.9-2.7-3.3c-0.7-1.4-1-3.1-1-5.1c0-1.9,0.3-3.6,1-5
		s1.6-2.5,2.7-3.2c1.2-0.7,2.5-1.1,4-1.1s2.9,0.4,4.1,1.1c1.2,0.8,2.1,1.8,2.7,3.2c0.7,1.4,1,3.1,1,5s-0.3,3.6-1,5.1
		c-0.7,1.5-1.6,2.5-2.7,3.3C201.5,130.9,200.2,131.3,198.6,131.3z M198.6,129.3c1.1,0,2-0.3,2.8-0.9c0.8-0.6,1.4-1.5,1.9-2.6
		c0.4-1.1,0.7-2.4,0.7-4c0-2.3-0.5-4-1.5-5.4c-1-1.3-2.3-2-3.9-2s-2.9,0.7-3.9,2s-1.5,3.1-1.5,5.4c0,1.5,0.2,2.8,0.7,4
		c0.4,1.1,1.1,2,1.9,2.6C196.6,129,197.6,129.3,198.6,129.3z"/>
	<path class="st0" d="M211.5,131v-18.2h2.4l6.6,11.4l2,3.8h0.1c-0.1-0.9-0.1-1.9-0.2-2.9s-0.1-2-0.1-2.9v-9.4h2.2V131h-2.4
		l-6.6-11.5l-2-3.7h-0.1c0.1,0.9,0.1,1.8,0.2,2.8c0.1,1,0.1,1.9,0.1,2.9v9.5H211.5z"/>
</g>
<g>
	<path class="st0" d="M582.9,132.4V117h2.7l3.4,8.2c0.2,0.5,0.4,1.1,0.6,1.6c0.2,0.5,0.4,1.1,0.6,1.6h0.1c0.2-0.5,0.4-1.1,0.6-1.6
		c0.2-0.5,0.4-1.1,0.6-1.6l3.4-8.2h2.8v15.4h-2.1V124c0-0.7,0-1.5,0.1-2.3c0.1-0.9,0.1-1.6,0.2-2.3h-0.1l-1.4,3.5l-3.4,8h-1.4
		l-3.4-8l-1.4-3.5h-0.1c0.1,0.7,0.1,1.5,0.2,2.3c0.1,0.9,0.1,1.6,0.1,2.3v8.4L582.9,132.4L582.9,132.4z"/>
	<path class="st0" d="M600.1,132.4l6-15.4h2.6l6,15.4h-2.5l-1.7-4.7h-6.4l-1.7,4.7H600.1z M605.6,123.8l-0.8,2.4h5.3l-0.8-2.4
		c-0.3-0.9-0.6-1.7-0.9-2.6c-0.3-0.9-0.6-1.8-0.9-2.7h-0.1c-0.3,0.9-0.6,1.8-0.8,2.7C606.2,122.1,605.9,123,605.6,123.8z"/>
	<path class="st0" d="M617.2,132.4V117h4.5c2.8,0,4.9,0.7,6.2,2c1.4,1.3,2.2,3.2,2.2,5.6c0,2.5-0.7,4.3-2.1,5.7
		c-1.4,1.4-3.5,2.1-6.1,2.1L617.2,132.4L617.2,132.4z M619.4,130.8h2c2.1,0,3.7-0.6,4.7-1.7c1-1.1,1.6-2.6,1.6-4.5
		c0-2-0.5-3.4-1.6-4.4c-1-1.1-2.6-1.6-4.7-1.6h-2V130.8z"/>
	<path class="st0" d="M633.8,132.4V117H644v1.7h-7.9v4.8h6.7v1.7h-6.7v5.6h8.2v1.7H633.8z"/>
	<path class="st0" d="M653.4,132.4V117h2.3v15.4H653.4z"/>
	<path class="st0" d="M660.5,132.4V117h2.3l6.4,9.6l1.9,3.1h0.1c-0.1-0.8-0.1-1.6-0.2-2.5c-0.1-0.9-0.1-1.7-0.1-2.5V117h2.2v15.4
		h-2.4l-6.4-9.7l-1.9-3.1h-0.1c0.1,0.8,0.1,1.6,0.2,2.4s0.1,1.7,0.1,2.5v8H660.5z"/>
	<path class="st0" d="M690.3,132.7c-1.6,0-3-0.3-4.2-1c-1.2-0.6-2.2-1.6-2.9-2.7c-0.7-1.2-1-2.7-1-4.3c0-1.7,0.4-3,1.1-4.2
		s1.7-2.1,2.9-2.7s2.6-1,4.2-1c1.2,0,2.3,0.2,3.1,0.6c0.8,0.4,1.5,0.8,2,1.3l-1.3,1.3c-0.5-0.4-1-0.8-1.6-1.1
		c-0.6-0.3-1.4-0.4-2.3-0.4c-1.2,0-2.2,0.3-3.1,0.8c-0.9,0.5-1.6,1.2-2.1,2.2c-0.5,0.9-0.7,2.1-0.7,3.3c0,2,0.5,3.4,1.5,4.6
		s2.5,1.7,4.4,1.7c0.6,0,1.2-0.1,1.8-0.3c0.6-0.2,1-0.4,1.4-0.7v-4h-3.8v-1.6h5.8v6.5c-0.6,0.5-1.3,1-2.3,1.3
		C692.6,132.5,691.5,132.7,690.3,132.7z"/>
	<path class="st0" d="M700,132.4V117h10.2v1.7h-7.9v4.8h6.7v1.7h-6.7v5.6h8.2v1.7H700z"/>
	<path class="st0" d="M714.2,132.4V117h5.5c1.2,0,2.3,0.1,3.2,0.4c0.9,0.3,1.7,0.7,2.2,1.4c0.5,0.6,0.8,1.5,0.8,2.6
		c0,1.2-0.4,2.2-1.1,2.8c-0.7,0.7-1.7,1.2-2.9,1.5l4.6,6.7h-2.6l-4.3-6.5h-3.2v6.5L714.2,132.4L714.2,132.4z M716.5,124.4h3
		c1.4,0,2.5-0.3,3.2-0.8c0.7-0.5,1.1-1.3,1.1-2.3c0-1-0.4-1.8-1.1-2.2c-0.7-0.4-1.8-0.6-3.2-0.6h-3V124.4z"/>
	<path class="st0" d="M729.5,132.4V117h2.7l3.4,8.2c0.2,0.5,0.4,1.1,0.6,1.6c0.2,0.5,0.4,1.1,0.6,1.6h0.1c0.2-0.5,0.4-1.1,0.6-1.6
		c0.2-0.5,0.4-1.1,0.6-1.6l3.4-8.2h2.8v15.4h-2.1V124c0-0.7,0-1.5,0.1-2.3c0.1-0.9,0.1-1.6,0.2-2.3h-0.1l-1.3,3.4l-3.4,8h-1.5
		l-3.4-8l-1.4-3.5h-0.1c0.1,0.7,0.1,1.5,0.2,2.3c0.1,0.9,0.1,1.6,0.1,2.3v8.4L729.5,132.4L729.5,132.4z"/>
	<path class="st0" d="M746.8,132.4l6-15.4h2.6l6,15.4h-2.4l-1.7-4.7H751l-1.7,4.7H746.8z M752.2,123.8l-0.8,2.4h5.3l-0.8-2.4
		c-0.3-0.9-0.6-1.7-0.9-2.6c-0.3-0.9-0.6-1.8-0.9-2.7h-0.1c-0.3,0.9-0.6,1.8-0.8,2.7C752.9,122.1,752.6,123,752.2,123.8z"/>
	<path class="st0" d="M763.9,132.4V117h2.3l6.4,9.6l1.9,3.1h0.1c-0.1-0.8-0.1-1.6-0.2-2.5c-0.1-0.9-0.1-1.7-0.1-2.5V117h2.2v15.4
		h-2.3l-6.4-9.7l-1.9-3.1h-0.1c0.1,0.8,0.1,1.6,0.2,2.4s0.1,1.7,0.1,2.5v8H763.9z"/>
	<path class="st0" d="M784.2,132.4v-6l-5.3-9.4h2.4l2.3,4.3c0.3,0.6,0.6,1.1,0.9,1.7c0.3,0.6,0.6,1.1,0.9,1.7h0.1
		c0.3-0.6,0.6-1.2,0.9-1.7c0.3-0.6,0.6-1.1,0.9-1.7l2.3-4.3h2.4l-5.3,9.4v6H784.2z"/>
</g>
</svg>
