<?xml version="1.0" encoding="utf-8"?>
<!-- Generator: Adobe Illustrator 24.0.0, SVG Export Plug-In . SVG Version: 6.00 Build 0)  -->
<svg version="1.1" id="Layer_1" xmlns="http://www.w3.org/2000/svg" xmlns:xlink="http://www.w3.org/1999/xlink" x="0px" y="0px"
	 viewBox="0 0 799.4 132.1" style="enable-background:new 0 0 799.4 132.1;" xml:space="preserve">
<style type="text/css">
	.st0{fill:#F9F9FA;}
	.st1{fill:#FFFFFF;}
</style>
<g>
	<g>
		<path class="st0" d="M773.1,37.1c0-7.5,6-12.9,13.2-12.9c7,0,13.1,5.4,13.1,12.9s-6,13-13.1,13C779.1,50.1,773.1,44.6,773.1,37.1z
			 M786.3,47.9c5.8,0,10.5-4.6,10.5-10.8s-4.6-10.8-10.5-10.8s-10.6,4.6-10.6,10.8C775.7,43.3,780.3,47.9,786.3,47.9z M783.5,44.6
			h-2.3v-15h5.7c3.5,0,5.2,1.3,5.2,4.3c0,2.7-1.7,3.8-3.9,4.1l4.2,6.6h-2.3l-3.9-6.5h-2.6L783.5,44.6L783.5,44.6z M786.2,36.2
			c1.9,0,3.6-0.1,3.6-2.4c0-1.9-1.7-2.2-3.3-2.2h-3.1v4.6H786.2z"/>
		<path class="st0" d="M720,103.1V35.2h23.8c17.5,0,28.4,10.2,28.4,32.5c0,25.6-11.4,35.4-28.8,35.4H720z M736.9,88.2h3.8
			c8.3,0,15.6-5.5,15.6-18.3c0-14.1-6.4-17.9-16-17.9h-3.4L736.9,88.2L736.9,88.2z"/>
		<path class="st0" d="M281.9,103l21.3-80.2h18.4l21.8,80.2H328l-3.7-13.2h-23.4l-3.7,13.2H281.9z M312.5,40.4l-7.9,33.3h16
			L312.5,40.4z"/>
		<path class="st0" d="M345.9,103V35h17.8v52h24.4v15.9L345.9,103L345.9,103z"/>
		<path class="st0" d="M389.7,35h16.9v40.7c0,6.7,1,12.4,7.9,12.4c6.1,0,7.9-5.1,7.9-12.4V35h16.9v39.7c0,21.8-7.7,30-24.8,30
			c-16,0-24.9-6.7-24.9-30V35H389.7z"/>
		<path class="st0" d="M478.2,61c-0.5-7.1-3.9-11.1-9.2-11.1c-5.9,0-9.5,6.7-9.5,19.8c0,9.5,1.6,18.5,10.2,18.5c5.5,0,8-5,8.7-11.5
			h16.3c-1.5,17.5-11,28.1-24.7,28.1c-17.1,0-27.4-13.8-27.4-35.9c0-22,11.3-35.7,25.8-35.7c15.8,0,24.6,10.3,26,27.7L478.2,61
			L478.2,61z"/>
		<path class="st0" d="M555.6,103V35h25.1c12.2,0,22,3.6,22,17.1c0,7-3.6,12.1-7.1,14.8c5.9,1.9,9.1,8.2,9.1,15.5
			c0,15.2-9.3,20.5-23.4,20.5L555.6,103L555.6,103z M571.6,74.6v12.5h9.6c4.4,0,7.7-1.1,7.7-6.2c0-5.9-4.1-6.3-9.8-6.3H571.6z
			 M571.6,50.9v11.3h9.2c3.5,0,6.1-2,6.1-5.9c0-5.3-3.5-5.4-7.3-5.4C579.6,50.9,571.6,50.9,571.6,50.9z"/>
		<path class="st0" d="M553.6,68.6c0,23.1-12.4,36.1-28.5,36.1c-17,0-28.4-13.2-28.4-36.3c0-21.3,11.5-35.2,28.4-35.2
			C544.5,33.3,553.6,50.7,553.6,68.6z M514.5,68.6c0,8.7,2.1,19.5,10.6,19.5c7.7,0,10.7-8.3,10.7-19.5c0-9.2-3-19.1-10.9-18.8
			C516.9,49.8,514.5,60,514.5,68.6z"/>
		<path class="st0" d="M700.2,72.1l-0.6-15.5V35h16.2v67.9h-15.9l-18.4-37l0.7,15.5v21.5H666V35h15.9L700.2,72.1z"/>
		<path class="st0" d="M663,68.6c0,23.1-12.4,36.1-28.5,36.1c-17,0-28.4-13.2-28.4-36.3c0-21.3,11.5-35.2,28.4-35.2
			C653.9,33.3,663,50.7,663,68.6z M623.9,68.6c0,8.7,2.1,19.5,10.6,19.5c7.7,0,10.7-8.3,10.7-19.5c0-9.2-3-19.1-10.9-18.8
			C626.3,49.8,623.9,60,623.9,68.6z"/>
	</g>
</g>
<polygon class="st0" points="13.2,99.1 31.6,49.4 39.4,71.9 26.9,71.9 26.9,85.4 43.9,85.4 48.9,99.1 63.4,99.1 38.3,31.7 
	24.3,31.7 0,99.1 "/>
<path class="st0" d="M67.9,99.1V31.9h13.2l27.5,44.9V31.9h12.6v67.2h-13.6L80.5,55.3v43.8C80.5,99.1,67.9,99.1,67.9,99.1z"/>
<path class="st0" d="M127.6,99.1V31.9h13.6v67.2C141.2,99.1,127.6,99.1,127.6,99.1z"/>
<path class="st0" d="M146.5,31.9h24.8c5.6,0,9.9,0.4,12.8,1.3c3.9,1.2,7.3,3.2,10.1,6.2s5,6.6,6.4,10.9c1.5,4.3,2.2,9.6,2.2,15.9
	c0,5.5-0.7,10.3-2.1,14.3c-1.7,4.9-4.1,8.8-7.2,11.9c-2.4,2.3-5.5,4.1-9.5,5.4c-3,0.9-7,1.4-12,1.4h-25.5V31.9z M160.1,43.3v44.5
	h10.1c3.8,0,6.5-0.2,8.2-0.6c2.2-0.6,4-1.5,5.5-2.8s2.6-3.5,3.6-6.5c0.9-3,1.4-7.1,1.4-12.3s-0.5-9.2-1.4-12s-2.2-5-3.9-6.5
	c-1.7-1.6-3.7-2.6-6.3-3.2c-1.9-0.4-5.6-0.6-11.1-0.6H160.1z"/>
<path class="st1" d="M243.1,132.1V0h2.5v132L243.1,132.1L243.1,132.1z"/>
</svg>
