<?xml version="1.0" encoding="utf-8"?>
<!-- Generator: Adobe Illustrator 24.0.0, SVG Export Plug-In . SVG Version: 6.00 Build 0)  -->
<svg version="1.0" id="Layer_1" xmlns="http://www.w3.org/2000/svg" xmlns:xlink="http://www.w3.org/1999/xlink" x="0px" y="0px"
	 viewBox="0 0 852.6 146.9" style="enable-background:new 0 0 852.6 146.9;" xml:space="preserve">
<style type="text/css">
	.st0{fill:#F9F9FA;}
</style>
<g>
	<g>
		<path class="st0" d="M809,31.5c0-7.5,6-12.9,13.2-12.9c7,0,13.1,5.4,13.1,12.9c0,7.5-6,13-13.1,13C815,44.5,809,39,809,31.5z
			 M822.2,42.3c5.8,0,10.5-4.6,10.5-10.8c0-6.2-4.6-10.8-10.5-10.8c-5.9,0-10.6,4.6-10.6,10.8C811.6,37.7,816.2,42.3,822.2,42.3z
			 M819.4,39h-2.3V24h5.7c3.5,0,5.2,1.3,5.2,4.3c0,2.7-1.7,3.8-3.9,4.1l4.2,6.6H826l-3.9-6.5h-2.6V39z M822.1,30.6
			c1.9,0,3.6-0.1,3.6-2.4c0-1.9-1.7-2.2-3.3-2.2h-3.1v4.6H822.1z"/>
		<path class="st0" d="M755.9,97.5V29.6h23.8c17.5,0,28.4,10.2,28.4,32.5c0,25.6-11.4,35.4-28.8,35.4H755.9z M772.8,82.6h3.8
			c8.3,0,15.6-5.5,15.6-18.3c0-14.1-6.4-17.9-16-17.9h-3.4V82.6z"/>
		<path class="st0" d="M317.8,97.4l21.3-80.2h18.4l21.8,80.2h-15.4l-3.7-13.2h-23.4l-3.7,13.2H317.8z M348.4,34.8l-7.9,33.3h16
			L348.4,34.8z"/>
		<path class="st0" d="M381.8,97.4V29.4h17.8v52h24.4v15.9H381.8z"/>
		<path class="st0" d="M425.6,29.4h16.9v40.7c0,6.7,1,12.4,7.9,12.4c6.1,0,7.9-5.1,7.9-12.4V29.4h16.9v39.7c0,21.8-7.7,30-24.8,30
			c-16,0-24.9-6.7-24.9-30V29.4z"/>
		<path class="st0" d="M514.1,55.4c-0.5-7.1-3.9-11.1-9.2-11.1c-5.9,0-9.5,6.7-9.5,19.8c0,9.5,1.6,18.5,10.2,18.5
			c5.5,0,8-5,8.7-11.5h16.3c-1.5,17.5-11,28.1-24.7,28.1c-17.1,0-27.4-13.8-27.4-35.9c0-22,11.3-35.7,25.8-35.7
			c15.8,0,24.6,10.3,26,27.7H514.1z"/>
		<path class="st0" d="M591.5,97.4V29.4h25.1c12.2,0,22,3.6,22,17.1c0,7-3.6,12.1-7.1,14.8c5.9,1.9,9.1,8.2,9.1,15.5
			c0,15.2-9.3,20.5-23.4,20.5H591.5z M607.5,69v12.5h9.6c4.4,0,7.7-1.1,7.7-6.2c0-5.9-4.1-6.3-9.8-6.3H607.5z M607.5,45.3v11.3h9.2
			c3.5,0,6.1-2,6.1-5.9c0-5.3-3.5-5.4-7.3-5.4H607.5z"/>
		<path class="st0" d="M589.5,63c0,23.1-12.4,36.1-28.5,36.1c-17,0-28.4-13.2-28.4-36.3c0-21.3,11.5-35.2,28.4-35.2
			C580.4,27.7,589.5,45.1,589.5,63z M550.4,63c0,8.7,2.1,19.5,10.6,19.5c7.7,0,10.7-8.3,10.7-19.5c0-9.2-3-19.1-10.9-18.8
			C552.8,44.2,550.4,54.4,550.4,63z"/>
		<path class="st0" d="M736.1,66.5L735.5,51V29.4h16.2v67.9h-15.9l-18.4-37l0.7,15.5v21.5h-16.2V29.4h15.9L736.1,66.5z"/>
		<path class="st0" d="M698.9,63c0,23.1-12.4,36.1-28.5,36.1c-17,0-28.4-13.2-28.4-36.3c0-21.3,11.5-35.2,28.4-35.2
			C689.8,27.7,698.9,45.1,698.9,63z M659.8,63c0,8.7,2.1,19.5,10.6,19.5c7.7,0,10.7-8.3,10.7-19.5c0-9.2-3-19.1-10.9-18.8
			C662.2,44.2,659.8,54.4,659.8,63z"/>
	</g>
</g>
<polygon class="st0" points="32.1,96.9 50.5,47.2 58.3,69.7 45.8,69.7 45.8,83.2 62.8,83.2 67.8,96.9 82.3,96.9 57.2,29.5 
	43.2,29.5 18.9,96.9 "/>
<path class="st0" d="M86.8,96.9V29.7H100l27.5,44.9V29.7h12.6v67.2h-13.6L99.4,53.1v43.8H86.8z"/>
<path class="st0" d="M146.5,96.9V29.7h13.6v67.2H146.5z"/>
<path class="st0" d="M165.4,29.7h24.8c5.6,0,9.9,0.4,12.8,1.3c3.9,1.2,7.3,3.2,10.1,6.2c2.8,3,5,6.6,6.4,10.9
	c1.5,4.3,2.2,9.6,2.2,15.9c0,5.5-0.7,10.3-2.1,14.3c-1.7,4.9-4.1,8.8-7.2,11.9c-2.4,2.3-5.5,4.1-9.5,5.4c-3,0.9-7,1.4-12,1.4h-25.5
	V29.7z M179,41.1v44.5h10.1c3.8,0,6.5-0.2,8.2-0.6c2.2-0.6,4-1.5,5.5-2.8c1.5-1.3,2.6-3.5,3.6-6.5c0.9-3,1.4-7.1,1.4-12.3
	s-0.5-9.2-1.4-12c-0.9-2.8-2.2-5-3.9-6.5c-1.7-1.6-3.7-2.6-6.3-3.2c-1.9-0.4-5.6-0.6-11.1-0.6H179z"/>
<path class="st0" d="M268.5,138.4V6.3h6.8v132H268.5z"/>
<g>
	<path class="st0" d="M26.9,131.3c-1.5,0-2.9-0.4-4.1-1.1c-1.2-0.7-2.1-1.8-2.8-3.2c-0.7-1.4-1-3.1-1-5.1c0-2,0.4-3.6,1.1-5.1
		c0.7-1.4,1.7-2.5,2.9-3.2c1.2-0.8,2.6-1.1,4.1-1.1c1.1,0,2.1,0.2,2.9,0.7c0.9,0.5,1.5,1,2.1,1.6l-1.2,1.5c-0.5-0.5-1-0.9-1.6-1.2
		c-0.6-0.3-1.3-0.5-2.1-0.5c-1.1,0-2.2,0.3-3,0.9s-1.5,1.4-2,2.5s-0.7,2.4-0.7,3.9s0.2,2.8,0.7,4c0.5,1.1,1.1,2,2,2.6
		c0.8,0.6,1.8,0.9,3,0.9c0.9,0,1.6-0.2,2.3-0.6c0.7-0.4,1.3-0.9,1.9-1.5l1.3,1.4c-0.7,0.8-1.5,1.5-2.4,1.9
		C29.1,131.1,28,131.3,26.9,131.3z"/>
	<path class="st0" d="M42.9,131.3c-1.5,0-2.9-0.4-4-1.2c-1.2-0.8-2.1-1.9-2.7-3.3c-0.7-1.4-1-3.1-1-5.1c0-1.9,0.3-3.6,1-5
		c0.7-1.4,1.6-2.5,2.7-3.2c1.2-0.7,2.5-1.1,4-1.1c1.5,0,2.9,0.4,4.1,1.1c1.2,0.8,2.1,1.8,2.7,3.2c0.7,1.4,1,3.1,1,5
		c0,1.9-0.3,3.6-1,5.1s-1.6,2.5-2.7,3.3C45.8,130.9,44.4,131.3,42.9,131.3z M42.9,129.3c1.1,0,2-0.3,2.8-0.9
		c0.8-0.6,1.4-1.5,1.9-2.6c0.4-1.1,0.7-2.4,0.7-4c0-2.3-0.5-4-1.5-5.4c-1-1.3-2.3-2-3.9-2s-2.9,0.7-3.9,2c-1,1.3-1.5,3.1-1.5,5.4
		c0,1.5,0.2,2.8,0.7,4c0.4,1.1,1.1,2,1.9,2.6C40.9,129,41.8,129.3,42.9,129.3z"/>
	<path class="st0" d="M55.8,131v-18.2h2.4l6.6,11.4l2,3.8h0.1c-0.1-0.9-0.1-1.9-0.2-2.9s-0.1-2-0.1-2.9v-9.4h2.2V131h-2.4l-6.6-11.5
		l-2-3.7h-0.1c0.1,0.9,0.1,1.8,0.2,2.8c0.1,1,0.1,1.9,0.1,2.9v9.5H55.8z"/>
	<path class="st0" d="M79.9,131.3c-1.3,0-2.5-0.2-3.6-0.7c-1.1-0.5-2-1.1-2.8-2L75,127c0.6,0.7,1.4,1.2,2.3,1.7
		c0.9,0.4,1.8,0.6,2.7,0.6c1.2,0,2.1-0.3,2.8-0.8c0.7-0.5,1-1.3,1-2.2c0-0.6-0.1-1.1-0.4-1.5c-0.3-0.4-0.6-0.7-1.1-0.9
		c-0.5-0.3-1-0.5-1.5-0.8l-2.6-1.1c-0.6-0.2-1.1-0.6-1.7-0.9c-0.6-0.4-1-0.9-1.4-1.5c-0.4-0.6-0.6-1.4-0.6-2.2
		c0-0.9,0.2-1.8,0.7-2.5c0.5-0.7,1.2-1.3,2-1.7c0.9-0.4,1.9-0.6,2.9-0.6s2.1,0.2,3,0.6c0.9,0.4,1.7,1,2.4,1.6l-1.2,1.5
		c-0.6-0.5-1.2-1-1.8-1.3c-0.7-0.3-1.4-0.5-2.3-0.5c-1,0-1.8,0.2-2.5,0.7c-0.6,0.5-0.9,1.1-0.9,1.9c0,0.6,0.2,1.1,0.5,1.4
		c0.3,0.4,0.7,0.7,1.2,0.9c0.5,0.2,0.9,0.5,1.4,0.7l2.6,1.1c0.7,0.3,1.3,0.7,1.9,1.1c0.6,0.4,1,0.9,1.3,1.5s0.5,1.4,0.5,2.3
		c0,1-0.2,1.8-0.7,2.6c-0.5,0.8-1.2,1.4-2.1,1.9C82.3,131.1,81.2,131.3,79.9,131.3z"/>
	<path class="st0" d="M94.1,131v-16.3h-5.5v-1.9h13.3v1.9h-5.5V131H94.1z"/>
	<path class="st0" d="M106.4,131v-18.2h5.7c1.2,0,2.3,0.2,3.3,0.5c1,0.3,1.7,0.9,2.3,1.6s0.8,1.8,0.8,3c0,1.4-0.4,2.5-1.1,3.4
		c-0.7,0.9-1.7,1.4-3,1.8l4.6,7.9h-2.6l-4.4-7.7h-3.3v7.7H106.4z M108.7,121.4h3.1c1.4,0,2.5-0.3,3.3-0.9s1.1-1.5,1.1-2.7
		c0-1.2-0.4-2-1.1-2.5c-0.8-0.5-1.9-0.7-3.3-0.7h-3.1V121.4z"/>
	<path class="st0" d="M129.8,131.3c-1.2,0-2.4-0.2-3.3-0.7c-1-0.5-1.8-1.3-2.3-2.5c-0.6-1.1-0.9-2.7-0.9-4.6v-10.7h2.3v10.7
		c0,1.5,0.2,2.6,0.6,3.5c0.4,0.8,0.9,1.4,1.5,1.8c0.6,0.4,1.4,0.5,2.2,0.5c0.8,0,1.5-0.2,2.2-0.5c0.6-0.4,1.2-0.9,1.5-1.8
		c0.4-0.8,0.6-2,0.6-3.5v-10.7h2.2v10.7c0,1.9-0.3,3.5-0.9,4.6c-0.6,1.1-1.4,2-2.3,2.5C132.1,131.1,131,131.3,129.8,131.3z"/>
	<path class="st0" d="M149.3,131.3c-1.5,0-2.9-0.4-4.1-1.1c-1.2-0.7-2.1-1.8-2.8-3.2c-0.7-1.4-1-3.1-1-5.1c0-2,0.4-3.6,1.1-5.1
		c0.7-1.4,1.7-2.5,2.9-3.2c1.2-0.8,2.6-1.1,4.1-1.1c1.1,0,2.1,0.2,2.9,0.7c0.9,0.5,1.5,1,2.1,1.6l-1.2,1.5c-0.5-0.5-1-0.9-1.6-1.2
		c-0.6-0.3-1.3-0.5-2.1-0.5c-1.1,0-2.2,0.3-3,0.9s-1.5,1.4-2,2.5s-0.7,2.4-0.7,3.9s0.2,2.8,0.7,4c0.5,1.1,1.1,2,2,2.6
		c0.8,0.6,1.8,0.9,3,0.9c0.9,0,1.6-0.2,2.3-0.6c0.7-0.4,1.3-0.9,1.9-1.5l1.3,1.4c-0.7,0.8-1.5,1.5-2.4,1.9
		C151.5,131.1,150.5,131.3,149.3,131.3z"/>
	<path class="st0" d="M162.7,131v-16.3h-5.5v-1.9h13.3v1.9H165V131H162.7z"/>
	<path class="st0" d="M175,131v-18.2h2.3V131H175z"/>
	<path class="st0" d="M190.1,131.3c-1.5,0-2.9-0.4-4-1.2c-1.2-0.8-2.1-1.9-2.7-3.3c-0.7-1.4-1-3.1-1-5.1c0-1.9,0.3-3.6,1-5
		c0.7-1.4,1.6-2.5,2.7-3.2c1.2-0.7,2.5-1.1,4-1.1c1.5,0,2.9,0.4,4.1,1.1c1.2,0.8,2.1,1.8,2.7,3.2c0.7,1.4,1,3.1,1,5
		c0,1.9-0.3,3.6-1,5.1s-1.6,2.5-2.7,3.3C193,130.9,191.7,131.3,190.1,131.3z M190.1,129.3c1.1,0,2-0.3,2.8-0.9
		c0.8-0.6,1.4-1.5,1.9-2.6c0.4-1.1,0.7-2.4,0.7-4c0-2.3-0.5-4-1.5-5.4c-1-1.3-2.3-2-3.9-2s-2.9,0.7-3.9,2c-1,1.3-1.5,3.1-1.5,5.4
		c0,1.5,0.2,2.8,0.7,4c0.4,1.1,1.1,2,1.9,2.6C188.1,129,189.1,129.3,190.1,129.3z"/>
	<path class="st0" d="M203,131v-18.2h2.4l6.6,11.4l2,3.8h0.1c-0.1-0.9-0.1-1.9-0.2-2.9s-0.1-2-0.1-2.9v-9.4h2.2V131h-2.4l-6.6-11.5
		l-2-3.7h-0.1c0.1,0.9,0.1,1.8,0.2,2.8c0.1,1,0.1,1.9,0.1,2.9v9.5H203z"/>
</g>
<g>
	<path class="st0" d="M317,132.7v-11.5h7.5v1.2h-5.9v3.6h5v1.2h-5v4.2h6.1v1.2H317z"/>
	<path class="st0" d="M325.4,132.7l3.2-4.4l-2.9-4.1h1.8l1.3,1.9c0.1,0.2,0.3,0.5,0.5,0.7c0.2,0.2,0.3,0.5,0.5,0.7h0.1
		c0.1-0.2,0.3-0.5,0.4-0.7c0.1-0.2,0.3-0.5,0.4-0.7l1.2-1.9h1.7l-2.9,4.2l3.2,4.3h-1.8l-1.4-2c-0.2-0.3-0.3-0.5-0.5-0.8
		c-0.2-0.3-0.4-0.5-0.5-0.8h-0.1c-0.2,0.2-0.3,0.5-0.5,0.7c-0.2,0.3-0.3,0.5-0.5,0.8l-1.3,2H325.4z"/>
	<path class="st0" d="M339.1,132.9c-0.9,0-1.6-0.2-2.3-0.5c-0.7-0.3-1.2-0.9-1.6-1.5c-0.4-0.7-0.6-1.5-0.6-2.4c0-1,0.2-1.8,0.6-2.4
		c0.4-0.7,1-1.2,1.7-1.5c0.7-0.3,1.5-0.5,2.3-0.5c0.6,0,1.2,0.1,1.6,0.3c0.5,0.2,0.9,0.4,1.2,0.7l-0.8,0.9c-0.3-0.2-0.6-0.4-0.9-0.5
		c-0.3-0.1-0.7-0.2-1-0.2c-0.6,0-1.1,0.1-1.6,0.4c-0.5,0.3-0.8,0.7-1.1,1.2c-0.3,0.5-0.4,1.1-0.4,1.7c0,1,0.3,1.7,0.8,2.3
		c0.6,0.6,1.3,0.9,2.2,0.9c0.5,0,0.9-0.1,1.3-0.3c0.4-0.2,0.7-0.4,1-0.6l0.7,1c-0.4,0.3-0.9,0.6-1.5,0.8
		C340.2,132.8,339.7,132.9,339.1,132.9z"/>
	<path class="st0" d="M346.1,132.9c-0.6,0-1.1-0.2-1.3-0.5c-0.3-0.3-0.4-0.8-0.4-1.4v-10.7h1.6v10.8c0,0.2,0,0.4,0.1,0.5
		c0.1,0.1,0.2,0.1,0.3,0.1c0.1,0,0.1,0,0.1,0c0,0,0.1,0,0.2,0l0.2,1.1c-0.1,0-0.2,0.1-0.4,0.1C346.5,132.9,346.3,132.9,346.1,132.9z
		"/>
	<path class="st0" d="M352.3,132.9c-1,0-1.8-0.3-2.3-0.8c-0.5-0.6-0.7-1.4-0.7-2.5v-5.4h1.7v5.2c0,0.8,0.1,1.4,0.4,1.7
		c0.3,0.4,0.7,0.5,1.4,0.5c0.5,0,1-0.1,1.3-0.3c0.4-0.2,0.8-0.6,1.3-1.1v-6h1.6v8.5h-1.4l-0.1-1.3h-0.1c-0.5,0.5-0.9,0.8-1.4,1.1
		C353.5,132.8,352.9,132.9,352.3,132.9z"/>
	<path class="st0" d="M362.8,132.9c-0.7,0-1.3-0.1-2-0.3c-0.6-0.2-1.2-0.5-1.6-0.8l0.8-1c0.4,0.3,0.9,0.5,1.3,0.7
		c0.5,0.2,1,0.3,1.5,0.3c0.6,0,1.1-0.1,1.4-0.4c0.3-0.3,0.5-0.6,0.5-0.9c0-0.3-0.1-0.5-0.3-0.7c-0.2-0.2-0.5-0.4-0.8-0.5
		c-0.3-0.1-0.7-0.3-1-0.4c-0.5-0.2-0.9-0.3-1.3-0.5c-0.4-0.2-0.8-0.4-1.1-0.8c-0.3-0.3-0.4-0.7-0.4-1.2c0-0.7,0.3-1.3,0.9-1.7
		c0.6-0.5,1.4-0.7,2.5-0.7c0.6,0,1.2,0.1,1.7,0.3c0.5,0.2,1,0.4,1.3,0.7l-0.8,0.9c-0.3-0.2-0.7-0.4-1-0.5c-0.4-0.1-0.8-0.2-1.2-0.2
		c-0.6,0-1.1,0.1-1.3,0.4c-0.3,0.2-0.4,0.5-0.4,0.9c0,0.3,0.1,0.5,0.3,0.7c0.2,0.2,0.5,0.3,0.8,0.4c0.3,0.1,0.7,0.2,1,0.4
		c0.5,0.2,0.9,0.3,1.4,0.5c0.5,0.2,0.8,0.4,1.1,0.8c0.3,0.3,0.4,0.7,0.4,1.3c0,0.5-0.1,0.9-0.4,1.3s-0.7,0.7-1.2,0.9
		C364.2,132.8,363.6,132.9,362.8,132.9z"/>
	<path class="st0" d="M369.5,122.5c-0.3,0-0.6-0.1-0.8-0.3c-0.2-0.2-0.3-0.4-0.3-0.7c0-0.3,0.1-0.5,0.3-0.7c0.2-0.2,0.5-0.3,0.8-0.3
		c0.3,0,0.6,0.1,0.8,0.3c0.2,0.2,0.3,0.4,0.3,0.7c0,0.3-0.1,0.5-0.3,0.7C370.1,122.4,369.8,122.5,369.5,122.5z M368.6,132.7v-8.5
		h1.6v8.5H368.6z"/>
	<path class="st0" d="M375.6,132.7l-3.5-8.5h1.7l1.8,4.8c0.1,0.4,0.3,0.8,0.4,1.3c0.2,0.4,0.3,0.8,0.4,1.2h0.1
		c0.1-0.4,0.3-0.8,0.4-1.2c0.2-0.4,0.3-0.8,0.4-1.3l1.8-4.8h1.6l-3.4,8.5H375.6z"/>
	<path class="st0" d="M386.7,132.9c-0.9,0-1.6-0.2-2.4-0.5c-0.7-0.4-1.3-0.9-1.7-1.5c-0.4-0.7-0.6-1.5-0.6-2.4
		c0-0.9,0.2-1.7,0.6-2.4c0.4-0.7,1-1.2,1.6-1.5c0.7-0.4,1.4-0.5,2.1-0.5c1.2,0,2.2,0.4,2.9,1.1c0.7,0.7,1,1.7,1,2.9
		c0,0.2,0,0.3,0,0.4c0,0.1,0,0.3-0.1,0.4h-6.5c0.1,0.9,0.4,1.6,1,2.1c0.6,0.5,1.3,0.8,2.3,0.8c0.5,0,0.9-0.1,1.3-0.2
		c0.4-0.1,0.8-0.3,1.1-0.5l0.6,0.9c-0.4,0.2-0.9,0.4-1.4,0.6C388,132.8,387.4,132.9,386.7,132.9z M383.7,127.8h5.2
		c0-0.9-0.2-1.5-0.6-2c-0.4-0.4-1-0.7-1.8-0.7c-0.7,0-1.3,0.2-1.8,0.7C384.1,126.3,383.8,126.9,383.7,127.8z"/>
	<path class="st0" d="M400,132.9c-1.2,0-2.2-0.4-2.9-1.2c-0.7-0.8-1.1-1.9-1.1-3.3c0-0.9,0.2-1.7,0.6-2.4c0.4-0.7,0.9-1.2,1.6-1.5
		c0.6-0.4,1.3-0.5,2.1-0.5c0.6,0,1,0.1,1.5,0.3c0.4,0.2,0.8,0.4,1.3,0.7l-0.1-1.4v-3.3h1.7v12.4h-1.4l-0.1-1h-0.1
		c-0.4,0.3-0.8,0.6-1.3,0.8C401.1,132.8,400.5,132.9,400,132.9z M400.3,131.7c0.9,0,1.7-0.4,2.5-1.2v-4.4c-0.4-0.3-0.8-0.6-1.2-0.7
		c-0.4-0.1-0.8-0.2-1.2-0.2c-0.5,0-1,0.1-1.4,0.4c-0.4,0.3-0.8,0.7-1,1.1c-0.3,0.5-0.4,1.1-0.4,1.7c0,1,0.2,1.8,0.7,2.4
		S399.5,131.7,400.3,131.7z"/>
	<path class="st0" d="M408.6,122.5c-0.3,0-0.6-0.1-0.8-0.3c-0.2-0.2-0.3-0.4-0.3-0.7c0-0.3,0.1-0.5,0.3-0.7c0.2-0.2,0.5-0.3,0.8-0.3
		c0.3,0,0.6,0.1,0.8,0.3c0.2,0.2,0.3,0.4,0.3,0.7c0,0.3-0.1,0.5-0.3,0.7C409.1,122.4,408.9,122.5,408.6,122.5z M407.7,132.7v-8.5
		h1.6v8.5H407.7z"/>
	<path class="st0" d="M415.2,132.9c-0.7,0-1.3-0.1-2-0.3c-0.6-0.2-1.2-0.5-1.6-0.8l0.8-1c0.4,0.3,0.9,0.5,1.3,0.7
		c0.5,0.2,1,0.3,1.5,0.3c0.6,0,1.1-0.1,1.4-0.4c0.3-0.3,0.5-0.6,0.5-0.9c0-0.3-0.1-0.5-0.3-0.7c-0.2-0.2-0.5-0.4-0.8-0.5
		c-0.3-0.1-0.7-0.3-1-0.4c-0.5-0.2-0.9-0.3-1.3-0.5c-0.4-0.2-0.8-0.4-1.1-0.8c-0.3-0.3-0.4-0.7-0.4-1.2c0-0.7,0.3-1.3,0.9-1.7
		c0.6-0.5,1.4-0.7,2.5-0.7c0.6,0,1.2,0.1,1.7,0.3c0.5,0.2,1,0.4,1.3,0.7l-0.8,0.9c-0.3-0.2-0.7-0.4-1-0.5c-0.4-0.1-0.8-0.2-1.2-0.2
		c-0.6,0-1.1,0.1-1.3,0.4c-0.3,0.2-0.4,0.5-0.4,0.9c0,0.3,0.1,0.5,0.3,0.7c0.2,0.2,0.5,0.3,0.8,0.4c0.3,0.1,0.7,0.2,1,0.4
		c0.5,0.2,0.9,0.3,1.4,0.5c0.5,0.2,0.8,0.4,1.1,0.8c0.3,0.3,0.4,0.7,0.4,1.3c0,0.5-0.1,0.9-0.4,1.3s-0.7,0.7-1.2,0.9
		C416.6,132.8,415.9,132.9,415.2,132.9z"/>
	<path class="st0" d="M423.6,132.9c-1,0-1.8-0.3-2.2-0.8c-0.4-0.5-0.6-1.2-0.6-2v-4.7h-1.4v-1.1l1.5-0.1l0.2-2.4h1.4v2.4h2.6v1.2
		h-2.6v4.7c0,0.5,0.1,0.9,0.3,1.2c0.2,0.3,0.6,0.4,1.2,0.4c0.2,0,0.4,0,0.6-0.1c0.2-0.1,0.4-0.1,0.5-0.1l0.3,1.1
		c-0.3,0.1-0.6,0.2-0.9,0.2C424.2,132.9,423.9,132.9,423.6,132.9z"/>
	<path class="st0" d="M427.3,132.7v-8.5h1.4l0.1,1.5h0.1c0.3-0.5,0.7-1,1.2-1.3c0.5-0.3,1-0.5,1.5-0.5c0.4,0,0.7,0.1,1,0.2l-0.3,1.3
		c-0.2,0-0.3-0.1-0.4-0.1c-0.1,0-0.3,0-0.5,0c-0.4,0-0.8,0.1-1.3,0.4c-0.4,0.3-0.8,0.8-1.2,1.5v5.4H427.3z"/>
	<path class="st0" d="M435.1,122.5c-0.3,0-0.6-0.1-0.8-0.3c-0.2-0.2-0.3-0.4-0.3-0.7c0-0.3,0.1-0.5,0.3-0.7c0.2-0.2,0.5-0.3,0.8-0.3
		c0.3,0,0.6,0.1,0.8,0.3c0.2,0.2,0.3,0.4,0.3,0.7c0,0.3-0.1,0.5-0.3,0.7C435.7,122.4,435.4,122.5,435.1,122.5z M434.2,132.7v-8.5
		h1.6v8.5H434.2z"/>
	<path class="st0" d="M443.4,132.9c-0.5,0-0.9-0.1-1.4-0.3c-0.5-0.2-0.9-0.5-1.4-0.8h-0.1l-0.1,0.9h-1.3v-12.4h1.6v3.4l0,1.5
		c0.4-0.3,0.9-0.6,1.4-0.8c0.5-0.2,1.1-0.3,1.6-0.3c1.3,0,2.2,0.4,2.9,1.2c0.7,0.8,1,1.8,1,3.1c0,1-0.2,1.8-0.6,2.5
		c-0.4,0.7-0.9,1.2-1.5,1.6C444.9,132.7,444.2,132.9,443.4,132.9z M443.1,131.7c0.8,0,1.5-0.3,2-0.9c0.5-0.6,0.8-1.4,0.8-2.5
		c0-0.9-0.2-1.7-0.6-2.3c-0.4-0.6-1-0.9-2-0.9c-0.4,0-0.8,0.1-1.3,0.3c-0.4,0.2-0.9,0.5-1.3,0.9v4.5c0.4,0.3,0.8,0.6,1.3,0.7
		C442.5,131.6,442.8,131.7,443.1,131.7z"/>
	<path class="st0" d="M453,132.9c-1,0-1.8-0.3-2.3-0.8c-0.5-0.6-0.7-1.4-0.7-2.5v-5.4h1.7v5.2c0,0.8,0.1,1.4,0.4,1.7
		c0.3,0.4,0.7,0.5,1.4,0.5c0.5,0,1-0.1,1.3-0.3c0.4-0.2,0.8-0.6,1.3-1.1v-6h1.6v8.5h-1.4l-0.1-1.3h-0.1c-0.5,0.5-0.9,0.8-1.4,1.1
		C454.2,132.8,453.7,132.9,453,132.9z"/>
	<path class="st0" d="M464.1,132.9c-1,0-1.8-0.3-2.2-0.8c-0.4-0.5-0.6-1.2-0.6-2v-4.7h-1.4v-1.1l1.5-0.1l0.2-2.4h1.4v2.4h2.6v1.2
		h-2.6v4.7c0,0.5,0.1,0.9,0.3,1.2c0.2,0.3,0.6,0.4,1.2,0.4c0.2,0,0.4,0,0.6-0.1c0.2-0.1,0.4-0.1,0.5-0.1l0.3,1.1
		c-0.3,0.1-0.6,0.2-0.9,0.2C464.7,132.9,464.4,132.9,464.1,132.9z"/>
	<path class="st0" d="M471.2,132.9c-0.8,0-1.5-0.2-2.2-0.5c-0.7-0.3-1.2-0.9-1.7-1.5c-0.4-0.7-0.6-1.5-0.6-2.4c0-1,0.2-1.8,0.6-2.4
		c0.4-0.7,1-1.2,1.7-1.5c0.7-0.3,1.4-0.5,2.2-0.5c0.8,0,1.5,0.2,2.2,0.5c0.7,0.3,1.2,0.9,1.6,1.5c0.4,0.7,0.6,1.5,0.6,2.4
		c0,0.9-0.2,1.7-0.6,2.4c-0.4,0.7-1,1.2-1.6,1.5C472.8,132.7,472,132.9,471.2,132.9z M471.2,131.7c0.8,0,1.5-0.3,2-0.9
		c0.5-0.6,0.8-1.4,0.8-2.3c0-1-0.3-1.8-0.8-2.4c-0.5-0.6-1.2-0.9-2-0.9c-0.8,0-1.5,0.3-2,0.9c-0.5,0.6-0.8,1.4-0.8,2.4
		c0,1,0.3,1.7,0.8,2.3C469.7,131.4,470.4,131.7,471.2,131.7z"/>
	<path class="st0" d="M478.3,132.7v-8.5h1.4l0.1,1.5h0.1c0.3-0.5,0.7-1,1.2-1.3c0.5-0.3,1-0.5,1.5-0.5c0.4,0,0.7,0.1,1,0.2l-0.3,1.3
		c-0.2,0-0.3-0.1-0.4-0.1c-0.1,0-0.3,0-0.5,0c-0.4,0-0.8,0.1-1.3,0.4c-0.4,0.3-0.8,0.8-1.2,1.5v5.4H478.3z"/>
	<path class="st0" d="M491.7,132.9c-0.7,0-1.3-0.1-2-0.3c-0.6-0.2-1.2-0.5-1.6-0.8l0.8-1c0.4,0.3,0.9,0.5,1.3,0.7
		c0.5,0.2,1,0.3,1.5,0.3c0.6,0,1.1-0.1,1.4-0.4c0.3-0.3,0.5-0.6,0.5-0.9c0-0.3-0.1-0.5-0.3-0.7c-0.2-0.2-0.5-0.4-0.8-0.5
		c-0.3-0.1-0.7-0.3-1-0.4c-0.5-0.2-0.9-0.3-1.3-0.5c-0.4-0.2-0.8-0.4-1.1-0.8c-0.3-0.3-0.4-0.7-0.4-1.2c0-0.7,0.3-1.3,0.9-1.7
		c0.6-0.5,1.4-0.7,2.5-0.7c0.6,0,1.2,0.1,1.7,0.3c0.5,0.2,1,0.4,1.3,0.7l-0.8,0.9c-0.3-0.2-0.7-0.4-1-0.5c-0.4-0.1-0.8-0.2-1.2-0.2
		c-0.6,0-1.1,0.1-1.3,0.4c-0.3,0.2-0.4,0.5-0.4,0.9c0,0.3,0.1,0.5,0.3,0.7c0.2,0.2,0.5,0.3,0.8,0.4c0.3,0.1,0.7,0.2,1,0.4
		c0.5,0.2,0.9,0.3,1.4,0.5c0.5,0.2,0.8,0.4,1.1,0.8c0.3,0.3,0.4,0.7,0.4,1.3c0,0.5-0.1,0.9-0.4,1.3c-0.3,0.4-0.7,0.7-1.2,0.9
		C493.1,132.8,492.5,132.9,491.7,132.9z"/>
	<path class="st0" d="M498.4,122.5c-0.3,0-0.6-0.1-0.8-0.3c-0.2-0.2-0.3-0.4-0.3-0.7c0-0.3,0.1-0.5,0.3-0.7c0.2-0.2,0.5-0.3,0.8-0.3
		c0.3,0,0.6,0.1,0.8,0.3c0.2,0.2,0.3,0.4,0.3,0.7c0,0.3-0.1,0.5-0.3,0.7C498.9,122.4,498.7,122.5,498.4,122.5z M497.5,132.7v-8.5
		h1.6v8.5H497.5z"/>
	<path class="st0" d="M502.4,132.7v-8.5h1.4l0.1,1.2h0.1c0.5-0.4,1-0.7,1.5-1c0.5-0.3,1.1-0.4,1.8-0.4c1,0,1.8,0.3,2.2,0.8
		c0.5,0.6,0.7,1.4,0.7,2.5v5.4h-1.6v-5.2c0-0.8-0.1-1.4-0.4-1.7c-0.3-0.4-0.8-0.5-1.4-0.5c-0.5,0-0.9,0.1-1.3,0.3
		c-0.4,0.2-0.8,0.5-1.3,1v6.1H502.4z"/>
	<path class="st0" d="M517.2,132.9c-0.9,0-1.6-0.2-2.3-0.5c-0.7-0.3-1.2-0.9-1.6-1.5c-0.4-0.7-0.6-1.5-0.6-2.4c0-1,0.2-1.8,0.6-2.4
		c0.4-0.7,1-1.2,1.7-1.5c0.7-0.3,1.5-0.5,2.3-0.5c0.6,0,1.2,0.1,1.6,0.3c0.5,0.2,0.9,0.4,1.2,0.7l-0.8,0.9c-0.3-0.2-0.6-0.4-0.9-0.5
		c-0.3-0.1-0.7-0.2-1-0.2c-0.6,0-1.1,0.1-1.6,0.4c-0.5,0.3-0.8,0.7-1.1,1.2c-0.3,0.5-0.4,1.1-0.4,1.7c0,1,0.3,1.7,0.8,2.3
		c0.6,0.6,1.3,0.9,2.2,0.9c0.5,0,0.9-0.1,1.3-0.3c0.4-0.2,0.7-0.4,1-0.6l0.7,1c-0.4,0.3-0.9,0.6-1.5,0.8
		C518.3,132.8,517.8,132.9,517.2,132.9z"/>
	<path class="st0" d="M525.9,132.9c-0.9,0-1.6-0.2-2.4-0.5c-0.7-0.4-1.3-0.9-1.7-1.5c-0.4-0.7-0.6-1.5-0.6-2.4
		c0-0.9,0.2-1.7,0.6-2.4c0.4-0.7,1-1.2,1.6-1.5c0.7-0.4,1.4-0.5,2.1-0.5c1.2,0,2.2,0.4,2.9,1.1c0.7,0.7,1,1.7,1,2.9
		c0,0.2,0,0.3,0,0.4c0,0.1,0,0.3,0,0.4h-6.5c0.1,0.9,0.4,1.6,1,2.1c0.6,0.5,1.3,0.8,2.3,0.8c0.5,0,0.9-0.1,1.3-0.2
		c0.4-0.1,0.8-0.3,1.1-0.5l0.6,0.9c-0.4,0.2-0.9,0.4-1.4,0.6C527.2,132.8,526.6,132.9,525.9,132.9z M522.9,127.8h5.2
		c0-0.9-0.2-1.5-0.6-2c-0.4-0.4-1-0.7-1.8-0.7c-0.7,0-1.3,0.2-1.8,0.7C523.3,126.3,523,126.9,522.9,127.8z"/>
	<path class="st0" d="M535.8,132.7v-1.2h2.9v-8.2h-2.3v-0.9c0.6-0.1,1.1-0.2,1.5-0.3c0.4-0.1,0.8-0.3,1.2-0.5h1.3v10h2.6v1.2H535.8z
		"/>
	<path class="st0" d="M548.3,132.9c-0.7,0-1.3-0.1-1.8-0.3c-0.5-0.2-0.9-0.5-1.3-0.8l0.9-0.9c0.3,0.3,0.6,0.5,0.9,0.6
		s0.7,0.2,1.1,0.2c0.6,0,1.1-0.2,1.7-0.5c0.5-0.3,0.9-0.8,1.2-1.5c0.3-0.7,0.5-1.6,0.5-2.8c-0.4,0.4-0.9,0.8-1.4,1
		c-0.5,0.3-1.1,0.4-1.6,0.4c-1.1,0-2-0.3-2.6-0.9c-0.7-0.6-1-1.4-1-2.6c0-0.7,0.2-1.3,0.5-1.9c0.3-0.5,0.8-1,1.4-1.3
		c0.6-0.3,1.2-0.5,1.9-0.5c0.8,0,1.6,0.2,2.3,0.6s1.2,1,1.6,1.8c0.4,0.8,0.6,1.8,0.6,3c0,1.5-0.2,2.7-0.7,3.6
		c-0.5,0.9-1.1,1.6-1.8,2C549.9,132.7,549.1,132.9,548.3,132.9z M546.5,124.9c0,0.7,0.2,1.3,0.6,1.7c0.4,0.4,1,0.6,1.8,0.6
		c0.4,0,0.9-0.1,1.3-0.3c0.5-0.2,0.9-0.6,1.3-1.1c-0.1-1.1-0.4-1.9-0.9-2.5c-0.5-0.6-1.1-0.8-1.9-0.8c-0.6,0-1.1,0.2-1.6,0.7
		C546.7,123.6,546.5,124.2,546.5,124.9z"/>
	<path class="st0" d="M559.1,132.9c-0.8,0-1.5-0.1-2.1-0.4c-0.6-0.3-1.1-0.6-1.5-1.1c-0.4-0.5-0.5-1-0.5-1.6c0-0.5,0.1-0.9,0.3-1.3
		c0.2-0.4,0.5-0.7,0.9-1c0.4-0.3,0.7-0.5,1.1-0.7v-0.1c-0.5-0.3-0.9-0.6-1.2-1.1c-0.4-0.4-0.5-0.9-0.5-1.5c0-0.6,0.2-1.1,0.5-1.5
		c0.3-0.4,0.8-0.8,1.3-1c0.5-0.2,1.2-0.4,1.8-0.4c1.1,0,2,0.3,2.6,0.8c0.6,0.6,1,1.3,1,2.1c0,0.4-0.1,0.7-0.3,1.1
		c-0.2,0.3-0.4,0.7-0.7,0.9c-0.3,0.3-0.5,0.5-0.8,0.7v0.1c0.4,0.2,0.7,0.4,1.1,0.7c0.3,0.3,0.6,0.6,0.8,0.9c0.2,0.4,0.3,0.8,0.3,1.3
		c0,0.5-0.2,1-0.5,1.5c-0.3,0.5-0.8,0.8-1.4,1.1S559.9,132.9,559.1,132.9z M559.1,131.8c0.7,0,1.3-0.2,1.8-0.5
		c0.5-0.4,0.7-0.8,0.7-1.4c0-0.5-0.2-0.9-0.5-1.2c-0.3-0.3-0.7-0.6-1.3-0.8s-1.1-0.4-1.7-0.6c-0.5,0.3-0.9,0.6-1.3,1
		c-0.3,0.4-0.5,0.9-0.5,1.4c0,0.6,0.3,1.1,0.8,1.5C557.7,131.6,558.3,131.8,559.1,131.8z M560,126.6c0.4-0.3,0.8-0.7,1-1.1
		c0.2-0.4,0.3-0.8,0.3-1.2c0-0.5-0.2-1-0.6-1.4c-0.4-0.4-0.9-0.6-1.6-0.6c-0.6,0-1.1,0.2-1.5,0.5c-0.4,0.3-0.6,0.8-0.6,1.3
		c0,0.4,0.1,0.8,0.4,1.1c0.3,0.3,0.6,0.5,1.1,0.7C559,126.2,559.5,126.4,560,126.6z"/>
	<path class="st0" d="M568.9,132.9c-1.3,0-2.3-0.5-3-1.5c-0.7-1-1.1-2.4-1.1-4.3c0-1.9,0.4-3.3,1.1-4.3c0.7-1,1.7-1.5,3-1.5
		c1.3,0,2.3,0.5,3,1.5c0.7,1,1.1,2.4,1.1,4.3c0,1.9-0.4,3.3-1.1,4.3C571.2,132.4,570.2,132.9,568.9,132.9z M568.9,131.7
		c0.7,0,1.3-0.4,1.8-1.1c0.5-0.7,0.7-1.9,0.7-3.6c0-1.6-0.2-2.8-0.7-3.5c-0.5-0.7-1.1-1.1-1.8-1.1c-0.7,0-1.3,0.4-1.8,1.1
		c-0.5,0.7-0.7,1.9-0.7,3.5c0,1.6,0.2,2.8,0.7,3.6C567.6,131.4,568.2,131.7,568.9,131.7z"/>
	<path class="st0" d="M580.4,132.9c-0.3,0-0.6-0.1-0.8-0.3c-0.2-0.2-0.3-0.5-0.3-0.8c0-0.3,0.1-0.6,0.3-0.8c0.2-0.2,0.5-0.3,0.8-0.3
		c0.3,0,0.6,0.1,0.8,0.3c0.2,0.2,0.3,0.5,0.3,0.8c0,0.3-0.1,0.6-0.3,0.8C581,132.8,580.7,132.9,580.4,132.9z"/>
	<path class="st0" d="M589.3,132.7V117h2.7l3.4,8.4c0.2,0.5,0.4,1.1,0.6,1.6c0.2,0.5,0.4,1.1,0.6,1.6h0.1c0.2-0.5,0.4-1.1,0.6-1.6
		c0.2-0.5,0.4-1.1,0.6-1.6l3.4-8.4h2.8v15.7h-2.1v-8.6c0-0.7,0-1.5,0.1-2.3c0.1-0.9,0.1-1.6,0.2-2.3h-0.1l-1.4,3.6l-3.4,8.1H596
		l-3.4-8.1l-1.4-3.6h-0.1c0.1,0.7,0.1,1.5,0.2,2.3c0.1,0.9,0.1,1.6,0.1,2.3v8.6H589.3z"/>
	<path class="st0" d="M606.7,132.7l6.1-15.7h2.6l6.1,15.7H619l-1.7-4.8h-6.5l-1.7,4.8H606.7z M612.2,123.9l-0.8,2.4h5.4l-0.8-2.4
		c-0.3-0.9-0.6-1.7-0.9-2.6c-0.3-0.9-0.6-1.8-0.9-2.7h-0.1c-0.3,0.9-0.6,1.8-0.8,2.7C612.8,122.2,612.5,123.1,612.2,123.9z"/>
	<path class="st0" d="M623.9,132.7V117h4.5c2.8,0,4.9,0.7,6.3,2c1.4,1.3,2.2,3.3,2.2,5.7c0,2.5-0.7,4.4-2.1,5.8
		c-1.4,1.4-3.5,2.1-6.2,2.1H623.9z M626.2,131.1h2c2.1,0,3.7-0.6,4.7-1.7c1-1.1,1.6-2.6,1.6-4.6c0-2-0.5-3.5-1.6-4.5
		c-1-1.1-2.6-1.6-4.7-1.6h-2V131.1z"/>
	<path class="st0" d="M640.7,132.7V117H651v1.7h-8v4.9h6.8v1.7h-6.8v5.7h8.3v1.7H640.7z"/>
	<path class="st0" d="M660.5,132.7V117h2.3v15.7H660.5z"/>
	<path class="st0" d="M667.7,132.7V117h2.3l6.5,9.8l1.9,3.2h0.1c-0.1-0.8-0.1-1.6-0.2-2.5c-0.1-0.9-0.1-1.7-0.1-2.5V117h2.2v15.7
		H678l-6.5-9.9l-1.9-3.2h-0.1c0.1,0.8,0.1,1.6,0.2,2.4c0.1,0.8,0.1,1.7,0.1,2.5v8.2H667.7z"/>
	<path class="st0" d="M697.8,133c-1.6,0-3-0.3-4.2-1c-1.2-0.6-2.2-1.6-2.9-2.8c-0.7-1.2-1-2.7-1-4.4c0-1.7,0.4-3.1,1.1-4.3
		s1.7-2.1,2.9-2.8c1.2-0.7,2.6-1,4.2-1c1.2,0,2.3,0.2,3.1,0.6c0.8,0.4,1.5,0.8,2,1.3l-1.3,1.3c-0.5-0.4-1-0.8-1.6-1.1
		c-0.6-0.3-1.4-0.4-2.3-0.4c-1.2,0-2.2,0.3-3.1,0.8c-0.9,0.5-1.6,1.2-2.1,2.2c-0.5,0.9-0.7,2.1-0.7,3.4c0,2,0.5,3.5,1.5,4.7
		c1,1.2,2.5,1.7,4.4,1.7c0.6,0,1.2-0.1,1.8-0.3c0.6-0.2,1-0.4,1.4-0.7v-4.1h-3.8v-1.6h5.9v6.6c-0.6,0.5-1.3,1-2.3,1.3
		C700.1,132.8,699,133,697.8,133z"/>
	<path class="st0" d="M707.6,132.7V117h10.3v1.7h-8v4.9h6.8v1.7h-6.8v5.7h8.3v1.7H707.6z"/>
	<path class="st0" d="M721.9,132.7V117h5.6c1.2,0,2.3,0.1,3.2,0.4c0.9,0.3,1.7,0.7,2.2,1.4c0.5,0.6,0.8,1.5,0.8,2.6
		c0,1.2-0.4,2.2-1.1,2.9c-0.7,0.7-1.7,1.2-2.9,1.5l4.6,6.8h-2.6l-4.3-6.6h-3.2v6.6H721.9z M724.2,124.5h3c1.4,0,2.5-0.3,3.2-0.8
		c0.7-0.5,1.1-1.3,1.1-2.3c0-1-0.4-1.8-1.1-2.2c-0.7-0.4-1.8-0.6-3.2-0.6h-3V124.5z"/>
	<path class="st0" d="M737.4,132.7V117h2.7l3.4,8.4c0.2,0.5,0.4,1.1,0.6,1.6c0.2,0.5,0.4,1.1,0.6,1.6h0.1c0.2-0.5,0.4-1.1,0.6-1.6
		c0.2-0.5,0.4-1.1,0.6-1.6l3.4-8.4h2.8v15.7h-2.1v-8.6c0-0.7,0-1.5,0.1-2.3c0.1-0.9,0.1-1.6,0.2-2.3h-0.1L749,123l-3.4,8.1h-1.5
		l-3.4-8.1l-1.4-3.6h-0.1c0.1,0.7,0.1,1.5,0.2,2.3c0.1,0.9,0.1,1.6,0.1,2.3v8.6H737.4z"/>
	<path class="st0" d="M754.9,132.7l6.1-15.7h2.6l6.1,15.7h-2.4l-1.7-4.8h-6.5l-1.7,4.8H754.9z M760.3,123.9l-0.8,2.4h5.4l-0.8-2.4
		c-0.3-0.9-0.6-1.7-0.9-2.6c-0.3-0.9-0.6-1.8-0.9-2.7h-0.1c-0.3,0.9-0.6,1.8-0.8,2.7C761,122.2,760.7,123.1,760.3,123.9z"/>
	<path class="st0" d="M772.1,132.7V117h2.3l6.5,9.8l1.9,3.2h0.1c-0.1-0.8-0.1-1.6-0.2-2.5c-0.1-0.9-0.1-1.7-0.1-2.5V117h2.2v15.7
		h-2.3l-6.5-9.9l-1.9-3.2h-0.1c0.1,0.8,0.1,1.6,0.2,2.4c0.1,0.8,0.1,1.7,0.1,2.5v8.2H772.1z"/>
	<path class="st0" d="M792.6,132.7v-6.1l-5.4-9.6h2.4l2.3,4.4c0.3,0.6,0.6,1.1,0.9,1.7c0.3,0.6,0.6,1.1,0.9,1.7h0.1
		c0.3-0.6,0.6-1.2,0.9-1.7c0.3-0.6,0.6-1.1,0.9-1.7l2.3-4.4h2.4l-5.4,9.6v6.1H792.6z"/>
</g>
</svg>
