<?xml version="1.0" encoding="utf-8"?>
<!-- Generator: Adobe Illustrator 24.0.0, SVG Export Plug-In . SVG Version: 6.00 Build 0)  -->
<svg version="1.1" id="Layer_1" xmlns="http://www.w3.org/2000/svg" xmlns:xlink="http://www.w3.org/1999/xlink" x="0px" y="0px"
	 viewBox="0 0 852.57 113.6" style="enable-background:new 0 0 852.57 113.6;" xml:space="preserve">
<style type="text/css">
	.st0{fill:#4B4C4C;}
	.st1{fill:#231F20;}
	.st2{fill:#0D0F21;}
</style>
<g>
	<g>
		<path class="st0" d="M821.7,32.55c0-7.76,6.28-13.41,13.7-13.41c7.33,0,13.62,5.65,13.62,13.41c0,7.8-6.29,13.52-13.62,13.52
			C827.98,46.06,821.7,40.34,821.7,32.55z M835.41,43.81c6.08,0,10.9-4.78,10.9-11.26c0-6.4-4.82-11.21-10.9-11.21
			c-6.16,0-10.99,4.81-10.99,11.21C824.42,39.03,829.24,43.81,835.41,43.81z M832.54,40.34h-2.34V24.78h5.93
			c3.65,0,5.46,1.36,5.46,4.45c0,2.77-1.74,4-4.02,4.25l4.42,6.86h-2.62l-4.09-6.73h-2.73V40.34z M835.37,31.62
			c1.98,0,3.78-0.13,3.78-2.52c0-1.96-1.74-2.29-3.39-2.29h-3.22v4.81H835.37z"/>
		<path class="st0" d="M766.51,101.24V30.62h24.78c18.22,0,29.52,10.6,29.52,33.82c0,26.6-11.85,36.8-29.98,36.8H766.51z
			 M784.05,85.74h3.93c8.63,0,16.2-5.72,16.2-19.05c0-14.7-6.7-18.61-16.6-18.61h-3.52V85.74z"/>
		<path class="st0" d="M310.83,101.09L333,17.72h19.13l22.66,83.37h-16.01l-3.89-13.73h-24.35l-3.9,13.73H310.83z M342.57,36.06
			l-8.2,34.68h16.65L342.57,36.06z"/>
		<path class="st0" d="M377.39,101.09V30.46h18.53v54.13h25.43v16.5H377.39z"/>
		<path class="st0" d="M422.95,30.46h17.6v42.28c0,6.93,1.06,12.92,8.27,12.92c6.34,0,8.21-5.27,8.21-12.92V30.46h17.59v41.33
			c0,22.69-7.98,31.18-25.8,31.18c-16.61,0-25.87-6.94-25.87-31.25V30.46z"/>
		<path class="st0" d="M514.98,57.43c-0.5-7.36-4.02-11.58-9.53-11.58c-6.19,0-9.92,6.99-9.92,20.6c0,9.9,1.65,19.21,10.59,19.21
			c5.67,0,8.36-5.18,9.02-11.94h16.93c-1.58,18.24-11.48,29.25-25.66,29.25c-17.74,0-28.48-14.31-28.48-37.29
			c0-22.87,11.79-37.08,26.78-37.08c16.39,0,25.57,10.67,27,28.84H514.98z"/>
		<path class="st0" d="M595.46,101.09V30.46h26.07c12.71,0,22.83,3.71,22.83,17.74c0,7.28-3.78,12.59-7.38,15.39
			c6.12,1.97,9.43,8.54,9.43,16.17c0,15.84-9.66,21.32-24.34,21.32H595.46z M612.08,71.55v13.03h9.99c4.56,0,8-1.16,8-6.46
			c0-6.18-4.31-6.58-10.2-6.58H612.08z M612.08,46.94v11.77h9.61c3.69,0,6.35-2.09,6.35-6.19c0-5.47-3.62-5.58-7.54-5.58H612.08z"/>
		<path class="st0" d="M593.43,65.38c0,24.04-12.93,37.59-29.69,37.59c-17.72,0-29.57-13.76-29.57-37.8
			c0-22.15,12.01-36.58,29.57-36.58C583.94,28.59,593.43,46.72,593.43,65.38z M552.69,65.38c0,9.03,2.21,20.28,11.05,20.28
			c8.03,0,11.16-8.6,11.16-20.28c0-9.62-3.14-19.83-11.31-19.53C555.21,45.85,552.69,56.44,552.69,65.38z"/>
		<path class="st0" d="M745.89,69.02l-0.67-16.12V30.46h16.86v70.63h-16.49l-19.17-38.44l0.69,16.09v22.36h-16.86V30.46h16.49
			L745.89,69.02z"/>
		<path class="st0" d="M707.22,65.38c0,24.04-12.93,37.59-29.69,37.59c-17.72,0-29.57-13.76-29.57-37.8
			c0-22.15,12.01-36.58,29.57-36.58C697.74,28.59,707.22,46.72,707.22,65.38z M666.48,65.38c0,9.03,2.21,20.28,11.05,20.28
			c8.03,0,11.16-8.6,11.16-20.28c0-9.62-3.14-19.83-11.31-19.53C669,45.85,666.48,56.44,666.48,65.38z"/>
	</g>
</g>
<polygon class="st1" points="17.65,100.66 36.78,48.96 44.88,72.33 31.82,72.33 31.82,86.32 49.53,86.32 54.78,100.66 69.8,100.66 
	43.69,30.54 29.16,30.54 3.85,100.66 "/>
<path class="st1" d="M74.5,100.66v-69.9h13.73l28.61,46.68V30.76h13.11v69.9h-14.16L87.61,55.07v45.58H74.5z"/>
<path class="st1" d="M136.61,100.66v-69.9h14.11v69.9H136.61z"/>
<path class="st1" d="M156.28,30.76h25.8c5.82,0,10.25,0.45,13.3,1.34c4.1,1.21,7.61,3.35,10.54,6.44c2.92,3.08,5.15,6.86,6.68,11.32
	c1.53,4.47,2.29,9.97,2.29,16.52c0,5.75-0.72,10.71-2.15,14.88c-1.75,5.09-4.24,9.2-7.49,12.35c-2.45,2.38-5.75,4.24-9.92,5.58
	c-3.12,0.99-7.28,1.48-12.49,1.48h-26.56V30.76z M170.39,42.58v46.3h10.54c3.94,0,6.79-0.22,8.53-0.67c2.29-0.57,4.19-1.54,5.7-2.91
	c1.51-1.37,2.74-3.62,3.7-6.75c0.95-3.13,1.43-7.4,1.43-12.8c0-5.4-0.48-9.55-1.43-12.44c-0.95-2.89-2.29-5.15-4-6.77
	c-1.72-1.62-3.89-2.72-6.53-3.29c-1.97-0.44-5.83-0.67-11.59-0.67H170.39z"/>
<path class="st2" d="M256.4,111.75V6.41h13.35v105.34H256.4z"/>
</svg>
