<?xml version="1.0" encoding="utf-8"?>
<!-- Generator: Adobe Illustrator 24.0.0, SVG Export Plug-In . SVG Version: 6.00 Build 0)  -->
<svg version="1.1" id="Layer_1" xmlns="http://www.w3.org/2000/svg" xmlns:xlink="http://www.w3.org/1999/xlink" x="0px" y="0px"
	 viewBox="0 0 1074.4 666.9" style="enable-background:new 0 0 1074.4 666.9;" xml:space="preserve">
<style type="text/css">
	.st0{fill:#5C5C5C;}
	.st1{fill:#AAAAAA;}
	.st2{fill:#828282;}
	.st3{fill:none;stroke:#13110C;stroke-width:2.1965;stroke-miterlimit:10;}
	.st4{fill:#E6E6E6;stroke:#000000;stroke-width:1.4643;stroke-miterlimit:10;}
	.st5{fill:#13110C;}
	.st6{fill:#13110C;stroke:#13110C;stroke-width:1.684;stroke-miterlimit:10;}
	.st7{font-family:'SourceSansPro-Regular';}
	.st8{font-size:28.5542px;}
	.st9{font-family:'SourceSansPro-Bold';}
	.st10{fill:#AAAAAA;stroke:#0C0000;stroke-width:0.7322;stroke-miterlimit:10;}
	.st11{fill:#89867E;stroke:#000000;stroke-width:2.1965;stroke-miterlimit:10;}
	.st12{fill:#13110C;stroke:#13110C;stroke-width:2.1965;stroke-miterlimit:10;}
	.st13{fill:#FF0000;}
	.st14{stroke:#000000;stroke-width:2.1965;stroke-miterlimit:10;}
</style>
<rect x="313.1" y="324.7" class="st0" width="12.8" height="291.4"/>
<rect x="454.7" y="47.4" transform="matrix(-1 -1.224647e-16 1.224647e-16 -1 982.443 662.8633)" class="st1" width="73" height="568.2"/>
<rect x="527.7" y="47.4" class="st2" width="132.1" height="568.2"/>
<rect x="504.7" y="82.9" transform="matrix(-1 -1.224647e-16 1.224647e-16 -1 1032.4275 380.6369)" class="st3" width="23" height="214.9"/>
<rect x="504.7" y="82.9" transform="matrix(-1 -1.224647e-16 1.224647e-16 -1 1032.4275 380.6369)" class="st0" width="23" height="214.9"/>
<rect x="504.7" y="460.7" transform="matrix(-1 -1.224647e-16 1.224647e-16 -1 1032.4275 1045.8873)" class="st0" width="23" height="124.5"/>
<g>
	<rect x="335.9" y="47.4" class="st4" width="95.1" height="568.2"/>
	
		<rect x="325.9" y="47.4" transform="matrix(-1 -1.224647e-16 1.224647e-16 -1 661.8038 662.8633)" class="st4" width="10" height="568.2"/>
	<rect x="495.8" y="82.9" class="st4" width="8.9" height="214.9"/>
	<rect x="495.8" y="460.7" class="st4" width="8.9" height="124.5"/>
	
		<rect x="393.5" y="82.9" transform="matrix(-1 -1.224647e-16 1.224647e-16 -1 889.2622 380.6369)" class="st4" width="102.3" height="214.9"/>
	
		<rect x="393.5" y="460.7" transform="matrix(-1 -1.224647e-16 1.224647e-16 -1 889.2622 1045.8873)" class="st4" width="102.3" height="124.5"/>
</g>
<circle class="st5" cx="597" cy="93.7" r="4.3"/>
<line class="st6" x1="597" y1="93.7" x2="705.1" y2="93.7"/>
<circle class="st5" cx="514.8" cy="173.3" r="4.3"/>
<line class="st6" x1="514.8" y1="173.3" x2="705.1" y2="173.3"/>
<circle class="st5" cx="558.9" cy="270.4" r="4.3"/>
<line class="st6" x1="561.7" y1="270.4" x2="705.1" y2="270.4"/>
<circle class="st5" cx="482.9" cy="415.2" r="4.3"/>
<line class="st6" x1="482.9" y1="415.2" x2="705.1" y2="415.2"/>
<g>
	<text transform="matrix(1 0 0 1 723.194 101.109)" class="st7 st8">Fixture Base</text>
</g>
<g>
	<text transform="matrix(1 0 0 1 30.9693 44.2521)" class="st7 st8">Rear Ventilation</text>
</g>
<g>
	<text transform="matrix(1 0 0 1 66.0904 135.6706)" class="st7 st8">Substructure</text>
</g>
<g>
	<text transform="matrix(1 0 0 1 47.7887 214.9406)" class="st7 st8">Vertical Profile</text>
</g>
<g>
	<text transform="matrix(1 0 0 1 88.4762 293.0094)" class="st7 st8">Fixed Point</text>
</g>
<g>
	<text transform="matrix(1 0 0 1 69.9166 484.7272)" class="st7 st8">Sliding Point</text>
</g>
<g>
	<text transform="matrix(1 0 0 1 -0.2406 563.197)" class="st7 st8">Fastening Element</text>
</g>
<g>
	<text transform="matrix(1 0 0 1 60.0777 372.431)"><tspan x="0" y="0" class="st9 st8">ALUCOBOND</tspan><tspan x="160.2" y="0" class="st7 st8">®</tspan></text>
</g>
<g>
	<text transform="matrix(1 0 0 1 723.194 279.2038)" class="st7 st8">Fixing Element</text>
</g>
<g>
	<text transform="matrix(1 0 0 1 723.193 421.6237)" class="st7 st8">Mineral Insulation</text>
</g>
<g>
	<text transform="matrix(1 0 0 1 723.193 565.2722)" class="st7 st8">Connecting Element</text>
</g>
<text transform="matrix(1 0 0 1 723.193 181.8146)" class="st7 st8">Thermal Separation Element</text>
<circle class="st5" cx="431.7" cy="129.4" r="4.3"/>
<line class="st6" x1="434.5" y1="129.4" x2="241.4" y2="129.4"/>
<circle class="st5" cx="364.8" cy="207.6" r="4.3"/>
<line class="st6" x1="364.8" y1="207.6" x2="241.4" y2="207.6"/>
<circle class="st5" cx="318.3" cy="365.8" r="4.3"/>
<line class="st6" x1="318.3" y1="365.8" x2="241.4" y2="365.8"/>
<circle class="st5" cx="299.6" cy="555.2" r="4.3"/>
<line class="st6" x1="299.6" y1="555.2" x2="241.4" y2="555.2"/>
<g>
	<line class="st3" x1="487.7" y1="111.6" x2="504.7" y2="111.6"/>
	<line class="st3" x1="527.7" y1="111.6" x2="553.9" y2="111.6"/>
	<line class="st3" x1="487.7" y1="102.5" x2="495.8" y2="111.6"/>
	<line class="st3" x1="495.8" y1="111.6" x2="487.7" y2="120.7"/>
</g>
<g>
	<line class="st3" x1="487.7" y1="270.4" x2="504.7" y2="270.4"/>
	<line class="st3" x1="527.7" y1="270.4" x2="553.9" y2="270.4"/>
	<line class="st3" x1="487.7" y1="261.3" x2="495.8" y2="270.4"/>
	<line class="st3" x1="495.8" y1="270.4" x2="487.7" y2="279.5"/>
</g>
<g>
	<line class="st3" x1="487.7" y1="522.9" x2="504.7" y2="522.9"/>
	<line class="st3" x1="527.7" y1="522.9" x2="553.9" y2="522.9"/>
	<line class="st3" x1="487.7" y1="513.9" x2="495.8" y2="522.9"/>
	<line class="st3" x1="495.8" y1="522.9" x2="487.7" y2="532"/>
</g>
<g>
	<line class="st3" x1="302.8" y1="555.2" x2="313.5" y2="555.2"/>
	<line class="st3" x1="326.2" y1="555.2" x2="352.4" y2="555.2"/>
	<line class="st3" x1="302.8" y1="546.1" x2="310.8" y2="555.2"/>
	<line class="st3" x1="310.8" y1="555.2" x2="302.8" y2="564.3"/>
</g>
<g>
	<line class="st3" x1="302.8" y1="397" x2="313.5" y2="397"/>
	<line class="st3" x1="326.2" y1="397" x2="352.4" y2="397"/>
	<line class="st3" x1="302.8" y1="387.9" x2="310.8" y2="397"/>
	<line class="st3" x1="310.8" y1="397" x2="302.8" y2="406"/>
</g>
<ellipse class="st10" cx="403.8" cy="490.5" rx="2.8" ry="18.7"/>
<ellipse class="st10" cx="403.8" cy="559.7" rx="2.8" ry="18.7"/>
<g>
	<circle class="st11" cx="403.8" cy="490.5" r="7.5"/>
	<circle class="st12" cx="403.8" cy="490.5" r="2.2"/>
</g>
<g>
	<polygon class="st13" points="363.4,607.2 355.1,592.1 346.8,607.2 346.8,613.9 352.4,606.5 352.4,666.9 357.8,666.9 357.8,606.5 
		363.4,613.9 	"/>
	<polygon class="st13" points="451,607.2 442.7,592.1 434.4,607.2 434.4,613.9 440,606.5 440,666.9 445.4,666.9 445.4,606.5 
		451,613.9 	"/>
	<polygon class="st13" points="363.4,361.6 355.1,346.4 346.8,361.6 346.8,368.3 352.4,360.8 352.4,421.2 357.8,421.2 357.8,360.8 
		363.4,368.3 	"/>
	<polygon class="st13" points="451,361.6 442.7,346.4 434.4,361.6 434.4,368.3 440,360.8 440,421.2 445.4,421.2 445.4,360.8 
		451,368.3 	"/>
	<polygon class="st13" points="363.4,15.2 355.1,0 346.8,15.2 346.8,21.8 352.4,14.4 352.4,74.8 357.8,74.8 357.8,14.4 363.4,21.8 	
		"/>
	<polygon class="st13" points="451,15.2 442.7,0 434.4,15.2 434.4,21.8 440,14.4 440,74.8 445.4,74.8 445.4,14.4 451,21.8 	"/>
</g>
<g>
	<g>
		<circle class="st11" cx="403.8" cy="284.6" r="7.5"/>
		<circle class="st14" cx="403.8" cy="284.6" r="2.2"/>
	</g>
</g>
<g>
	<circle class="st11" cx="403.8" cy="96.7" r="7.5"/>
	<circle class="st12" cx="403.8" cy="96.7" r="2.2"/>
</g>
<line class="st6" x1="401.3" y1="477.6" x2="241.4" y2="477.6"/>
<circle class="st5" cx="400.4" cy="477.6" r="4.3"/>
<g>
	<g>
		<circle class="st11" cx="403.8" cy="559.7" r="7.5"/>
		<circle class="st14" cx="403.8" cy="559.7" r="2.2"/>
	</g>
</g>
<circle class="st5" cx="412.3" cy="559.2" r="4.3"/>
<line class="st6" x1="412.3" y1="559.2" x2="705.1" y2="559.7"/>
<circle class="st5" cx="394.3" cy="284.6" r="4.3"/>
<line class="st6" x1="397.1" y1="284.6" x2="241.4" y2="284.6"/>
<circle class="st5" cx="351.5" cy="37.4" r="4.3"/>
<line class="st6" x1="351.5" y1="37.4" x2="241.4" y2="37.4"/>
</svg>
