<?xml version="1.0" encoding="utf-8"?>
<!-- Generator: Adobe Illustrator 24.0.0, SVG Export Plug-In . SVG Version: 6.00 Build 0)  -->
<svg version="1.1" id="Layer_1" xmlns="http://www.w3.org/2000/svg" xmlns:xlink="http://www.w3.org/1999/xlink" x="0px" y="0px"
	 viewBox="0 0 111.5 99.4" style="enable-background:new 0 0 111.5 99.4;" xml:space="preserve">
<style type="text/css">
	.st0{fill:#F9F9FA;}
	.st1{opacity:0.7;fill:#F4F4F4;}
	.st2{opacity:0.6;fill:#E5E5E5;enable-background:new    ;}
</style>
<polygon class="st0" points="42.9,95.7 67.7,28.7 78.2,59 61.3,59 61.3,77.1 84.2,77.1 91,95.7 110.5,95.7 76.7,4.8 57.8,4.8 
	25,95.7 "/>
<polygon class="st0" points="42.9,95.7 67.7,28.7 78.2,59 61.3,59 61.3,77.1 84.2,77.1 91,95.7 110.5,95.7 76.7,4.8 57.8,4.8 
	25,95.7 "/>
<polygon class="st1" points="42.9,95.7 67.7,28.7 78.2,59 61.3,59 61.3,77.1 84.2,77.1 91,95.7 110.5,95.7 76.7,4.8 57.8,4.8 
	25,95.7 "/>
<polygon class="st2" points="52.1,4.8 33.3,4.8 0.5,95.7 18.4,95.7 "/>
</svg>
